<?xml version="1.0" encoding="utf-8" standalone="no"?>
<!DOCTYPE svg PUBLIC "-//W3C//DTD SVG 1.1//EN"
  "http://www.w3.org/Graphics/SVG/1.1/DTD/svg11.dtd">
<svg height="432pt" version="1.1" viewBox="0 0 1152 432" width="1152pt" xmlns="http://www.w3.org/2000/svg" xmlns:xlink="http://www.w3.org/1999/xlink">
 <metadata>
  <rdf:RDF xmlns:cc="http://creativecommons.org/ns#" xmlns:dc="http://purl.org/dc/elements/1.1/" xmlns:rdf="http://www.w3.org/1999/02/22-rdf-syntax-ns#">
   <cc:Work>
    <dc:type rdf:resource="http://purl.org/dc/dcmitype/StillImage"/>
    <dc:date>2021-12-28T10:04:33.183862</dc:date>
    <dc:format>image/svg+xml</dc:format>
    <dc:creator>
     <cc:Agent>
      <dc:title>Matplotlib v3.4.3, https://matplotlib.org/</dc:title>
     </cc:Agent>
    </dc:creator>
   </cc:Work>
  </rdf:RDF>
 </metadata>
 <defs>
  <style type="text/css">*{stroke-linecap:butt;stroke-linejoin:round;}</style>
 </defs>
 <g id="figure_1">
  <g id="patch_1">
   <path d="M 0 432 
L 1152 432 
L 1152 0 
L 0 0 
z
" style="fill:#ffffff;"/>
  </g>
  <g id="axes_1">
   <g id="patch_2">
    <path d="M 144 384.48 
L 1036.8 384.48 
L 1036.8 51.84 
L 144 51.84 
z
" style="fill:#ffffff;"/>
   </g>
   <g id="matplotlib.axis_1">
    <g id="xtick_1">
     <g id="line2d_1">
      <defs>
       <path d="M 0 0 
L 0 3.5 
" id="me32ea94481" style="stroke:#000000;stroke-width:0.8;"/>
      </defs>
      <g>
       <use style="stroke:#000000;stroke-width:0.8;" x="184.581818" xlink:href="#me32ea94481" y="384.48"/>
      </g>
     </g>
     <g id="text_1">
      <!-- 0 -->
      <g transform="translate(181.400568 399.078438)scale(0.1 -0.1)">
       <defs>
        <path d="M 2034 4250 
Q 1547 4250 1301 3770 
Q 1056 3291 1056 2328 
Q 1056 1369 1301 889 
Q 1547 409 2034 409 
Q 2525 409 2770 889 
Q 3016 1369 3016 2328 
Q 3016 3291 2770 3770 
Q 2525 4250 2034 4250 
z
M 2034 4750 
Q 2819 4750 3233 4129 
Q 3647 3509 3647 2328 
Q 3647 1150 3233 529 
Q 2819 -91 2034 -91 
Q 1250 -91 836 529 
Q 422 1150 422 2328 
Q 422 3509 836 4129 
Q 1250 4750 2034 4750 
z
" id="DejaVuSans-30" transform="scale(0.015625)"/>
       </defs>
       <use xlink:href="#DejaVuSans-30"/>
      </g>
     </g>
    </g>
    <g id="xtick_2">
     <g id="line2d_2">
      <g>
       <use style="stroke:#000000;stroke-width:0.8;" x="359.44123" xlink:href="#me32ea94481" y="384.48"/>
      </g>
     </g>
     <g id="text_2">
      <!-- 1 -->
      <g transform="translate(356.25998 399.078438)scale(0.1 -0.1)">
       <defs>
        <path d="M 794 531 
L 1825 531 
L 1825 4091 
L 703 3866 
L 703 4441 
L 1819 4666 
L 2450 4666 
L 2450 531 
L 3481 531 
L 3481 0 
L 794 0 
L 794 531 
z
" id="DejaVuSans-31" transform="scale(0.015625)"/>
       </defs>
       <use xlink:href="#DejaVuSans-31"/>
      </g>
     </g>
    </g>
    <g id="xtick_3">
     <g id="line2d_3">
      <g>
       <use style="stroke:#000000;stroke-width:0.8;" x="534.300642" xlink:href="#me32ea94481" y="384.48"/>
      </g>
     </g>
     <g id="text_3">
      <!-- 2 -->
      <g transform="translate(531.119392 399.078438)scale(0.1 -0.1)">
       <defs>
        <path d="M 1228 531 
L 3431 531 
L 3431 0 
L 469 0 
L 469 531 
Q 828 903 1448 1529 
Q 2069 2156 2228 2338 
Q 2531 2678 2651 2914 
Q 2772 3150 2772 3378 
Q 2772 3750 2511 3984 
Q 2250 4219 1831 4219 
Q 1534 4219 1204 4116 
Q 875 4013 500 3803 
L 500 4441 
Q 881 4594 1212 4672 
Q 1544 4750 1819 4750 
Q 2544 4750 2975 4387 
Q 3406 4025 3406 3419 
Q 3406 3131 3298 2873 
Q 3191 2616 2906 2266 
Q 2828 2175 2409 1742 
Q 1991 1309 1228 531 
z
" id="DejaVuSans-32" transform="scale(0.015625)"/>
       </defs>
       <use xlink:href="#DejaVuSans-32"/>
      </g>
     </g>
    </g>
    <g id="xtick_4">
     <g id="line2d_4">
      <g>
       <use style="stroke:#000000;stroke-width:0.8;" x="709.160054" xlink:href="#me32ea94481" y="384.48"/>
      </g>
     </g>
     <g id="text_4">
      <!-- 3 -->
      <g transform="translate(705.978804 399.078438)scale(0.1 -0.1)">
       <defs>
        <path d="M 2597 2516 
Q 3050 2419 3304 2112 
Q 3559 1806 3559 1356 
Q 3559 666 3084 287 
Q 2609 -91 1734 -91 
Q 1441 -91 1130 -33 
Q 819 25 488 141 
L 488 750 
Q 750 597 1062 519 
Q 1375 441 1716 441 
Q 2309 441 2620 675 
Q 2931 909 2931 1356 
Q 2931 1769 2642 2001 
Q 2353 2234 1838 2234 
L 1294 2234 
L 1294 2753 
L 1863 2753 
Q 2328 2753 2575 2939 
Q 2822 3125 2822 3475 
Q 2822 3834 2567 4026 
Q 2313 4219 1838 4219 
Q 1578 4219 1281 4162 
Q 984 4106 628 3988 
L 628 4550 
Q 988 4650 1302 4700 
Q 1616 4750 1894 4750 
Q 2613 4750 3031 4423 
Q 3450 4097 3450 3541 
Q 3450 3153 3228 2886 
Q 3006 2619 2597 2516 
z
" id="DejaVuSans-33" transform="scale(0.015625)"/>
       </defs>
       <use xlink:href="#DejaVuSans-33"/>
      </g>
     </g>
    </g>
    <g id="xtick_5">
     <g id="line2d_5">
      <g>
       <use style="stroke:#000000;stroke-width:0.8;" x="884.019465" xlink:href="#me32ea94481" y="384.48"/>
      </g>
     </g>
     <g id="text_5">
      <!-- 4 -->
      <g transform="translate(880.838215 399.078438)scale(0.1 -0.1)">
       <defs>
        <path d="M 2419 4116 
L 825 1625 
L 2419 1625 
L 2419 4116 
z
M 2253 4666 
L 3047 4666 
L 3047 1625 
L 3713 1625 
L 3713 1100 
L 3047 1100 
L 3047 0 
L 2419 0 
L 2419 1100 
L 313 1100 
L 313 1709 
L 2253 4666 
z
" id="DejaVuSans-34" transform="scale(0.015625)"/>
       </defs>
       <use xlink:href="#DejaVuSans-34"/>
      </g>
     </g>
    </g>
    <g id="text_6">
     <!-- Position -->
     <g transform="translate(570.935938 412.756563)scale(0.1 -0.1)">
      <defs>
       <path d="M 1259 4147 
L 1259 2394 
L 2053 2394 
Q 2494 2394 2734 2622 
Q 2975 2850 2975 3272 
Q 2975 3691 2734 3919 
Q 2494 4147 2053 4147 
L 1259 4147 
z
M 628 4666 
L 2053 4666 
Q 2838 4666 3239 4311 
Q 3641 3956 3641 3272 
Q 3641 2581 3239 2228 
Q 2838 1875 2053 1875 
L 1259 1875 
L 1259 0 
L 628 0 
L 628 4666 
z
" id="DejaVuSans-50" transform="scale(0.015625)"/>
       <path d="M 1959 3097 
Q 1497 3097 1228 2736 
Q 959 2375 959 1747 
Q 959 1119 1226 758 
Q 1494 397 1959 397 
Q 2419 397 2687 759 
Q 2956 1122 2956 1747 
Q 2956 2369 2687 2733 
Q 2419 3097 1959 3097 
z
M 1959 3584 
Q 2709 3584 3137 3096 
Q 3566 2609 3566 1747 
Q 3566 888 3137 398 
Q 2709 -91 1959 -91 
Q 1206 -91 779 398 
Q 353 888 353 1747 
Q 353 2609 779 3096 
Q 1206 3584 1959 3584 
z
" id="DejaVuSans-6f" transform="scale(0.015625)"/>
       <path d="M 2834 3397 
L 2834 2853 
Q 2591 2978 2328 3040 
Q 2066 3103 1784 3103 
Q 1356 3103 1142 2972 
Q 928 2841 928 2578 
Q 928 2378 1081 2264 
Q 1234 2150 1697 2047 
L 1894 2003 
Q 2506 1872 2764 1633 
Q 3022 1394 3022 966 
Q 3022 478 2636 193 
Q 2250 -91 1575 -91 
Q 1294 -91 989 -36 
Q 684 19 347 128 
L 347 722 
Q 666 556 975 473 
Q 1284 391 1588 391 
Q 1994 391 2212 530 
Q 2431 669 2431 922 
Q 2431 1156 2273 1281 
Q 2116 1406 1581 1522 
L 1381 1569 
Q 847 1681 609 1914 
Q 372 2147 372 2553 
Q 372 3047 722 3315 
Q 1072 3584 1716 3584 
Q 2034 3584 2315 3537 
Q 2597 3491 2834 3397 
z
" id="DejaVuSans-73" transform="scale(0.015625)"/>
       <path d="M 603 3500 
L 1178 3500 
L 1178 0 
L 603 0 
L 603 3500 
z
M 603 4863 
L 1178 4863 
L 1178 4134 
L 603 4134 
L 603 4863 
z
" id="DejaVuSans-69" transform="scale(0.015625)"/>
       <path d="M 1172 4494 
L 1172 3500 
L 2356 3500 
L 2356 3053 
L 1172 3053 
L 1172 1153 
Q 1172 725 1289 603 
Q 1406 481 1766 481 
L 2356 481 
L 2356 0 
L 1766 0 
Q 1100 0 847 248 
Q 594 497 594 1153 
L 594 3053 
L 172 3053 
L 172 3500 
L 594 3500 
L 594 4494 
L 1172 4494 
z
" id="DejaVuSans-74" transform="scale(0.015625)"/>
       <path d="M 3513 2113 
L 3513 0 
L 2938 0 
L 2938 2094 
Q 2938 2591 2744 2837 
Q 2550 3084 2163 3084 
Q 1697 3084 1428 2787 
Q 1159 2491 1159 1978 
L 1159 0 
L 581 0 
L 581 3500 
L 1159 3500 
L 1159 2956 
Q 1366 3272 1645 3428 
Q 1925 3584 2291 3584 
Q 2894 3584 3203 3211 
Q 3513 2838 3513 2113 
z
" id="DejaVuSans-6e" transform="scale(0.015625)"/>
      </defs>
      <use xlink:href="#DejaVuSans-50"/>
      <use x="56.677734" xlink:href="#DejaVuSans-6f"/>
      <use x="117.859375" xlink:href="#DejaVuSans-73"/>
      <use x="169.958984" xlink:href="#DejaVuSans-69"/>
      <use x="197.742188" xlink:href="#DejaVuSans-74"/>
      <use x="236.951172" xlink:href="#DejaVuSans-69"/>
      <use x="264.734375" xlink:href="#DejaVuSans-6f"/>
      <use x="325.916016" xlink:href="#DejaVuSans-6e"/>
     </g>
    </g>
    <g id="text_7">
     <!-- 1e6 -->
     <g transform="translate(1017.921875 411.756563)scale(0.1 -0.1)">
      <defs>
       <path d="M 3597 1894 
L 3597 1613 
L 953 1613 
Q 991 1019 1311 708 
Q 1631 397 2203 397 
Q 2534 397 2845 478 
Q 3156 559 3463 722 
L 3463 178 
Q 3153 47 2828 -22 
Q 2503 -91 2169 -91 
Q 1331 -91 842 396 
Q 353 884 353 1716 
Q 353 2575 817 3079 
Q 1281 3584 2069 3584 
Q 2775 3584 3186 3129 
Q 3597 2675 3597 1894 
z
M 3022 2063 
Q 3016 2534 2758 2815 
Q 2500 3097 2075 3097 
Q 1594 3097 1305 2825 
Q 1016 2553 972 2059 
L 3022 2063 
z
" id="DejaVuSans-65" transform="scale(0.015625)"/>
       <path d="M 2113 2584 
Q 1688 2584 1439 2293 
Q 1191 2003 1191 1497 
Q 1191 994 1439 701 
Q 1688 409 2113 409 
Q 2538 409 2786 701 
Q 3034 994 3034 1497 
Q 3034 2003 2786 2293 
Q 2538 2584 2113 2584 
z
M 3366 4563 
L 3366 3988 
Q 3128 4100 2886 4159 
Q 2644 4219 2406 4219 
Q 1781 4219 1451 3797 
Q 1122 3375 1075 2522 
Q 1259 2794 1537 2939 
Q 1816 3084 2150 3084 
Q 2853 3084 3261 2657 
Q 3669 2231 3669 1497 
Q 3669 778 3244 343 
Q 2819 -91 2113 -91 
Q 1303 -91 875 529 
Q 447 1150 447 2328 
Q 447 3434 972 4092 
Q 1497 4750 2381 4750 
Q 2619 4750 2861 4703 
Q 3103 4656 3366 4563 
z
" id="DejaVuSans-36" transform="scale(0.015625)"/>
      </defs>
      <use xlink:href="#DejaVuSans-31"/>
      <use x="63.623047" xlink:href="#DejaVuSans-65"/>
      <use x="125.146484" xlink:href="#DejaVuSans-36"/>
     </g>
    </g>
   </g>
   <g id="matplotlib.axis_2">
    <g id="ytick_1">
     <g id="line2d_6">
      <defs>
       <path d="M 0 0 
L -3.5 0 
" id="m6109287df1" style="stroke:#000000;stroke-width:0.8;"/>
      </defs>
      <g>
       <use style="stroke:#000000;stroke-width:0.8;" x="144" xlink:href="#m6109287df1" y="369.36"/>
      </g>
     </g>
     <g id="text_8">
      <!-- 0.0 -->
      <g transform="translate(121.096875 373.159219)scale(0.1 -0.1)">
       <defs>
        <path d="M 684 794 
L 1344 794 
L 1344 0 
L 684 0 
L 684 794 
z
" id="DejaVuSans-2e" transform="scale(0.015625)"/>
       </defs>
       <use xlink:href="#DejaVuSans-30"/>
       <use x="63.623047" xlink:href="#DejaVuSans-2e"/>
       <use x="95.410156" xlink:href="#DejaVuSans-30"/>
      </g>
     </g>
    </g>
    <g id="ytick_2">
     <g id="line2d_7">
      <g>
       <use style="stroke:#000000;stroke-width:0.8;" x="144" xlink:href="#m6109287df1" y="308.88006"/>
      </g>
     </g>
     <g id="text_9">
      <!-- 0.2 -->
      <g transform="translate(121.096875 312.679279)scale(0.1 -0.1)">
       <use xlink:href="#DejaVuSans-30"/>
       <use x="63.623047" xlink:href="#DejaVuSans-2e"/>
       <use x="95.410156" xlink:href="#DejaVuSans-32"/>
      </g>
     </g>
    </g>
    <g id="ytick_3">
     <g id="line2d_8">
      <g>
       <use style="stroke:#000000;stroke-width:0.8;" x="144" xlink:href="#m6109287df1" y="248.400121"/>
      </g>
     </g>
     <g id="text_10">
      <!-- 0.4 -->
      <g transform="translate(121.096875 252.19934)scale(0.1 -0.1)">
       <use xlink:href="#DejaVuSans-30"/>
       <use x="63.623047" xlink:href="#DejaVuSans-2e"/>
       <use x="95.410156" xlink:href="#DejaVuSans-34"/>
      </g>
     </g>
    </g>
    <g id="ytick_4">
     <g id="line2d_9">
      <g>
       <use style="stroke:#000000;stroke-width:0.8;" x="144" xlink:href="#m6109287df1" y="187.920181"/>
      </g>
     </g>
     <g id="text_11">
      <!-- 0.6 -->
      <g transform="translate(121.096875 191.7194)scale(0.1 -0.1)">
       <use xlink:href="#DejaVuSans-30"/>
       <use x="63.623047" xlink:href="#DejaVuSans-2e"/>
       <use x="95.410156" xlink:href="#DejaVuSans-36"/>
      </g>
     </g>
    </g>
    <g id="ytick_5">
     <g id="line2d_10">
      <g>
       <use style="stroke:#000000;stroke-width:0.8;" x="144" xlink:href="#m6109287df1" y="127.440242"/>
      </g>
     </g>
     <g id="text_12">
      <!-- 0.8 -->
      <g transform="translate(121.096875 131.239461)scale(0.1 -0.1)">
       <defs>
        <path d="M 2034 2216 
Q 1584 2216 1326 1975 
Q 1069 1734 1069 1313 
Q 1069 891 1326 650 
Q 1584 409 2034 409 
Q 2484 409 2743 651 
Q 3003 894 3003 1313 
Q 3003 1734 2745 1975 
Q 2488 2216 2034 2216 
z
M 1403 2484 
Q 997 2584 770 2862 
Q 544 3141 544 3541 
Q 544 4100 942 4425 
Q 1341 4750 2034 4750 
Q 2731 4750 3128 4425 
Q 3525 4100 3525 3541 
Q 3525 3141 3298 2862 
Q 3072 2584 2669 2484 
Q 3125 2378 3379 2068 
Q 3634 1759 3634 1313 
Q 3634 634 3220 271 
Q 2806 -91 2034 -91 
Q 1263 -91 848 271 
Q 434 634 434 1313 
Q 434 1759 690 2068 
Q 947 2378 1403 2484 
z
M 1172 3481 
Q 1172 3119 1398 2916 
Q 1625 2713 2034 2713 
Q 2441 2713 2670 2916 
Q 2900 3119 2900 3481 
Q 2900 3844 2670 4047 
Q 2441 4250 2034 4250 
Q 1625 4250 1398 4047 
Q 1172 3844 1172 3481 
z
" id="DejaVuSans-38" transform="scale(0.015625)"/>
       </defs>
       <use xlink:href="#DejaVuSans-30"/>
       <use x="63.623047" xlink:href="#DejaVuSans-2e"/>
       <use x="95.410156" xlink:href="#DejaVuSans-38"/>
      </g>
     </g>
    </g>
    <g id="ytick_6">
     <g id="line2d_11">
      <g>
       <use style="stroke:#000000;stroke-width:0.8;" x="144" xlink:href="#m6109287df1" y="66.960302"/>
      </g>
     </g>
     <g id="text_13">
      <!-- 1.0 -->
      <g transform="translate(121.096875 70.759521)scale(0.1 -0.1)">
       <use xlink:href="#DejaVuSans-31"/>
       <use x="63.623047" xlink:href="#DejaVuSans-2e"/>
       <use x="95.410156" xlink:href="#DejaVuSans-30"/>
      </g>
     </g>
    </g>
    <g id="text_14">
     <!-- Depth of coverage -->
     <g transform="translate(115.017187 264.602187)rotate(-90)scale(0.1 -0.1)">
      <defs>
       <path d="M 1259 4147 
L 1259 519 
L 2022 519 
Q 2988 519 3436 956 
Q 3884 1394 3884 2338 
Q 3884 3275 3436 3711 
Q 2988 4147 2022 4147 
L 1259 4147 
z
M 628 4666 
L 1925 4666 
Q 3281 4666 3915 4102 
Q 4550 3538 4550 2338 
Q 4550 1131 3912 565 
Q 3275 0 1925 0 
L 628 0 
L 628 4666 
z
" id="DejaVuSans-44" transform="scale(0.015625)"/>
       <path d="M 1159 525 
L 1159 -1331 
L 581 -1331 
L 581 3500 
L 1159 3500 
L 1159 2969 
Q 1341 3281 1617 3432 
Q 1894 3584 2278 3584 
Q 2916 3584 3314 3078 
Q 3713 2572 3713 1747 
Q 3713 922 3314 415 
Q 2916 -91 2278 -91 
Q 1894 -91 1617 61 
Q 1341 213 1159 525 
z
M 3116 1747 
Q 3116 2381 2855 2742 
Q 2594 3103 2138 3103 
Q 1681 3103 1420 2742 
Q 1159 2381 1159 1747 
Q 1159 1113 1420 752 
Q 1681 391 2138 391 
Q 2594 391 2855 752 
Q 3116 1113 3116 1747 
z
" id="DejaVuSans-70" transform="scale(0.015625)"/>
       <path d="M 3513 2113 
L 3513 0 
L 2938 0 
L 2938 2094 
Q 2938 2591 2744 2837 
Q 2550 3084 2163 3084 
Q 1697 3084 1428 2787 
Q 1159 2491 1159 1978 
L 1159 0 
L 581 0 
L 581 4863 
L 1159 4863 
L 1159 2956 
Q 1366 3272 1645 3428 
Q 1925 3584 2291 3584 
Q 2894 3584 3203 3211 
Q 3513 2838 3513 2113 
z
" id="DejaVuSans-68" transform="scale(0.015625)"/>
       <path id="DejaVuSans-20" transform="scale(0.015625)"/>
       <path d="M 2375 4863 
L 2375 4384 
L 1825 4384 
Q 1516 4384 1395 4259 
Q 1275 4134 1275 3809 
L 1275 3500 
L 2222 3500 
L 2222 3053 
L 1275 3053 
L 1275 0 
L 697 0 
L 697 3053 
L 147 3053 
L 147 3500 
L 697 3500 
L 697 3744 
Q 697 4328 969 4595 
Q 1241 4863 1831 4863 
L 2375 4863 
z
" id="DejaVuSans-66" transform="scale(0.015625)"/>
       <path d="M 3122 3366 
L 3122 2828 
Q 2878 2963 2633 3030 
Q 2388 3097 2138 3097 
Q 1578 3097 1268 2742 
Q 959 2388 959 1747 
Q 959 1106 1268 751 
Q 1578 397 2138 397 
Q 2388 397 2633 464 
Q 2878 531 3122 666 
L 3122 134 
Q 2881 22 2623 -34 
Q 2366 -91 2075 -91 
Q 1284 -91 818 406 
Q 353 903 353 1747 
Q 353 2603 823 3093 
Q 1294 3584 2113 3584 
Q 2378 3584 2631 3529 
Q 2884 3475 3122 3366 
z
" id="DejaVuSans-63" transform="scale(0.015625)"/>
       <path d="M 191 3500 
L 800 3500 
L 1894 563 
L 2988 3500 
L 3597 3500 
L 2284 0 
L 1503 0 
L 191 3500 
z
" id="DejaVuSans-76" transform="scale(0.015625)"/>
       <path d="M 2631 2963 
Q 2534 3019 2420 3045 
Q 2306 3072 2169 3072 
Q 1681 3072 1420 2755 
Q 1159 2438 1159 1844 
L 1159 0 
L 581 0 
L 581 3500 
L 1159 3500 
L 1159 2956 
Q 1341 3275 1631 3429 
Q 1922 3584 2338 3584 
Q 2397 3584 2469 3576 
Q 2541 3569 2628 3553 
L 2631 2963 
z
" id="DejaVuSans-72" transform="scale(0.015625)"/>
       <path d="M 2194 1759 
Q 1497 1759 1228 1600 
Q 959 1441 959 1056 
Q 959 750 1161 570 
Q 1363 391 1709 391 
Q 2188 391 2477 730 
Q 2766 1069 2766 1631 
L 2766 1759 
L 2194 1759 
z
M 3341 1997 
L 3341 0 
L 2766 0 
L 2766 531 
Q 2569 213 2275 61 
Q 1981 -91 1556 -91 
Q 1019 -91 701 211 
Q 384 513 384 1019 
Q 384 1609 779 1909 
Q 1175 2209 1959 2209 
L 2766 2209 
L 2766 2266 
Q 2766 2663 2505 2880 
Q 2244 3097 1772 3097 
Q 1472 3097 1187 3025 
Q 903 2953 641 2809 
L 641 3341 
Q 956 3463 1253 3523 
Q 1550 3584 1831 3584 
Q 2591 3584 2966 3190 
Q 3341 2797 3341 1997 
z
" id="DejaVuSans-61" transform="scale(0.015625)"/>
       <path d="M 2906 1791 
Q 2906 2416 2648 2759 
Q 2391 3103 1925 3103 
Q 1463 3103 1205 2759 
Q 947 2416 947 1791 
Q 947 1169 1205 825 
Q 1463 481 1925 481 
Q 2391 481 2648 825 
Q 2906 1169 2906 1791 
z
M 3481 434 
Q 3481 -459 3084 -895 
Q 2688 -1331 1869 -1331 
Q 1566 -1331 1297 -1286 
Q 1028 -1241 775 -1147 
L 775 -588 
Q 1028 -725 1275 -790 
Q 1522 -856 1778 -856 
Q 2344 -856 2625 -561 
Q 2906 -266 2906 331 
L 2906 616 
Q 2728 306 2450 153 
Q 2172 0 1784 0 
Q 1141 0 747 490 
Q 353 981 353 1791 
Q 353 2603 747 3093 
Q 1141 3584 1784 3584 
Q 2172 3584 2450 3431 
Q 2728 3278 2906 2969 
L 2906 3500 
L 3481 3500 
L 3481 434 
z
" id="DejaVuSans-67" transform="scale(0.015625)"/>
      </defs>
      <use xlink:href="#DejaVuSans-44"/>
      <use x="77.001953" xlink:href="#DejaVuSans-65"/>
      <use x="138.525391" xlink:href="#DejaVuSans-70"/>
      <use x="202.001953" xlink:href="#DejaVuSans-74"/>
      <use x="241.210938" xlink:href="#DejaVuSans-68"/>
      <use x="304.589844" xlink:href="#DejaVuSans-20"/>
      <use x="336.376953" xlink:href="#DejaVuSans-6f"/>
      <use x="397.558594" xlink:href="#DejaVuSans-66"/>
      <use x="432.763672" xlink:href="#DejaVuSans-20"/>
      <use x="464.550781" xlink:href="#DejaVuSans-63"/>
      <use x="519.53125" xlink:href="#DejaVuSans-6f"/>
      <use x="580.712891" xlink:href="#DejaVuSans-76"/>
      <use x="639.892578" xlink:href="#DejaVuSans-65"/>
      <use x="701.416016" xlink:href="#DejaVuSans-72"/>
      <use x="742.529297" xlink:href="#DejaVuSans-61"/>
      <use x="803.808594" xlink:href="#DejaVuSans-67"/>
      <use x="867.285156" xlink:href="#DejaVuSans-65"/>
     </g>
    </g>
    <g id="text_15">
     <!-- 1e6 -->
     <g transform="translate(144 48.84)scale(0.1 -0.1)">
      <use xlink:href="#DejaVuSans-31"/>
      <use x="63.623047" xlink:href="#DejaVuSans-65"/>
      <use x="125.146484" xlink:href="#DejaVuSans-36"/>
     </g>
    </g>
   </g>
   <g id="line2d_12">
    <path clip-path="url(#p323271fc3c)" d="M 184.581818 369.348811 
L 184.711039 369.346392 
L 184.711214 369.346694 
L 184.830293 369.340949 
L 184.832916 369.335203 
L 197.580517 369.340042 
L 197.584889 369.0071 
L 197.687531 369.355766 
L 197.691553 369.355162 
L 204.76584 369.244181 
L 204.806233 369.238133 
L 204.86516 369.302544 
L 204.869707 369.30073 
L 204.979693 369.318874 
L 204.87128 369.294984 
L 204.984065 369.315547 
L 205.087407 369.30829 
L 205.054183 369.265651 
L 205.091603 369.289238 
L 205.093002 369.284702 
L 205.138116 369.346392 
L 205.197743 369.34488 
L 205.323117 369.345182 
L 205.324866 369.342763 
L 251.335623 369.231783 
L 251.364824 369.206986 
L 251.435118 369.275026 
L 251.443511 369.257487 
L 251.479357 369.156183 
L 251.567661 369.340344 
L 252.954121 369.277747 
L 252.959192 369.126245 
L 253.033857 369.331877 
L 253.064982 369.327946 
L 253.183887 369.340042 
L 253.317479 369.298613 
L 253.184761 369.341554 
L 253.327971 369.312523 
L 253.433411 369.333994 
L 253.334091 369.302846 
L 253.443378 369.327643 
L 253.44705 369.320386 
L 253.532731 369.345787 
L 253.554064 369.336413 
L 253.651286 369.339739 
L 253.574697 369.347904 
L 253.665624 369.344578 
L 253.793097 369.351533 
L 253.79572 369.347904 
L 253.927564 369.341251 
L 254.033878 369.339134 
L 253.928088 369.340646 
L 254.040348 369.332784 
L 254.147187 369.331272 
L 254.055036 369.340646 
L 254.152608 369.33732 
L 254.275884 369.342763 
L 254.163799 369.348509 
L 254.276933 369.343973 
L 254.393214 369.348206 
L 254.277982 369.343368 
L 254.393564 369.347904 
L 313.133737 369.244181 
L 313.138807 369.08784 
L 313.240576 369.337925 
L 313.244423 369.334296 
L 313.374868 369.31464 
L 313.379239 369.322805 
L 313.413512 369.288634 
L 313.494471 369.322502 
L 313.574033 369.319478 
L 313.527695 369.339134 
L 313.606556 369.334598 
L 333.995688 369.22392 
L 333.996738 369.199426 
L 334.017021 369.345485 
L 334.09256 369.32976 
L 334.208317 369.333994 
L 334.119139 369.32099 
L 334.209017 369.333086 
L 334.309036 369.336715 
L 334.321801 369.342763 
L 353.439006 369.2466 
L 353.473278 369.144389 
L 353.539025 369.282283 
L 353.549867 369.272304 
L 353.679612 369.324317 
L 353.55179 369.268373 
L 353.679962 369.322502 
L 353.831565 369.215755 
L 353.680312 369.322805 
L 353.850275 369.249019 
L 353.853248 369.24781 
L 353.980371 369.337622 
L 354.107668 369.337925 
L 354.108018 369.338832 
L 354.242835 369.35123 
L 354.243184 369.350928 
L 354.314702 369.330365 
L 354.355969 369.337925 
L 408.123314 369.23269 
L 408.161783 369.140155 
L 408.217389 369.339739 
L 408.232427 369.33732 
L 410.090308 369.228154 
L 410.11916 369.192168 
L 410.164798 369.304963 
L 410.195748 369.300427 
L 410.294019 369.340949 
L 410.310456 369.334296 
L 410.315002 369.33732 
L 410.438453 369.334598 
L 410.57257 369.348811 
L 410.574144 369.347299 
L 410.67836 369.330062 
L 410.581838 369.35365 
L 410.693048 369.335808 
L 411.900452 369.226944 
L 411.913567 369.174931 
L 411.994702 369.336715 
L 412.007641 369.327643 
L 412.1206 369.337925 
L 412.045236 369.319781 
L 412.121999 369.335506 
L 412.171659 369.312826 
L 412.236707 369.327038 
L 412.36383 369.346997 
L 412.240029 369.323712 
L 412.372048 369.339134 
L 412.451434 369.335808 
L 412.40667 369.345182 
L 412.483259 369.343368 
L 428.777883 369.234202 
L 428.79397 369.166162 
L 428.876154 369.327341 
L 428.886296 369.32341 
L 428.996632 369.345787 
L 429.003102 369.342461 
L 429.115361 369.334598 
L 429.122531 369.327946 
L 429.164322 369.31343 
L 429.134946 369.332482 
L 429.23479 369.332482 
L 429.292494 369.310709 
L 429.312253 369.265046 
L 429.32222 369.262022 
L 429.323444 369.258696 
L 429.36034 369.318269 
L 429.426262 369.301032 
L 429.54604 369.341554 
L 429.432032 369.298915 
L 429.551636 369.334901 
L 429.575417 369.350021 
L 429.671589 369.349416 
L 432.814337 369.23904 
L 432.881833 369.193378 
L 432.913483 369.284702 
L 432.921351 369.269885 
L 433.069632 369.333389 
L 433.076801 369.317664 
L 433.092014 368.564991 
L 433.156013 369.349718 
L 433.18469 369.350928 
L 433.318807 369.340646 
L 433.448553 369.345787 
L 433.449427 369.345182 
L 433.468137 369.351835 
L 433.567457 369.335808 
L 433.674121 369.316454 
L 433.608724 369.305568 
L 433.67622 369.312523 
L 433.693356 369.301032 
L 433.71941 369.333994 
L 433.785856 369.333086 
L 433.854926 369.333994 
L 433.896717 369.317966 
L 434.001108 369.324619 
L 433.932214 369.335808 
L 434.007578 369.329155 
L 441.320723 369.219082 
L 441.378777 369.185818 
L 441.416197 369.266256 
L 441.427038 369.259603 
L 441.533527 369.343066 
L 441.44942 369.246298 
L 441.554685 369.334901 
L 442.655775 369.224525 
L 442.730615 369.15709 
L 442.762264 369.303451 
L 442.763313 369.298613 
L 495.627335 369.329458 
L 495.630483 368.496346 
L 495.711268 369.35365 
L 495.738371 369.349416 
L 495.859549 369.337925 
L 495.741693 369.346392 
L 495.859724 369.33732 
L 495.921799 369.330365 
L 495.863046 369.33853 
L 495.972858 369.345485 
L 495.977404 369.341856 
L 496.106625 369.354859 
L 510.115312 369.244181 
L 510.120208 369.203962 
L 510.214108 369.337622 
L 510.224075 369.336413 
L 510.35382 369.340042 
L 510.35417 369.339739 
L 510.477621 369.346694 
L 510.360115 369.345182 
L 510.478145 369.347299 
L 510.587432 369.340042 
L 510.597574 369.332482 
L 510.674337 369.333691 
L 510.65318 369.350021 
L 510.707911 369.345485 
L 510.819821 369.346694 
L 510.730118 369.353045 
L 510.822443 369.349114 
L 546.389897 369.238435 
L 546.474529 369.192471 
L 546.400563 369.258394 
L 546.501982 369.248717 
L 546.596056 369.296194 
L 546.509151 369.244483 
L 546.617739 369.282586 
L 567.98416 369.215151 
L 567.989755 368.805701 
L 568.094147 369.348811 
L 568.095021 369.348509 
L 568.230712 369.333691 
L 568.231586 369.334296 
L 618.595643 369.227247 
L 618.62397 369.043992 
L 618.698985 369.312523 
L 618.70493 369.30708 
L 618.713498 369.305266 
L 618.727487 369.334598 
L 618.810196 369.342158 
L 618.921756 369.337925 
L 618.923679 369.335808 
L 619.030693 369.345485 
L 618.960575 369.346694 
L 619.03419 369.348206 
L 619.144876 369.351533 
L 619.149423 369.346997 
L 661.612282 369.236621 
L 661.617703 369.2088 
L 661.655997 369.329458 
L 661.719296 369.24781 
L 661.82701 369.344275 
L 661.724717 369.194587 
L 661.830857 369.341554 
L 661.875096 369.343368 
L 661.904123 369.2466 
L 661.939969 369.205776 
L 661.973717 369.345485 
L 662.014109 369.263534 
L 662.189493 369.34609 
L 662.189668 369.345485 
L 662.318365 369.334901 
L 662.198411 369.353952 
L 662.322386 369.33732 
L 662.428876 369.341554 
L 662.436919 369.334598 
L 662.437619 369.335808 
L 662.549354 369.345485 
L 669.016354 369.292867 
L 669.022474 365.34262 
L 669.048004 369.333994 
L 669.12739 369.298613 
L 669.25154 369.340042 
L 669.254163 369.33732 
L 669.334074 369.33611 
L 669.365374 369.346997 
L 706.767452 369.237226 
L 706.787736 369.060927 
L 706.851909 369.346694 
L 706.872543 369.342461 
L 708.581968 369.232387 
L 708.637399 369.183096 
L 708.680239 369.263232 
L 708.690381 369.261115 
L 708.801242 369.297403 
L 708.703845 369.250229 
L 708.806663 369.290146 
L 708.8224 369.257184 
L 708.895316 369.314338 
L 708.915775 369.310709 
L 709.034155 369.340344 
L 708.924168 369.305568 
L 709.038876 369.336715 
L 709.153234 369.34367 
L 709.042373 369.332784 
L 709.16495 369.333086 
L 709.30099 369.317966 
L 709.166873 369.335506 
L 709.30169 369.318571 
L 709.32652 369.311011 
L 709.418496 369.351533 
L 709.538274 369.33611 
L 709.653507 369.343973 
L 709.548416 369.324922 
L 709.655605 369.342763 
L 709.76769 369.34609 
L 709.695823 369.35244 
L 709.767865 369.346392 
L 709.877502 369.315245 
L 709.877677 369.31464 
L 709.974024 369.298613 
L 709.883272 369.32099 
L 710.002526 369.319478 
L 710.114961 369.33853 
L 710.115835 369.337018 
L 710.141714 369.32099 
L 710.227221 369.339437 
L 710.350496 369.333086 
L 710.351021 369.331574 
L 732.002113 369.22392 
L 732.018026 369.162835 
L 732.091467 369.33611 
L 732.109827 369.328248 
L 732.225759 369.350021 
L 732.113324 369.327341 
L 732.226808 369.348206 
L 732.356029 369.351835 
L 732.356379 369.350626 
L 732.488048 369.342158 
L 732.488922 369.343368 
L 732.959294 369.237528 
L 732.965239 367.920275 
L 733.064559 369.330667 
L 733.07033 369.325829 
L 733.118766 369.301032 
L 733.083794 369.33097 
L 733.182764 369.318874 
L 733.292401 369.34609 
L 733.183988 369.31343 
L 733.303767 369.337925 
L 733.426693 369.346997 
L 733.501708 369.351533 
L 733.434037 369.345787 
L 733.538078 369.343973 
L 733.666425 369.348206 
L 733.541401 369.341251 
L 733.667824 369.346997 
L 733.776237 369.349114 
L 733.675343 369.353045 
L 733.781832 369.35244 
L 733.911928 369.349416 
L 733.924693 369.341856 
L 734.039925 369.348811 
L 741.702614 369.237831 
L 741.817497 369.207893 
L 741.730417 369.270792 
L 741.820819 369.227851 
L 741.935702 369.288029 
L 741.821868 369.226037 
L 741.937975 369.285912 
L 742.036421 369.31464 
L 741.943221 369.296798 
L 742.044289 369.324014 
L 783.703145 369.213336 
L 783.707517 369.178863 
L 783.785329 369.342158 
L 783.810334 369.326736 
L 783.87748 369.332482 
L 783.825547 369.239947 
L 783.886748 369.242367 
L 783.890595 369.193075 
L 783.957916 369.347602 
L 783.997434 369.273816 
L 784.116513 369.346694 
L 784.073323 369.242064 
L 784.117562 369.345787 
L 784.252903 369.278957 
L 784.271438 369.300125 
L 784.364289 369.324922 
L 784.307984 369.28561 
L 784.385447 369.319176 
L 784.491936 369.321898 
L 784.407129 369.332482 
L 784.501903 369.339739 
L 864.106126 369.230271 
L 864.107 369.224525 
L 864.195129 369.335506 
L 864.207719 369.333691 
L 864.215413 369.337018 
L 864.321028 369.340949 
L 864.445353 369.342158 
L 864.321378 369.340646 
L 864.448675 369.340042 
L 864.585415 369.323712 
L 864.585765 369.324922 
L 870.639923 369.262627 
L 870.640622 66.96 
L 870.651813 369.346997 
L 870.750958 369.336715 
L 870.894868 369.301032 
L 870.754106 369.339437 
L 870.897665 369.304358 
L 871.014122 369.336715 
L 870.898889 369.300427 
L 871.01657 369.334296 
L 871.121311 369.347602 
L 871.04175 369.325224 
L 871.133726 369.340042 
L 905.681924 369.241762 
L 905.685246 367.797501 
L 905.757638 369.345485 
L 905.792959 369.338832 
L 905.928126 369.350626 
L 971.22675 369.242064 
L 971.241263 369.212731 
L 971.318376 369.281678 
L 971.335688 369.27805 
L 996.218182 369.349114 
L 996.218182 369.349114 
" style="fill:none;stroke:#1f77b4;stroke-linecap:square;stroke-width:1.5;"/>
   </g>
   <g id="line2d_13">
    <path clip-path="url(#p323271fc3c)" d="M 184.581818 369.355766 
L 996.218182 369.355766 
L 996.218182 369.355766 
" style="fill:none;stroke:#ff7f0e;stroke-dasharray:5.55,2.4;stroke-dashoffset:0;stroke-width:1.5;"/>
   </g>
   <g id="line2d_14">
    <path clip-path="url(#p323271fc3c)" d="M 184.581818 369.337925 
L 996.218182 369.337925 
L 996.218182 369.337925 
" style="fill:none;stroke:#2ca02c;stroke-dasharray:5.55,2.4;stroke-dashoffset:0;stroke-width:1.5;"/>
   </g>
   <g id="line2d_15">
    <path clip-path="url(#p323271fc3c)" d="M 184.581818 369.320083 
L 996.218182 369.320083 
L 996.218182 369.320083 
" style="fill:none;stroke:#d62728;stroke-dasharray:5.55,2.4;stroke-dashoffset:0;stroke-width:1.5;"/>
   </g>
   <g id="patch_3">
    <path d="M 144 384.48 
L 144 51.84 
" style="fill:none;stroke:#000000;stroke-linecap:square;stroke-linejoin:miter;stroke-width:0.8;"/>
   </g>
   <g id="patch_4">
    <path d="M 1036.8 384.48 
L 1036.8 51.84 
" style="fill:none;stroke:#000000;stroke-linecap:square;stroke-linejoin:miter;stroke-width:0.8;"/>
   </g>
   <g id="patch_5">
    <path d="M 144 384.48 
L 1036.8 384.48 
" style="fill:none;stroke:#000000;stroke-linecap:square;stroke-linejoin:miter;stroke-width:0.8;"/>
   </g>
   <g id="patch_6">
    <path d="M 144 51.84 
L 1036.8 51.84 
" style="fill:none;stroke:#000000;stroke-linecap:square;stroke-linejoin:miter;stroke-width:0.8;"/>
   </g>
   <g id="text_16">
    <!-- NC_000913.3 -->
    <g transform="translate(550.092188 45.84)scale(0.12 -0.12)">
     <defs>
      <path d="M 628 4666 
L 1478 4666 
L 3547 763 
L 3547 4666 
L 4159 4666 
L 4159 0 
L 3309 0 
L 1241 3903 
L 1241 0 
L 628 0 
L 628 4666 
z
" id="DejaVuSans-4e" transform="scale(0.015625)"/>
      <path d="M 4122 4306 
L 4122 3641 
Q 3803 3938 3442 4084 
Q 3081 4231 2675 4231 
Q 1875 4231 1450 3742 
Q 1025 3253 1025 2328 
Q 1025 1406 1450 917 
Q 1875 428 2675 428 
Q 3081 428 3442 575 
Q 3803 722 4122 1019 
L 4122 359 
Q 3791 134 3420 21 
Q 3050 -91 2638 -91 
Q 1578 -91 968 557 
Q 359 1206 359 2328 
Q 359 3453 968 4101 
Q 1578 4750 2638 4750 
Q 3056 4750 3426 4639 
Q 3797 4528 4122 4306 
z
" id="DejaVuSans-43" transform="scale(0.015625)"/>
      <path d="M 3263 -1063 
L 3263 -1509 
L -63 -1509 
L -63 -1063 
L 3263 -1063 
z
" id="DejaVuSans-5f" transform="scale(0.015625)"/>
      <path d="M 703 97 
L 703 672 
Q 941 559 1184 500 
Q 1428 441 1663 441 
Q 2288 441 2617 861 
Q 2947 1281 2994 2138 
Q 2813 1869 2534 1725 
Q 2256 1581 1919 1581 
Q 1219 1581 811 2004 
Q 403 2428 403 3163 
Q 403 3881 828 4315 
Q 1253 4750 1959 4750 
Q 2769 4750 3195 4129 
Q 3622 3509 3622 2328 
Q 3622 1225 3098 567 
Q 2575 -91 1691 -91 
Q 1453 -91 1209 -44 
Q 966 3 703 97 
z
M 1959 2075 
Q 2384 2075 2632 2365 
Q 2881 2656 2881 3163 
Q 2881 3666 2632 3958 
Q 2384 4250 1959 4250 
Q 1534 4250 1286 3958 
Q 1038 3666 1038 3163 
Q 1038 2656 1286 2365 
Q 1534 2075 1959 2075 
z
" id="DejaVuSans-39" transform="scale(0.015625)"/>
     </defs>
     <use xlink:href="#DejaVuSans-4e"/>
     <use x="74.804688" xlink:href="#DejaVuSans-43"/>
     <use x="144.628906" xlink:href="#DejaVuSans-5f"/>
     <use x="194.628906" xlink:href="#DejaVuSans-30"/>
     <use x="258.251953" xlink:href="#DejaVuSans-30"/>
     <use x="321.875" xlink:href="#DejaVuSans-30"/>
     <use x="385.498047" xlink:href="#DejaVuSans-39"/>
     <use x="449.121094" xlink:href="#DejaVuSans-31"/>
     <use x="512.744141" xlink:href="#DejaVuSans-33"/>
     <use x="576.367188" xlink:href="#DejaVuSans-2e"/>
     <use x="608.154297" xlink:href="#DejaVuSans-33"/>
    </g>
   </g>
   <g id="legend_1">
    <g id="patch_7">
     <path d="M 146 28.936045 
L 1034.8 28.936045 
Q 1036.8 28.936045 1036.8 26.936045 
L 1036.8 13.25792 
Q 1036.8 11.25792 1034.8 11.25792 
L 146 11.25792 
Q 144 11.25792 144 13.25792 
L 144 26.936045 
Q 144 28.936045 146 28.936045 
z
" style="fill:#ffffff;opacity:0.8;stroke:#cccccc;stroke-linejoin:miter;"/>
    </g>
    <g id="line2d_16">
     <path d="M 148 19.356358 
L 168 19.356358 
" style="fill:none;stroke:#ff7f0e;stroke-dasharray:5.55,2.4;stroke-dashoffset:0;stroke-width:1.5;"/>
    </g>
    <g id="line2d_17"/>
    <g id="text_17">
     <!-- Average depth * 0.2 -->
     <g transform="translate(176 22.856358)scale(0.1 -0.1)">
      <defs>
       <path d="M 2188 4044 
L 1331 1722 
L 3047 1722 
L 2188 4044 
z
M 1831 4666 
L 2547 4666 
L 4325 0 
L 3669 0 
L 3244 1197 
L 1141 1197 
L 716 0 
L 50 0 
L 1831 4666 
z
" id="DejaVuSans-41" transform="scale(0.015625)"/>
       <path d="M 2906 2969 
L 2906 4863 
L 3481 4863 
L 3481 0 
L 2906 0 
L 2906 525 
Q 2725 213 2448 61 
Q 2172 -91 1784 -91 
Q 1150 -91 751 415 
Q 353 922 353 1747 
Q 353 2572 751 3078 
Q 1150 3584 1784 3584 
Q 2172 3584 2448 3432 
Q 2725 3281 2906 2969 
z
M 947 1747 
Q 947 1113 1208 752 
Q 1469 391 1925 391 
Q 2381 391 2643 752 
Q 2906 1113 2906 1747 
Q 2906 2381 2643 2742 
Q 2381 3103 1925 3103 
Q 1469 3103 1208 2742 
Q 947 2381 947 1747 
z
" id="DejaVuSans-64" transform="scale(0.015625)"/>
       <path d="M 3009 3897 
L 1888 3291 
L 3009 2681 
L 2828 2375 
L 1778 3009 
L 1778 1831 
L 1422 1831 
L 1422 3009 
L 372 2375 
L 191 2681 
L 1313 3291 
L 191 3897 
L 372 4206 
L 1422 3572 
L 1422 4750 
L 1778 4750 
L 1778 3572 
L 2828 4206 
L 3009 3897 
z
" id="DejaVuSans-2a" transform="scale(0.015625)"/>
      </defs>
      <use xlink:href="#DejaVuSans-41"/>
      <use x="62.533203" xlink:href="#DejaVuSans-76"/>
      <use x="121.712891" xlink:href="#DejaVuSans-65"/>
      <use x="183.236328" xlink:href="#DejaVuSans-72"/>
      <use x="224.349609" xlink:href="#DejaVuSans-61"/>
      <use x="285.628906" xlink:href="#DejaVuSans-67"/>
      <use x="349.105469" xlink:href="#DejaVuSans-65"/>
      <use x="410.628906" xlink:href="#DejaVuSans-20"/>
      <use x="442.416016" xlink:href="#DejaVuSans-64"/>
      <use x="505.892578" xlink:href="#DejaVuSans-65"/>
      <use x="567.416016" xlink:href="#DejaVuSans-70"/>
      <use x="630.892578" xlink:href="#DejaVuSans-74"/>
      <use x="670.101562" xlink:href="#DejaVuSans-68"/>
      <use x="733.480469" xlink:href="#DejaVuSans-20"/>
      <use x="765.267578" xlink:href="#DejaVuSans-2a"/>
      <use x="815.267578" xlink:href="#DejaVuSans-20"/>
      <use x="847.054688" xlink:href="#DejaVuSans-30"/>
      <use x="910.677734" xlink:href="#DejaVuSans-2e"/>
      <use x="942.464844" xlink:href="#DejaVuSans-32"/>
     </g>
    </g>
    <g id="line2d_18">
     <path d="M 539.724219 19.356358 
L 559.724219 19.356358 
" style="fill:none;stroke:#2ca02c;stroke-dasharray:5.55,2.4;stroke-dashoffset:0;stroke-width:1.5;"/>
    </g>
    <g id="line2d_19"/>
    <g id="text_18">
     <!-- Average depth -->
     <g transform="translate(567.724219 22.856358)scale(0.1 -0.1)">
      <use xlink:href="#DejaVuSans-41"/>
      <use x="62.533203" xlink:href="#DejaVuSans-76"/>
      <use x="121.712891" xlink:href="#DejaVuSans-65"/>
      <use x="183.236328" xlink:href="#DejaVuSans-72"/>
      <use x="224.349609" xlink:href="#DejaVuSans-61"/>
      <use x="285.628906" xlink:href="#DejaVuSans-67"/>
      <use x="349.105469" xlink:href="#DejaVuSans-65"/>
      <use x="410.628906" xlink:href="#DejaVuSans-20"/>
      <use x="442.416016" xlink:href="#DejaVuSans-64"/>
      <use x="505.892578" xlink:href="#DejaVuSans-65"/>
      <use x="567.416016" xlink:href="#DejaVuSans-70"/>
      <use x="630.892578" xlink:href="#DejaVuSans-74"/>
      <use x="670.101562" xlink:href="#DejaVuSans-68"/>
     </g>
    </g>
    <g id="line2d_20">
     <path d="M 904.189062 19.356358 
L 924.189062 19.356358 
" style="fill:none;stroke:#d62728;stroke-dasharray:5.55,2.4;stroke-dashoffset:0;stroke-width:1.5;"/>
    </g>
    <g id="line2d_21"/>
    <g id="text_19">
     <!-- Average depth * 1.8 -->
     <g transform="translate(932.189062 22.856358)scale(0.1 -0.1)">
      <use xlink:href="#DejaVuSans-41"/>
      <use x="62.533203" xlink:href="#DejaVuSans-76"/>
      <use x="121.712891" xlink:href="#DejaVuSans-65"/>
      <use x="183.236328" xlink:href="#DejaVuSans-72"/>
      <use x="224.349609" xlink:href="#DejaVuSans-61"/>
      <use x="285.628906" xlink:href="#DejaVuSans-67"/>
      <use x="349.105469" xlink:href="#DejaVuSans-65"/>
      <use x="410.628906" xlink:href="#DejaVuSans-20"/>
      <use x="442.416016" xlink:href="#DejaVuSans-64"/>
      <use x="505.892578" xlink:href="#DejaVuSans-65"/>
      <use x="567.416016" xlink:href="#DejaVuSans-70"/>
      <use x="630.892578" xlink:href="#DejaVuSans-74"/>
      <use x="670.101562" xlink:href="#DejaVuSans-68"/>
      <use x="733.480469" xlink:href="#DejaVuSans-20"/>
      <use x="765.267578" xlink:href="#DejaVuSans-2a"/>
      <use x="815.267578" xlink:href="#DejaVuSans-20"/>
      <use x="847.054688" xlink:href="#DejaVuSans-31"/>
      <use x="910.677734" xlink:href="#DejaVuSans-2e"/>
      <use x="942.464844" xlink:href="#DejaVuSans-38"/>
     </g>
    </g>
   </g>
  </g>
 </g>
 <defs>
  <clipPath id="p323271fc3c">
   <rect height="332.64" width="892.8" x="144" y="51.84"/>
  </clipPath>
 </defs>
</svg>
