<?xml version="1.0" encoding="utf-8" standalone="no"?>
<!DOCTYPE svg PUBLIC "-//W3C//DTD SVG 1.1//EN"
  "http://www.w3.org/Graphics/SVG/1.1/DTD/svg11.dtd">
<svg height="432pt" version="1.1" viewBox="0 0 1152 432" width="1152pt" xmlns="http://www.w3.org/2000/svg" xmlns:xlink="http://www.w3.org/1999/xlink">
 <metadata>
  <rdf:RDF xmlns:cc="http://creativecommons.org/ns#" xmlns:dc="http://purl.org/dc/elements/1.1/" xmlns:rdf="http://www.w3.org/1999/02/22-rdf-syntax-ns#">
   <cc:Work>
    <dc:type rdf:resource="http://purl.org/dc/dcmitype/StillImage"/>
    <dc:date>2021-12-28T10:06:31.489745</dc:date>
    <dc:format>image/svg+xml</dc:format>
    <dc:creator>
     <cc:Agent>
      <dc:title>Matplotlib v3.4.3, https://matplotlib.org/</dc:title>
     </cc:Agent>
    </dc:creator>
   </cc:Work>
  </rdf:RDF>
 </metadata>
 <defs>
  <style type="text/css">*{stroke-linecap:butt;stroke-linejoin:round;}</style>
 </defs>
 <g id="figure_1">
  <g id="patch_1">
   <path d="M 0 432 
L 1152 432 
L 1152 0 
L 0 0 
z
" style="fill:#ffffff;"/>
  </g>
  <g id="axes_1">
   <g id="patch_2">
    <path d="M 144 384.48 
L 1036.8 384.48 
L 1036.8 51.84 
L 144 51.84 
z
" style="fill:#ffffff;"/>
   </g>
   <g id="matplotlib.axis_1">
    <g id="xtick_1">
     <g id="line2d_1">
      <defs>
       <path d="M 0 0 
L 0 3.5 
" id="m49dcecf08e" style="stroke:#000000;stroke-width:0.8;"/>
      </defs>
      <g>
       <use style="stroke:#000000;stroke-width:0.8;" x="184.581818" xlink:href="#m49dcecf08e" y="384.48"/>
      </g>
     </g>
     <g id="text_1">
      <!-- 0 -->
      <g transform="translate(181.400568 399.078438)scale(0.1 -0.1)">
       <defs>
        <path d="M 2034 4250 
Q 1547 4250 1301 3770 
Q 1056 3291 1056 2328 
Q 1056 1369 1301 889 
Q 1547 409 2034 409 
Q 2525 409 2770 889 
Q 3016 1369 3016 2328 
Q 3016 3291 2770 3770 
Q 2525 4250 2034 4250 
z
M 2034 4750 
Q 2819 4750 3233 4129 
Q 3647 3509 3647 2328 
Q 3647 1150 3233 529 
Q 2819 -91 2034 -91 
Q 1250 -91 836 529 
Q 422 1150 422 2328 
Q 422 3509 836 4129 
Q 1250 4750 2034 4750 
z
" id="DejaVuSans-30" transform="scale(0.015625)"/>
       </defs>
       <use xlink:href="#DejaVuSans-30"/>
      </g>
     </g>
    </g>
    <g id="xtick_2">
     <g id="line2d_2">
      <g>
       <use style="stroke:#000000;stroke-width:0.8;" x="377.113226" xlink:href="#m49dcecf08e" y="384.48"/>
      </g>
     </g>
     <g id="text_2">
      <!-- 1 -->
      <g transform="translate(373.931976 399.078438)scale(0.1 -0.1)">
       <defs>
        <path d="M 794 531 
L 1825 531 
L 1825 4091 
L 703 3866 
L 703 4441 
L 1819 4666 
L 2450 4666 
L 2450 531 
L 3481 531 
L 3481 0 
L 794 0 
L 794 531 
z
" id="DejaVuSans-31" transform="scale(0.015625)"/>
       </defs>
       <use xlink:href="#DejaVuSans-31"/>
      </g>
     </g>
    </g>
    <g id="xtick_3">
     <g id="line2d_3">
      <g>
       <use style="stroke:#000000;stroke-width:0.8;" x="569.644633" xlink:href="#m49dcecf08e" y="384.48"/>
      </g>
     </g>
     <g id="text_3">
      <!-- 2 -->
      <g transform="translate(566.463383 399.078438)scale(0.1 -0.1)">
       <defs>
        <path d="M 1228 531 
L 3431 531 
L 3431 0 
L 469 0 
L 469 531 
Q 828 903 1448 1529 
Q 2069 2156 2228 2338 
Q 2531 2678 2651 2914 
Q 2772 3150 2772 3378 
Q 2772 3750 2511 3984 
Q 2250 4219 1831 4219 
Q 1534 4219 1204 4116 
Q 875 4013 500 3803 
L 500 4441 
Q 881 4594 1212 4672 
Q 1544 4750 1819 4750 
Q 2544 4750 2975 4387 
Q 3406 4025 3406 3419 
Q 3406 3131 3298 2873 
Q 3191 2616 2906 2266 
Q 2828 2175 2409 1742 
Q 1991 1309 1228 531 
z
" id="DejaVuSans-32" transform="scale(0.015625)"/>
       </defs>
       <use xlink:href="#DejaVuSans-32"/>
      </g>
     </g>
    </g>
    <g id="xtick_4">
     <g id="line2d_4">
      <g>
       <use style="stroke:#000000;stroke-width:0.8;" x="762.17604" xlink:href="#m49dcecf08e" y="384.48"/>
      </g>
     </g>
     <g id="text_4">
      <!-- 3 -->
      <g transform="translate(758.99479 399.078438)scale(0.1 -0.1)">
       <defs>
        <path d="M 2597 2516 
Q 3050 2419 3304 2112 
Q 3559 1806 3559 1356 
Q 3559 666 3084 287 
Q 2609 -91 1734 -91 
Q 1441 -91 1130 -33 
Q 819 25 488 141 
L 488 750 
Q 750 597 1062 519 
Q 1375 441 1716 441 
Q 2309 441 2620 675 
Q 2931 909 2931 1356 
Q 2931 1769 2642 2001 
Q 2353 2234 1838 2234 
L 1294 2234 
L 1294 2753 
L 1863 2753 
Q 2328 2753 2575 2939 
Q 2822 3125 2822 3475 
Q 2822 3834 2567 4026 
Q 2313 4219 1838 4219 
Q 1578 4219 1281 4162 
Q 984 4106 628 3988 
L 628 4550 
Q 988 4650 1302 4700 
Q 1616 4750 1894 4750 
Q 2613 4750 3031 4423 
Q 3450 4097 3450 3541 
Q 3450 3153 3228 2886 
Q 3006 2619 2597 2516 
z
" id="DejaVuSans-33" transform="scale(0.015625)"/>
       </defs>
       <use xlink:href="#DejaVuSans-33"/>
      </g>
     </g>
    </g>
    <g id="xtick_5">
     <g id="line2d_5">
      <g>
       <use style="stroke:#000000;stroke-width:0.8;" x="954.707448" xlink:href="#m49dcecf08e" y="384.48"/>
      </g>
     </g>
     <g id="text_5">
      <!-- 4 -->
      <g transform="translate(951.526198 399.078438)scale(0.1 -0.1)">
       <defs>
        <path d="M 2419 4116 
L 825 1625 
L 2419 1625 
L 2419 4116 
z
M 2253 4666 
L 3047 4666 
L 3047 1625 
L 3713 1625 
L 3713 1100 
L 3047 1100 
L 3047 0 
L 2419 0 
L 2419 1100 
L 313 1100 
L 313 1709 
L 2253 4666 
z
" id="DejaVuSans-34" transform="scale(0.015625)"/>
       </defs>
       <use xlink:href="#DejaVuSans-34"/>
      </g>
     </g>
    </g>
    <g id="text_6">
     <!-- Position -->
     <g transform="translate(570.935938 412.756563)scale(0.1 -0.1)">
      <defs>
       <path d="M 1259 4147 
L 1259 2394 
L 2053 2394 
Q 2494 2394 2734 2622 
Q 2975 2850 2975 3272 
Q 2975 3691 2734 3919 
Q 2494 4147 2053 4147 
L 1259 4147 
z
M 628 4666 
L 2053 4666 
Q 2838 4666 3239 4311 
Q 3641 3956 3641 3272 
Q 3641 2581 3239 2228 
Q 2838 1875 2053 1875 
L 1259 1875 
L 1259 0 
L 628 0 
L 628 4666 
z
" id="DejaVuSans-50" transform="scale(0.015625)"/>
       <path d="M 1959 3097 
Q 1497 3097 1228 2736 
Q 959 2375 959 1747 
Q 959 1119 1226 758 
Q 1494 397 1959 397 
Q 2419 397 2687 759 
Q 2956 1122 2956 1747 
Q 2956 2369 2687 2733 
Q 2419 3097 1959 3097 
z
M 1959 3584 
Q 2709 3584 3137 3096 
Q 3566 2609 3566 1747 
Q 3566 888 3137 398 
Q 2709 -91 1959 -91 
Q 1206 -91 779 398 
Q 353 888 353 1747 
Q 353 2609 779 3096 
Q 1206 3584 1959 3584 
z
" id="DejaVuSans-6f" transform="scale(0.015625)"/>
       <path d="M 2834 3397 
L 2834 2853 
Q 2591 2978 2328 3040 
Q 2066 3103 1784 3103 
Q 1356 3103 1142 2972 
Q 928 2841 928 2578 
Q 928 2378 1081 2264 
Q 1234 2150 1697 2047 
L 1894 2003 
Q 2506 1872 2764 1633 
Q 3022 1394 3022 966 
Q 3022 478 2636 193 
Q 2250 -91 1575 -91 
Q 1294 -91 989 -36 
Q 684 19 347 128 
L 347 722 
Q 666 556 975 473 
Q 1284 391 1588 391 
Q 1994 391 2212 530 
Q 2431 669 2431 922 
Q 2431 1156 2273 1281 
Q 2116 1406 1581 1522 
L 1381 1569 
Q 847 1681 609 1914 
Q 372 2147 372 2553 
Q 372 3047 722 3315 
Q 1072 3584 1716 3584 
Q 2034 3584 2315 3537 
Q 2597 3491 2834 3397 
z
" id="DejaVuSans-73" transform="scale(0.015625)"/>
       <path d="M 603 3500 
L 1178 3500 
L 1178 0 
L 603 0 
L 603 3500 
z
M 603 4863 
L 1178 4863 
L 1178 4134 
L 603 4134 
L 603 4863 
z
" id="DejaVuSans-69" transform="scale(0.015625)"/>
       <path d="M 1172 4494 
L 1172 3500 
L 2356 3500 
L 2356 3053 
L 1172 3053 
L 1172 1153 
Q 1172 725 1289 603 
Q 1406 481 1766 481 
L 2356 481 
L 2356 0 
L 1766 0 
Q 1100 0 847 248 
Q 594 497 594 1153 
L 594 3053 
L 172 3053 
L 172 3500 
L 594 3500 
L 594 4494 
L 1172 4494 
z
" id="DejaVuSans-74" transform="scale(0.015625)"/>
       <path d="M 3513 2113 
L 3513 0 
L 2938 0 
L 2938 2094 
Q 2938 2591 2744 2837 
Q 2550 3084 2163 3084 
Q 1697 3084 1428 2787 
Q 1159 2491 1159 1978 
L 1159 0 
L 581 0 
L 581 3500 
L 1159 3500 
L 1159 2956 
Q 1366 3272 1645 3428 
Q 1925 3584 2291 3584 
Q 2894 3584 3203 3211 
Q 3513 2838 3513 2113 
z
" id="DejaVuSans-6e" transform="scale(0.015625)"/>
      </defs>
      <use xlink:href="#DejaVuSans-50"/>
      <use x="56.677734" xlink:href="#DejaVuSans-6f"/>
      <use x="117.859375" xlink:href="#DejaVuSans-73"/>
      <use x="169.958984" xlink:href="#DejaVuSans-69"/>
      <use x="197.742188" xlink:href="#DejaVuSans-74"/>
      <use x="236.951172" xlink:href="#DejaVuSans-69"/>
      <use x="264.734375" xlink:href="#DejaVuSans-6f"/>
      <use x="325.916016" xlink:href="#DejaVuSans-6e"/>
     </g>
    </g>
    <g id="text_7">
     <!-- 1e6 -->
     <g transform="translate(1017.921875 411.756563)scale(0.1 -0.1)">
      <defs>
       <path d="M 3597 1894 
L 3597 1613 
L 953 1613 
Q 991 1019 1311 708 
Q 1631 397 2203 397 
Q 2534 397 2845 478 
Q 3156 559 3463 722 
L 3463 178 
Q 3153 47 2828 -22 
Q 2503 -91 2169 -91 
Q 1331 -91 842 396 
Q 353 884 353 1716 
Q 353 2575 817 3079 
Q 1281 3584 2069 3584 
Q 2775 3584 3186 3129 
Q 3597 2675 3597 1894 
z
M 3022 2063 
Q 3016 2534 2758 2815 
Q 2500 3097 2075 3097 
Q 1594 3097 1305 2825 
Q 1016 2553 972 2059 
L 3022 2063 
z
" id="DejaVuSans-65" transform="scale(0.015625)"/>
       <path d="M 2113 2584 
Q 1688 2584 1439 2293 
Q 1191 2003 1191 1497 
Q 1191 994 1439 701 
Q 1688 409 2113 409 
Q 2538 409 2786 701 
Q 3034 994 3034 1497 
Q 3034 2003 2786 2293 
Q 2538 2584 2113 2584 
z
M 3366 4563 
L 3366 3988 
Q 3128 4100 2886 4159 
Q 2644 4219 2406 4219 
Q 1781 4219 1451 3797 
Q 1122 3375 1075 2522 
Q 1259 2794 1537 2939 
Q 1816 3084 2150 3084 
Q 2853 3084 3261 2657 
Q 3669 2231 3669 1497 
Q 3669 778 3244 343 
Q 2819 -91 2113 -91 
Q 1303 -91 875 529 
Q 447 1150 447 2328 
Q 447 3434 972 4092 
Q 1497 4750 2381 4750 
Q 2619 4750 2861 4703 
Q 3103 4656 3366 4563 
z
" id="DejaVuSans-36" transform="scale(0.015625)"/>
      </defs>
      <use xlink:href="#DejaVuSans-31"/>
      <use x="63.623047" xlink:href="#DejaVuSans-65"/>
      <use x="125.146484" xlink:href="#DejaVuSans-36"/>
     </g>
    </g>
   </g>
   <g id="matplotlib.axis_2">
    <g id="ytick_1">
     <g id="line2d_6">
      <defs>
       <path d="M 0 0 
L -3.5 0 
" id="m7e9d2e91fc" style="stroke:#000000;stroke-width:0.8;"/>
      </defs>
      <g>
       <use style="stroke:#000000;stroke-width:0.8;" x="144" xlink:href="#m7e9d2e91fc" y="369.36"/>
      </g>
     </g>
     <g id="text_8">
      <!-- 0.0 -->
      <g transform="translate(121.096875 373.159219)scale(0.1 -0.1)">
       <defs>
        <path d="M 684 794 
L 1344 794 
L 1344 0 
L 684 0 
L 684 794 
z
" id="DejaVuSans-2e" transform="scale(0.015625)"/>
       </defs>
       <use xlink:href="#DejaVuSans-30"/>
       <use x="63.623047" xlink:href="#DejaVuSans-2e"/>
       <use x="95.410156" xlink:href="#DejaVuSans-30"/>
      </g>
     </g>
    </g>
    <g id="ytick_2">
     <g id="line2d_7">
      <g>
       <use style="stroke:#000000;stroke-width:0.8;" x="144" xlink:href="#m7e9d2e91fc" y="308.879274"/>
      </g>
     </g>
     <g id="text_9">
      <!-- 0.2 -->
      <g transform="translate(121.096875 312.678493)scale(0.1 -0.1)">
       <use xlink:href="#DejaVuSans-30"/>
       <use x="63.623047" xlink:href="#DejaVuSans-2e"/>
       <use x="95.410156" xlink:href="#DejaVuSans-32"/>
      </g>
     </g>
    </g>
    <g id="ytick_3">
     <g id="line2d_8">
      <g>
       <use style="stroke:#000000;stroke-width:0.8;" x="144" xlink:href="#m7e9d2e91fc" y="248.398548"/>
      </g>
     </g>
     <g id="text_10">
      <!-- 0.4 -->
      <g transform="translate(121.096875 252.197767)scale(0.1 -0.1)">
       <use xlink:href="#DejaVuSans-30"/>
       <use x="63.623047" xlink:href="#DejaVuSans-2e"/>
       <use x="95.410156" xlink:href="#DejaVuSans-34"/>
      </g>
     </g>
    </g>
    <g id="ytick_4">
     <g id="line2d_9">
      <g>
       <use style="stroke:#000000;stroke-width:0.8;" x="144" xlink:href="#m7e9d2e91fc" y="187.917823"/>
      </g>
     </g>
     <g id="text_11">
      <!-- 0.6 -->
      <g transform="translate(121.096875 191.717041)scale(0.1 -0.1)">
       <use xlink:href="#DejaVuSans-30"/>
       <use x="63.623047" xlink:href="#DejaVuSans-2e"/>
       <use x="95.410156" xlink:href="#DejaVuSans-36"/>
      </g>
     </g>
    </g>
    <g id="ytick_5">
     <g id="line2d_10">
      <g>
       <use style="stroke:#000000;stroke-width:0.8;" x="144" xlink:href="#m7e9d2e91fc" y="127.437097"/>
      </g>
     </g>
     <g id="text_12">
      <!-- 0.8 -->
      <g transform="translate(121.096875 131.236316)scale(0.1 -0.1)">
       <defs>
        <path d="M 2034 2216 
Q 1584 2216 1326 1975 
Q 1069 1734 1069 1313 
Q 1069 891 1326 650 
Q 1584 409 2034 409 
Q 2484 409 2743 651 
Q 3003 894 3003 1313 
Q 3003 1734 2745 1975 
Q 2488 2216 2034 2216 
z
M 1403 2484 
Q 997 2584 770 2862 
Q 544 3141 544 3541 
Q 544 4100 942 4425 
Q 1341 4750 2034 4750 
Q 2731 4750 3128 4425 
Q 3525 4100 3525 3541 
Q 3525 3141 3298 2862 
Q 3072 2584 2669 2484 
Q 3125 2378 3379 2068 
Q 3634 1759 3634 1313 
Q 3634 634 3220 271 
Q 2806 -91 2034 -91 
Q 1263 -91 848 271 
Q 434 634 434 1313 
Q 434 1759 690 2068 
Q 947 2378 1403 2484 
z
M 1172 3481 
Q 1172 3119 1398 2916 
Q 1625 2713 2034 2713 
Q 2441 2713 2670 2916 
Q 2900 3119 2900 3481 
Q 2900 3844 2670 4047 
Q 2441 4250 2034 4250 
Q 1625 4250 1398 4047 
Q 1172 3844 1172 3481 
z
" id="DejaVuSans-38" transform="scale(0.015625)"/>
       </defs>
       <use xlink:href="#DejaVuSans-30"/>
       <use x="63.623047" xlink:href="#DejaVuSans-2e"/>
       <use x="95.410156" xlink:href="#DejaVuSans-38"/>
      </g>
     </g>
    </g>
    <g id="ytick_6">
     <g id="line2d_11">
      <g>
       <use style="stroke:#000000;stroke-width:0.8;" x="144" xlink:href="#m7e9d2e91fc" y="66.956371"/>
      </g>
     </g>
     <g id="text_13">
      <!-- 1.0 -->
      <g transform="translate(121.096875 70.75559)scale(0.1 -0.1)">
       <use xlink:href="#DejaVuSans-31"/>
       <use x="63.623047" xlink:href="#DejaVuSans-2e"/>
       <use x="95.410156" xlink:href="#DejaVuSans-30"/>
      </g>
     </g>
    </g>
    <g id="text_14">
     <!-- Depth of coverage -->
     <g transform="translate(115.017187 264.602187)rotate(-90)scale(0.1 -0.1)">
      <defs>
       <path d="M 1259 4147 
L 1259 519 
L 2022 519 
Q 2988 519 3436 956 
Q 3884 1394 3884 2338 
Q 3884 3275 3436 3711 
Q 2988 4147 2022 4147 
L 1259 4147 
z
M 628 4666 
L 1925 4666 
Q 3281 4666 3915 4102 
Q 4550 3538 4550 2338 
Q 4550 1131 3912 565 
Q 3275 0 1925 0 
L 628 0 
L 628 4666 
z
" id="DejaVuSans-44" transform="scale(0.015625)"/>
       <path d="M 1159 525 
L 1159 -1331 
L 581 -1331 
L 581 3500 
L 1159 3500 
L 1159 2969 
Q 1341 3281 1617 3432 
Q 1894 3584 2278 3584 
Q 2916 3584 3314 3078 
Q 3713 2572 3713 1747 
Q 3713 922 3314 415 
Q 2916 -91 2278 -91 
Q 1894 -91 1617 61 
Q 1341 213 1159 525 
z
M 3116 1747 
Q 3116 2381 2855 2742 
Q 2594 3103 2138 3103 
Q 1681 3103 1420 2742 
Q 1159 2381 1159 1747 
Q 1159 1113 1420 752 
Q 1681 391 2138 391 
Q 2594 391 2855 752 
Q 3116 1113 3116 1747 
z
" id="DejaVuSans-70" transform="scale(0.015625)"/>
       <path d="M 3513 2113 
L 3513 0 
L 2938 0 
L 2938 2094 
Q 2938 2591 2744 2837 
Q 2550 3084 2163 3084 
Q 1697 3084 1428 2787 
Q 1159 2491 1159 1978 
L 1159 0 
L 581 0 
L 581 4863 
L 1159 4863 
L 1159 2956 
Q 1366 3272 1645 3428 
Q 1925 3584 2291 3584 
Q 2894 3584 3203 3211 
Q 3513 2838 3513 2113 
z
" id="DejaVuSans-68" transform="scale(0.015625)"/>
       <path id="DejaVuSans-20" transform="scale(0.015625)"/>
       <path d="M 2375 4863 
L 2375 4384 
L 1825 4384 
Q 1516 4384 1395 4259 
Q 1275 4134 1275 3809 
L 1275 3500 
L 2222 3500 
L 2222 3053 
L 1275 3053 
L 1275 0 
L 697 0 
L 697 3053 
L 147 3053 
L 147 3500 
L 697 3500 
L 697 3744 
Q 697 4328 969 4595 
Q 1241 4863 1831 4863 
L 2375 4863 
z
" id="DejaVuSans-66" transform="scale(0.015625)"/>
       <path d="M 3122 3366 
L 3122 2828 
Q 2878 2963 2633 3030 
Q 2388 3097 2138 3097 
Q 1578 3097 1268 2742 
Q 959 2388 959 1747 
Q 959 1106 1268 751 
Q 1578 397 2138 397 
Q 2388 397 2633 464 
Q 2878 531 3122 666 
L 3122 134 
Q 2881 22 2623 -34 
Q 2366 -91 2075 -91 
Q 1284 -91 818 406 
Q 353 903 353 1747 
Q 353 2603 823 3093 
Q 1294 3584 2113 3584 
Q 2378 3584 2631 3529 
Q 2884 3475 3122 3366 
z
" id="DejaVuSans-63" transform="scale(0.015625)"/>
       <path d="M 191 3500 
L 800 3500 
L 1894 563 
L 2988 3500 
L 3597 3500 
L 2284 0 
L 1503 0 
L 191 3500 
z
" id="DejaVuSans-76" transform="scale(0.015625)"/>
       <path d="M 2631 2963 
Q 2534 3019 2420 3045 
Q 2306 3072 2169 3072 
Q 1681 3072 1420 2755 
Q 1159 2438 1159 1844 
L 1159 0 
L 581 0 
L 581 3500 
L 1159 3500 
L 1159 2956 
Q 1341 3275 1631 3429 
Q 1922 3584 2338 3584 
Q 2397 3584 2469 3576 
Q 2541 3569 2628 3553 
L 2631 2963 
z
" id="DejaVuSans-72" transform="scale(0.015625)"/>
       <path d="M 2194 1759 
Q 1497 1759 1228 1600 
Q 959 1441 959 1056 
Q 959 750 1161 570 
Q 1363 391 1709 391 
Q 2188 391 2477 730 
Q 2766 1069 2766 1631 
L 2766 1759 
L 2194 1759 
z
M 3341 1997 
L 3341 0 
L 2766 0 
L 2766 531 
Q 2569 213 2275 61 
Q 1981 -91 1556 -91 
Q 1019 -91 701 211 
Q 384 513 384 1019 
Q 384 1609 779 1909 
Q 1175 2209 1959 2209 
L 2766 2209 
L 2766 2266 
Q 2766 2663 2505 2880 
Q 2244 3097 1772 3097 
Q 1472 3097 1187 3025 
Q 903 2953 641 2809 
L 641 3341 
Q 956 3463 1253 3523 
Q 1550 3584 1831 3584 
Q 2591 3584 2966 3190 
Q 3341 2797 3341 1997 
z
" id="DejaVuSans-61" transform="scale(0.015625)"/>
       <path d="M 2906 1791 
Q 2906 2416 2648 2759 
Q 2391 3103 1925 3103 
Q 1463 3103 1205 2759 
Q 947 2416 947 1791 
Q 947 1169 1205 825 
Q 1463 481 1925 481 
Q 2391 481 2648 825 
Q 2906 1169 2906 1791 
z
M 3481 434 
Q 3481 -459 3084 -895 
Q 2688 -1331 1869 -1331 
Q 1566 -1331 1297 -1286 
Q 1028 -1241 775 -1147 
L 775 -588 
Q 1028 -725 1275 -790 
Q 1522 -856 1778 -856 
Q 2344 -856 2625 -561 
Q 2906 -266 2906 331 
L 2906 616 
Q 2728 306 2450 153 
Q 2172 0 1784 0 
Q 1141 0 747 490 
Q 353 981 353 1791 
Q 353 2603 747 3093 
Q 1141 3584 1784 3584 
Q 2172 3584 2450 3431 
Q 2728 3278 2906 2969 
L 2906 3500 
L 3481 3500 
L 3481 434 
z
" id="DejaVuSans-67" transform="scale(0.015625)"/>
      </defs>
      <use xlink:href="#DejaVuSans-44"/>
      <use x="77.001953" xlink:href="#DejaVuSans-65"/>
      <use x="138.525391" xlink:href="#DejaVuSans-70"/>
      <use x="202.001953" xlink:href="#DejaVuSans-74"/>
      <use x="241.210938" xlink:href="#DejaVuSans-68"/>
      <use x="304.589844" xlink:href="#DejaVuSans-20"/>
      <use x="336.376953" xlink:href="#DejaVuSans-6f"/>
      <use x="397.558594" xlink:href="#DejaVuSans-66"/>
      <use x="432.763672" xlink:href="#DejaVuSans-20"/>
      <use x="464.550781" xlink:href="#DejaVuSans-63"/>
      <use x="519.53125" xlink:href="#DejaVuSans-6f"/>
      <use x="580.712891" xlink:href="#DejaVuSans-76"/>
      <use x="639.892578" xlink:href="#DejaVuSans-65"/>
      <use x="701.416016" xlink:href="#DejaVuSans-72"/>
      <use x="742.529297" xlink:href="#DejaVuSans-61"/>
      <use x="803.808594" xlink:href="#DejaVuSans-67"/>
      <use x="867.285156" xlink:href="#DejaVuSans-65"/>
     </g>
    </g>
    <g id="text_15">
     <!-- 1e6 -->
     <g transform="translate(144 48.84)scale(0.1 -0.1)">
      <use xlink:href="#DejaVuSans-31"/>
      <use x="63.623047" xlink:href="#DejaVuSans-65"/>
      <use x="125.146484" xlink:href="#DejaVuSans-36"/>
     </g>
    </g>
   </g>
   <g id="line2d_12">
    <path clip-path="url(#pf0f6c79080)" d="M 184.581818 369.342763 
L 189.158675 369.233898 
L 189.220862 368.988346 
L 189.173115 369.248715 
L 189.271883 369.191561 
L 189.356212 369.292262 
L 189.273809 369.182791 
L 189.388557 369.266557 
L 189.497338 369.240853 
L 189.389712 369.269279 
L 189.506964 369.257788 
L 189.61998 369.311011 
L 189.519286 369.242063 
L 189.621713 369.308591 
L 189.736269 369.300729 
L 189.64732 369.327038 
L 189.736654 369.301031 
L 189.850248 369.31222 
L 189.738002 369.300426 
L 189.854098 369.304055 
L 189.942663 369.285004 
L 189.854676 369.30587 
L 189.971157 369.326433 
L 190.045282 369.332784 
L 189.994646 369.311011 
L 190.083018 369.322502 
L 190.143665 369.307079 
L 190.101501 369.329155 
L 190.193916 369.328248 
L 190.323682 369.327038 
L 190.32426 369.327643 
L 190.415905 369.338227 
L 190.435543 369.330364 
L 192.154271 369.221802 
L 192.252655 369.201238 
L 192.207602 369.278351 
L 192.265362 369.224523 
L 192.299055 369.174929 
L 192.266132 369.228757 
L 192.37549 369.258392 
L 192.526819 369.298007 
L 192.395128 369.244179 
L 192.5299 369.294983 
L 192.603447 369.278351 
L 192.632134 369.314035 
L 192.64022 369.306777 
L 199.103307 369.198516 
L 199.117939 369.174324 
L 199.208044 369.301636 
L 199.210162 369.299217 
L 199.320868 369.296798 
L 199.225372 369.315849 
L 199.32183 369.299217 
L 199.378049 369.326131 
L 199.436001 369.310708 
L 199.476048 369.303753 
L 199.494531 369.32734 
L 199.547284 369.320688 
L 220.812186 369.212729 
L 220.845301 369.13229 
L 220.906526 369.246901 
L 220.922891 369.226338 
L 220.928282 369.219382 
L 221.070563 369.324619 
L 221.180691 369.3349 
L 221.071141 369.325526 
L 221.190895 369.342461 
L 221.310842 369.333691 
L 221.313923 369.328852 
L 221.448695 369.29075 
L 221.46275 369.301031 
L 221.536104 369.314337 
L 221.549389 369.285911 
L 221.573455 369.289842 
L 221.716891 369.310103 
L 221.717276 369.308894 
L 221.72363 369.291052 
L 221.812772 369.336413 
L 221.826441 369.334296 
L 221.967182 369.349113 
L 221.830485 369.330667 
L 221.967374 369.348811 
L 223.254062 369.237829 
L 223.371313 369.254764 
L 223.265421 369.258997 
L 223.372661 369.256578 
L 223.477206 369.2971 
L 223.405006 369.2342 
L 223.48664 369.278956 
L 223.568466 369.288028 
L 223.519177 369.318268 
L 223.594265 369.316454 
L 223.683214 369.32855 
L 223.629883 369.307684 
L 223.706125 369.312825 
L 223.84109 369.30466 
L 223.706511 369.31343 
L 223.84186 369.30587 
L 223.919835 369.31343 
L 223.903663 369.287423 
L 223.952181 369.294378 
L 224.0548 369.262928 
L 223.969316 369.301334 
L 224.069047 369.28954 
L 224.091958 369.310406 
L 224.120838 369.270186 
L 224.179753 369.281375 
L 224.294694 369.278049 
L 224.251952 369.237829 
L 224.294887 369.277444 
L 224.431391 369.175534 
L 224.439093 369.189142 
L 224.445639 369.236922 
L 224.522074 369.026146 
L 224.548258 369.130173 
L 224.658578 369.281677 
L 224.572902 369.115658 
L 224.67013 369.262928 
L 224.692464 369.257788 
L 224.767166 369.305265 
L 224.779873 369.282585 
L 226.27719 369.171905 
L 226.340533 369.057294 
L 226.385778 369.272908 
L 226.38597 369.264138 
L 226.500141 369.322804 
L 226.502644 369.32099 
L 226.541536 369.321292 
L 226.593712 369.246901 
L 226.599487 369.263533 
L 226.711733 369.117472 
L 226.618548 369.272908 
L 226.715391 369.128661 
L 226.825712 369.239643 
L 226.939498 369.263231 
L 226.897526 369.147713 
L 226.942771 369.257485 
L 227.039999 369.185816 
L 227.064451 369.21787 
L 227.16399 369.262928 
L 227.083896 369.173115 
L 227.191329 369.252949 
L 227.192099 369.249623 
L 227.234456 369.282585 
L 227.301842 369.262928 
L 227.412933 369.277141 
L 227.32225 369.302241 
L 227.417553 369.287121 
L 227.534035 369.321595 
L 227.452979 369.27442 
L 227.53519 369.321292 
L 227.629145 369.291052 
L 227.651672 369.306475 
L 227.73292 369.335505 
L 227.764302 369.318571 
L 227.878666 369.303753 
L 227.883287 369.299217 
L 227.986484 369.247808 
L 227.90331 369.311615 
L 228.005159 369.282282 
L 228.169389 369.336413 
L 228.169966 369.334598 
L 228.284715 369.325224 
L 228.2851 369.325828 
L 228.28741 369.321292 
L 228.399656 369.339739 
L 232.795533 369.228757 
L 232.835195 369.194585 
L 232.885445 369.264743 
L 232.900848 369.26565 
L 233.013671 369.324014 
L 233.01964 369.320083 
L 233.098963 369.307684 
L 233.039278 369.306777 
L 233.120719 369.27321 
L 233.167504 369.278049 
L 233.134581 369.304055 
L 233.229306 369.297705 
L 233.255683 369.296495 
L 233.26916 369.31978 
L 233.338279 369.319176 
L 233.438588 368.812045 
L 233.344825 369.325526 
L 233.459189 369.304055 
L 233.572975 369.32099 
L 233.483063 369.247506 
L 233.573168 369.320083 
L 233.688109 369.32099 
L 233.579714 369.31343 
L 233.688879 369.317966 
L 233.798044 369.279863 
L 233.805168 369.30466 
L 233.818645 369.301636 
L 233.922997 369.338227 
L 234.040634 369.336715 
L 234.048913 369.32976 
L 234.133627 369.285306 
L 234.051416 369.330667 
L 234.172903 369.305265 
L 234.261852 369.337925 
L 234.202553 369.292564 
L 234.288229 369.332179 
L 234.419921 369.333691 
L 234.289384 369.330969 
L 234.420498 369.333086 
L 234.522925 369.278653 
L 234.546414 369.303451 
L 234.714109 369.36 
L 235.825207 369.249018 
L 235.928404 369.268069 
L 235.829443 369.253856 
L 235.935528 369.280468 
L 236.028328 369.317059 
L 235.96229 369.276234 
L 236.047581 369.313127 
L 236.157709 369.340041 
L 236.047966 369.312825 
L 236.182161 369.317663 
L 236.197371 369.330667 
L 236.306536 369.324921 
L 236.411466 369.346392 
L 236.349663 369.320385 
L 236.418397 369.341856 
L 236.507346 369.341553 
L 236.534108 369.316756 
L 242.566502 369.211217 
L 242.571893 369.193073 
L 242.668351 369.29075 
L 242.675282 369.285004 
L 255.588556 369.175534 
L 255.600878 369.139245 
L 255.68848 369.302241 
L 255.689828 369.301334 
L 255.788404 369.324921 
L 255.700417 369.294681 
L 255.803036 369.307079 
L 255.913164 369.282585 
L 255.817861 369.314337 
L 255.917978 369.291052 
L 256.014243 369.273513 
L 255.925101 369.303753 
L 256.038695 369.307079 
L 256.1494 369.333388 
L 256.152673 369.329457 
L 257.839441 369.218475 
L 257.873712 369.151644 
L 257.896045 369.262626 
L 257.949184 369.23541 
L 258.096085 369.271093 
L 257.959196 369.208496 
L 258.098588 369.269279 
L 258.130741 369.262021 
L 258.205443 369.315849 
L 258.208331 369.312523 
L 258.328856 369.258997 
L 258.329048 369.260207 
L 258.448033 369.273815 
L 258.333862 369.268674 
L 258.448996 369.276537 
L 258.537367 369.295588 
L 258.47441 369.272001 
L 258.559701 369.269279 
L 258.602636 369.244179 
L 258.662898 369.320688 
L 258.664438 369.317966 
L 259.113229 369.208496 
L 259.144419 369.113239 
L 259.221432 369.246599 
L 259.223549 369.243575 
L 259.267639 369.236619 
L 259.255895 369.275629 
L 259.31943 369.299822 
L 259.445538 369.33611 
L 259.323281 369.297402 
L 259.446886 369.333993 
L 259.587819 369.307382 
L 259.449196 369.33611 
L 259.592054 369.312825 
L 259.707766 369.331876 
L 259.709306 369.330969 
L 276.91064 369.219987 
L 276.951649 369.204867 
L 277.014414 369.292866 
L 277.014607 369.292262 
L 277.081222 369.310708 
L 277.030394 369.287121 
L 277.123194 369.27321 
L 277.140715 369.193376 
L 277.230049 369.338832 
L 277.231782 369.336715 
L 277.365014 369.324316 
L 277.368094 369.32855 
L 277.410644 369.335203 
L 277.386962 369.323107 
L 277.477067 369.307079 
L 277.500556 369.293471 
L 277.582767 369.335505 
L 277.585655 369.335808 
L 277.674219 369.330667 
L 277.600287 369.324921 
L 277.694628 369.311918 
L 288.447122 369.202145 
L 288.491981 369.180675 
L 288.548201 369.270186 
L 288.554747 369.256578 
L 288.664875 369.28077 
L 288.588825 369.08572 
L 288.670073 369.274722 
L 288.758637 369.261114 
L 288.701071 369.29075 
L 288.782126 369.280468 
L 288.896297 369.307382 
L 288.824291 369.268674 
L 288.898608 369.306475 
L 294.218443 369.224826 
L 294.224604 368.066317 
L 294.277358 369.292262 
L 294.329341 369.239341 
L 294.44486 369.313127 
L 294.44563 369.310103 
L 294.650098 369.199424 
L 294.658955 369.177651 
L 294.757916 369.250832 
L 294.758301 369.247808 
L 294.867081 369.327945 
L 294.766773 369.244179 
L 294.875553 369.322502 
L 294.983948 369.312523 
L 294.887297 369.30587 
L 294.995307 369.304055 
L 295.112944 369.289842 
L 294.995885 369.30587 
L 295.123148 369.309499 
L 295.194385 369.321897 
L 295.165313 369.294076 
L 295.234239 369.304963 
L 295.359962 369.328852 
L 295.235009 369.301031 
L 295.373631 369.317663 
L 295.480871 369.316151 
L 295.389612 369.331272 
L 295.4853 369.3222 
L 295.613718 369.314035 
L 295.491461 369.32855 
L 295.617569 369.320385 
L 295.731355 369.33611 
L 295.620072 369.317361 
L 295.733858 369.333993 
L 296.920044 369.223918 
L 297.032867 369.151039 
L 296.937757 369.236317 
L 297.03691 369.174324 
L 297.037103 369.174022 
L 297.100061 369.26444 
L 297.113345 369.255368 
L 297.157435 369.307684 
L 297.225591 369.290145 
L 297.336489 369.300124 
L 297.230789 369.281677 
L 297.342458 369.292262 
L 297.377498 369.261416 
L 297.35709 369.298007 
L 297.454126 369.297402 
L 297.498216 369.303753 
L 297.539225 369.263533 
L 297.562136 369.271698 
L 297.69171 369.218475 
L 297.714428 369.238434 
L 297.784125 369.275025 
L 297.73811 369.229966 
L 297.826289 369.25174 
L 300.922772 369.146503 
L 300.932591 369.058504 
L 301.031937 369.203355 
L 301.14014 369.317059 
L 301.148804 369.310103 
L 301.247572 369.303753 
L 301.179031 369.329457 
L 301.259894 369.317966 
L 301.361936 369.32855 
L 301.276259 369.31343 
L 301.37445 369.323107 
L 301.559666 369.215149 
L 301.563901 369.231781 
L 301.694245 369.334296 
L 301.564286 369.230874 
L 301.706567 369.314035 
L 301.808609 369.231781 
L 301.711958 369.321292 
L 301.832098 369.250832 
L 301.944921 369.331876 
L 301.945113 369.331574 
L 302.056782 369.32976 
L 302.067756 369.317966 
L 302.163252 369.291657 
L 302.081233 369.326736 
L 302.185585 369.313127 
L 302.283199 369.323712 
L 302.209459 369.300124 
L 302.297253 369.315547 
L 308.490796 369.204867 
L 308.492914 369.18884 
L 308.57782 369.316454 
L 308.585907 369.290447 
L 308.694687 369.30587 
L 308.599191 369.275629 
L 308.700463 369.303451 
L 308.811939 369.262626 
L 308.714518 369.32099 
L 308.815212 369.279863 
L 308.901273 369.314035 
L 308.92842 369.293774 
L 308.942667 369.282282 
L 309.025071 369.339739 
L 309.03489 369.335505 
L 309.156377 369.333691 
L 309.0372 369.332481 
L 309.160998 369.326736 
L 310.966943 369.216661 
L 311.075915 369.157994 
L 310.997555 369.228454 
L 311.086312 369.171905 
L 311.198558 369.3222 
L 311.112304 369.15739 
L 311.202986 369.31978 
L 315.784656 369.210008 
L 315.795245 369.149829 
L 315.849924 369.292866 
L 315.890548 369.263533 
L 315.974107 369.265952 
L 315.910572 369.238736 
L 315.993168 369.21908 
L 316.013768 369.213334 
L 316.09983 369.277746 
L 316.206107 369.319478 
L 316.214771 369.315244 
L 316.302373 369.303753 
L 316.252122 369.289842 
L 316.322011 369.286516 
L 316.452355 369.287121 
L 316.334333 369.306475 
L 316.452548 369.287423 
L 316.462174 369.28198 
L 316.571339 369.312825 
L 316.678002 369.279561 
L 316.704764 369.309801 
L 316.839151 369.323712 
L 316.843194 369.32099 
L 316.956402 369.282887 
L 316.863795 369.327038 
L 316.960638 369.288633 
L 317.040346 369.314035 
L 316.981431 369.285004 
L 317.074039 369.30466 
L 317.208041 369.314942 
L 317.209966 369.311313 
L 317.314126 369.324921 
L 317.21863 369.325828 
L 317.320672 369.329457 
L 322.818984 369.224523 
L 322.849404 369.212729 
L 322.927956 369.291959 
L 323.073125 369.32976 
L 323.078901 369.322502 
L 323.190569 369.327038 
L 323.081596 369.325828 
L 323.200196 369.338227 
L 323.317447 369.344275 
L 323.318025 369.342763 
L 323.440282 369.323107 
L 323.454337 369.3349 
L 323.562155 369.348811 
L 323.45761 369.333388 
L 323.569856 369.344577 
L 323.571204 369.346392 
L 323.697312 369.35123 
L 323.815719 369.332179 
L 323.697697 369.350928 
L 323.815911 369.331574 
L 323.839208 369.322804 
L 323.868472 369.342763 
L 323.926809 369.339134 
L 327.740086 369.228757 
L 327.783984 369.202448 
L 327.770699 369.239643 
L 327.851177 369.229966 
L 327.984216 369.312825 
L 327.851562 369.229059 
L 327.991725 369.305265 
L 328.111479 369.310708 
L 327.993073 369.307079 
L 328.116485 369.315849 
L 328.243171 369.325828 
L 328.117063 369.314639 
L 328.250102 369.31978 
L 328.363118 369.291354 
L 328.256456 369.324619 
L 328.363503 369.293169 
L 328.455148 369.314942 
L 328.479022 369.303148 
L 328.597621 369.308289 
L 328.48037 369.304055 
L 328.602435 369.315244 
L 328.679062 369.320688 
L 328.63401 369.304963 
L 328.712177 369.29831 
L 328.825771 369.325828 
L 328.722382 369.313127 
L 328.825964 369.326433 
L 329.602443 369.21908 
L 329.621888 362.415905 
L 329.631515 364.950955 
L 329.631707 258.275353 
L 329.683113 67.490718 
L 329.741643 369.315244 
L 329.742413 369.31343 
L 329.835598 369.266557 
L 329.76725 369.281677 
L 329.838101 369.25809 
L 329.84792 369.226942 
L 329.939758 369.350021 
L 329.943031 369.346997 
L 330.806149 369.237224 
L 330.81462 369.211822 
L 330.848121 369.294076 
L 330.914544 369.26444 
L 339.056697 369.161623 
L 339.068442 369.131685 
L 339.16336 369.314639 
L 339.164323 369.310708 
L 343.844954 369.204867 
L 343.871523 369.18763 
L 343.948343 369.322502 
L 343.953541 369.317361 
L 343.986464 369.335808 
L 344.051347 369.282887 
L 344.062322 369.295588 
L 344.1428 369.266255 
L 344.169754 369.323409 
L 344.170139 369.322502 
L 344.314153 369.346694 
L 344.182269 369.310103 
L 344.316078 369.34488 
L 344.718661 369.2342 
L 344.776228 369.117472 
L 344.809728 369.242063 
L 344.829752 369.235712 
L 344.930638 369.323107 
L 344.830137 369.233595 
L 344.947773 369.319176 
L 345.06541 369.332784 
L 345.07985 369.320688 
L 345.108922 369.304358 
L 345.086396 369.32734 
L 345.189208 369.339437 
L 345.290287 369.327945 
L 345.226559 369.314942 
L 345.302801 369.311615 
L 345.421401 369.301031 
L 345.306267 369.317663 
L 345.421593 369.303148 
L 345.453746 369.311313 
L 345.483011 369.275327 
L 345.531721 369.288028 
L 345.673232 369.322502 
L 345.539037 369.269884 
L 345.680548 369.314942 
L 347.737168 369.307987 
L 347.743715 369.01405 
L 347.818609 369.32099 
L 347.848259 369.307382 
L 386.637754 369.249623 
L 386.641797 264.824811 
L 386.643915 207.206941 
L 386.690508 369.345787 
L 386.75231 369.338832 
L 390.090227 369.22785 
L 390.178599 369.247506 
L 390.116797 369.257183 
L 390.189766 369.276537 
L 390.286224 369.316151 
L 390.22885 369.267464 
L 390.304515 369.307079 
L 390.407712 369.302241 
L 390.316259 369.323107 
L 390.418301 369.315849 
L 390.535938 369.339437 
L 390.421382 369.312523 
L 390.536515 369.339134 
L 390.646066 369.332179 
L 390.546334 369.342763 
L 390.650494 369.336715 
L 390.76582 369.32734 
L 390.668207 369.323107 
L 390.772944 369.322804 
L 390.886537 369.326433 
L 390.774099 369.324316 
L 390.887885 369.327945 
L 391.019577 369.345485 
L 390.889618 369.324014 
L 391.025353 369.33732 
L 391.145685 369.308289 
L 391.027085 369.339134 
L 391.148188 369.315547 
L 391.154926 369.320688 
L 391.172447 369.293471 
L 391.258316 369.302241 
L 391.283537 369.304055 
L 391.329552 369.339739 
L 391.361705 369.34367 
L 392.85132 369.237829 
L 392.854208 369.221197 
L 392.952592 369.31978 
L 392.961256 369.311615 
L 392.978391 369.327038 
L 393.065415 369.259602 
L 393.07793 369.213939 
L 393.154172 369.322502 
L 393.161681 369.322804 
L 393.254481 369.336715 
L 393.275467 369.324014 
L 421.846358 369.213032 
L 421.863493 369.188537 
L 421.905465 369.278049 
L 421.927414 369.291052 
L 422.04197 369.324316 
L 422.043317 369.322502 
L 422.069309 369.328248 
L 422.158644 369.303451 
L 422.201578 369.316454 
L 422.260685 369.264138 
L 422.265499 369.268069 
L 422.393532 369.340646 
L 422.393725 369.33732 
L 422.484985 369.29589 
L 422.509051 369.309801 
L 422.610515 369.317361 
L 422.53177 369.290447 
L 422.623222 369.313732 
L 422.628998 369.324014 
L 422.767428 369.293169 
L 422.860421 369.314337 
L 422.79265 369.27442 
L 422.881214 369.307987 
L 431.89592 369.199424 
L 431.90054 369.159809 
L 431.992378 369.337622 
L 431.999117 369.337017 
L 437.624307 369.226338 
L 437.656074 369.178558 
L 437.726348 369.259904 
L 437.732894 369.257788 
L 437.89154 369.328852 
L 437.902707 369.317966 
L 438.01245 369.32976 
L 437.90752 369.324014 
L 438.014953 369.331272 
L 438.089463 369.3349 
L 438.04441 369.324316 
L 438.126044 369.322502 
L 438.240022 369.314337 
L 438.127584 369.320083 
L 438.24368 369.302543 
L 438.247916 369.294076 
L 438.336673 369.341553 
L 438.352846 369.336413 
L 446.353296 369.236922 
L 446.353681 369.218778 
L 446.462076 369.309196 
L 446.463231 369.308289 
L 446.582986 369.3222 
L 446.584526 369.324316 
L 446.697542 369.332481 
L 446.70197 369.328248 
L 446.812483 369.330062 
L 446.73008 369.342158 
L 446.814793 369.331272 
L 446.913755 369.338529 
L 446.927809 369.32976 
L 447.049874 369.31222 
L 447.062966 369.324014 
L 447.06778 369.320385 
L 447.201589 369.3349 
L 447.299395 369.322502 
L 447.20544 369.33611 
L 447.315375 369.333691 
L 447.439365 369.322502 
L 447.322691 369.326433 
L 447.439558 369.3222 
L 447.544872 369.337622 
L 447.44052 369.323107 
L 447.550263 369.340646 
L 452.320229 369.229966 
L 452.395509 369.186723 
L 452.354885 369.27321 
L 452.439598 369.200936 
L 452.539907 369.347601 
L 452.562241 369.342763 
L 452.666015 369.336413 
L 452.57283 369.334296 
L 452.679878 369.32099 
L 452.801172 369.259602 
L 452.691237 369.329155 
L 452.801943 369.260812 
L 452.90899 369.219382 
L 452.806756 369.281375 
L 452.921505 369.251437 
L 452.993896 369.307382 
L 452.930746 369.23541 
L 453.040682 369.293774 
L 453.132712 369.267464 
L 453.103062 369.24297 
L 453.141953 369.247203 
L 453.144071 369.236619 
L 453.229747 369.285911 
L 453.251503 369.27321 
L 453.363364 369.341251 
L 453.264981 369.268977 
L 453.368948 369.338227 
L 453.4939 369.341251 
L 453.496596 369.344577 
L 453.622704 369.339437 
L 453.623474 369.33732 
L 453.756513 369.3349 
L 453.863946 369.339134 
L 453.869337 369.337017 
L 454.012002 369.317059 
L 454.01258 369.318873 
L 454.02625 369.325526 
L 454.054167 369.272605 
L 454.121745 369.29831 
L 459.632957 369.189142 
L 459.642198 369.139548 
L 459.724987 369.255671 
L 459.740582 369.250832 
L 472.494055 369.142269 
L 472.496558 369.122916 
L 472.583197 369.2593 
L 472.598599 369.245087 
L 472.713348 369.279561 
L 472.633448 369.237224 
L 472.713541 369.277746 
L 472.721627 369.255671 
L 472.814812 369.319478 
L 472.818085 369.319176 
L 472.946311 369.327038 
L 472.950547 369.320385 
L 473.058942 369.293774 
L 472.955938 369.322502 
L 473.067221 369.305567 
L 473.12575 369.329457 
L 473.071649 369.295588 
L 473.180622 369.305567 
L 473.23299 369.297402 
L 473.215085 369.326131 
L 473.289595 369.329457 
L 473.543544 368.998628 
L 473.560679 369.106283 
L 473.671962 369.292866 
L 473.673695 369.291657 
L 473.712394 369.288633 
L 473.777662 369.334598 
L 473.77978 369.331876 
L 473.850631 369.323409 
L 473.787673 369.3222 
L 473.887597 369.307684 
L 473.905888 369.303451 
L 473.991949 369.341251 
L 473.996763 369.340949 
L 474.131342 369.334598 
L 474.131727 369.335203 
L 474.222409 369.332481 
L 474.24147 369.313732 
L 474.382403 369.281677 
L 474.253022 369.324921 
L 474.387216 369.291657 
L 474.482134 369.338832 
L 474.389719 369.290447 
L 474.500617 369.324619 
L 474.620757 369.321292 
L 474.501002 369.323712 
L 474.626533 369.316151 
L 474.712017 369.319478 
L 474.636929 369.321595 
L 474.736853 369.335808 
L 474.849677 369.324316 
L 474.85603 369.316756 
L 474.915137 369.311615 
L 474.92977 369.33732 
L 474.965966 369.332784 
L 475.088993 369.323107 
L 475.089378 369.320083 
L 475.174477 369.280165 
L 475.203549 369.326736 
L 475.31233 369.343368 
L 475.319646 369.339134 
L 480.41576 369.230874 
L 480.415952 369.224523 
L 480.468128 369.303753 
L 480.525118 369.284097 
L 480.644487 369.300729 
L 480.529161 369.28077 
L 480.64622 369.298612 
L 480.761739 369.253856 
L 480.66297 369.311918 
L 480.776756 369.298612 
L 480.882263 369.335203 
L 480.791774 369.294681 
L 480.891312 369.332481 
L 480.993739 369.326131 
L 481.005676 369.339437 
L 492.783015 369.23299 
L 492.836346 369.182187 
L 492.890062 369.272908 
L 492.893335 369.268977 
L 492.985558 369.269884 
L 492.916439 369.299822 
L 493.002693 369.287726 
L 493.112821 369.318571 
L 493.120522 369.308289 
L 493.237196 369.284097 
L 493.251829 369.308894 
L 503.69762 369.207589 
L 503.698198 369.189747 
L 503.784259 369.306172 
L 503.807363 369.300426 
L 503.931353 369.308894 
L 503.830852 369.321292 
L 503.932508 369.310103 
L 504.050145 369.31978 
L 503.986802 369.286214 
L 504.0513 369.318268 
L 504.167782 369.216963 
L 504.172017 369.23299 
L 504.278102 369.309801 
L 504.175098 369.218475 
L 504.290424 369.297705 
L 504.421153 369.282282 
L 504.299666 369.311011 
L 504.425389 369.292262 
L 504.508562 369.300426 
L 504.427507 369.288633 
L 504.5411 369.269279 
L 504.549957 369.255368 
L 504.63082 369.315849 
L 504.649688 369.306777 
L 504.731899 369.32734 
L 504.755003 369.347904 
L 504.876105 369.341553 
L 504.880533 369.338529 
L 504.965247 369.31343 
L 504.895936 369.343973 
L 504.992201 369.325224 
L 516.444932 369.214544 
L 516.445317 369.213334 
L 516.505002 369.325224 
L 516.531956 369.306777 
L 516.670386 369.332179 
L 516.533111 369.305567 
L 516.674622 369.325224 
L 516.793029 369.208193 
L 516.794954 369.21152 
L 516.845397 369.281073 
L 516.796879 369.204565 
L 516.908163 369.240248 
L 516.942626 369.222709 
L 516.989218 369.315547 
L 516.993454 369.312825 
L 517.126108 369.327643 
L 517.130344 369.321292 
L 517.264923 369.291657 
L 517.130729 369.321595 
L 517.272432 369.304963 
L 528.377644 369.195795 
L 528.381302 369.179163 
L 528.466593 369.278653 
L 528.483151 369.277746 
L 533.392509 369.168276 
L 533.47626 368.972621 
L 533.407334 369.184908 
L 533.506295 369.131685 
L 533.620274 369.304055 
L 533.513419 369.122311 
L 533.62605 369.293774 
L 533.747922 369.30466 
L 533.637024 369.303148 
L 533.748885 369.307079 
L 533.842648 369.335808 
L 533.758511 369.297402 
L 533.865174 369.320083 
L 534.14704 369.210008 
L 534.187664 369.193073 
L 534.209612 369.258695 
L 534.254087 369.241155 
L 534.373264 369.331574 
L 534.277961 369.2342 
L 534.373842 369.331272 
L 534.444116 369.332784 
L 534.412156 369.346694 
L 534.48474 369.339134 
L 534.573112 369.338227 
L 534.593135 369.318268 
L 534.699412 369.308289 
L 534.68478 369.32855 
L 534.704226 369.318268 
L 534.816664 369.314035 
L 534.730602 369.330364 
L 534.818397 369.315244 
L 536.018253 369.205774 
L 536.103351 368.962339 
L 536.018638 369.208496 
L 536.142243 369.08451 
L 536.225416 369.278049 
L 536.155142 369.014655 
L 536.259494 369.260812 
L 537.602208 369.150737 
L 537.637827 369.09328 
L 537.703287 369.20154 
L 537.708678 369.192166 
L 537.846146 369.283794 
L 537.709448 369.187328 
L 537.852884 369.278956 
L 537.969366 369.278049 
L 537.855002 369.276839 
L 537.975142 369.265952 
L 538.007102 369.258392 
L 538.075258 369.302241 
L 538.083729 369.295286 
L 539.050045 369.198516 
L 539.110885 369.101142 
L 539.15921 369.251437 
L 539.160365 369.250832 
L 539.161135 369.24932 
L 539.208305 369.320688 
L 539.257401 369.311313 
L 539.373882 369.347299 
L 539.507884 369.350928 
L 539.650935 369.329155 
L 539.65209 369.330969 
L 539.766839 369.329457 
L 539.672691 369.31222 
L 539.767609 369.327945 
L 541.516757 369.218173 
L 541.566238 369.12473 
L 541.624767 369.254764 
L 541.73143 369.311313 
L 541.626307 369.254461 
L 541.740671 369.2971 
L 541.78091 369.288935 
L 541.79381 369.320688 
L 541.850799 369.311615 
L 541.947835 369.180675 
L 541.869475 369.320083 
L 541.983838 369.259904 
L 542.093581 369.287121 
L 541.99385 369.250227 
L 542.098972 369.278049 
L 542.187729 369.184606 
L 542.214106 369.245994 
L 542.387191 369.316756 
L 542.215068 369.244784 
L 542.388924 369.315244 
L 542.47075 369.294681 
L 542.432436 369.318873 
L 542.5004 369.304963 
L 542.645761 369.269884 
L 542.500978 369.306172 
L 542.649612 369.276234 
L 542.675218 369.297402 
L 542.661934 369.264138 
L 542.7582 369.25174 
L 542.879109 369.237527 
L 542.776875 369.296798 
L 542.888351 369.253252 
L 542.994821 369.333086 
L 543.005025 369.32855 
L 543.124202 369.337017 
L 544.781512 369.22785 
L 544.78363 369.217568 
L 544.851786 369.325526 
L 544.889715 369.322502 
L 545.012935 369.332784 
L 545.013705 369.333993 
L 545.127491 369.346392 
L 545.132689 369.341553 
L 546.82273 369.23299 
L 546.828121 368.241711 
L 546.829661 66.96 
L 546.937479 369.330364 
L 546.939212 369.32855 
L 547.077642 369.341856 
L 546.939597 369.326433 
L 547.077834 369.340949 
L 547.191043 369.285609 
L 547.194701 369.291657 
L 547.336789 369.313127 
L 547.196048 369.285911 
L 547.337559 369.309196 
L 547.410143 369.287726 
L 547.351999 369.317361 
L 547.454618 369.307382 
L 547.568982 369.3222 
L 547.458276 369.301031 
L 547.574565 369.318571 
L 547.687004 369.302241 
L 547.605178 369.330062 
L 547.688159 369.304055 
L 547.688736 369.301939 
L 547.806951 369.32976 
L 547.902831 369.31343 
L 547.811186 369.331574 
L 547.924202 369.327643 
L 547.983117 369.321292 
L 547.962516 369.296193 
L 548.031635 369.298914 
L 548.341418 369.190654 
L 548.393401 369.144689 
L 548.444807 369.27442 
L 548.449813 369.270186 
L 548.517969 369.331574 
L 548.563792 369.321595 
L 548.651586 369.309499 
L 548.607111 369.288028 
L 548.669684 369.288633 
L 548.785973 369.291354 
L 548.679503 369.299822 
L 548.791364 369.303451 
L 548.87704 369.314035 
L 548.81774 369.291657 
L 548.90361 369.297705 
L 548.98505 369.268674 
L 548.933644 369.308289 
L 549.016818 369.299217 
L 549.116742 369.271698 
L 549.088632 369.24176 
L 549.122518 369.267464 
L 549.12348 369.261719 
L 549.220324 369.342158 
L 549.229758 369.341856 
L 549.340656 369.335203 
L 549.346239 369.340949 
L 549.454057 369.340344 
L 549.458678 369.335808 
L 549.585556 369.329457 
L 549.526064 369.271698 
L 549.585941 369.328852 
L 549.588829 369.331876 
L 549.713397 369.3349 
L 549.797148 369.337925 
L 549.804849 369.255973 
L 549.805812 369.23299 
L 549.898227 369.344275 
L 549.914977 369.340344 
L 560.971093 369.231176 
L 561.080643 369.170695 
L 560.990154 369.24297 
L 561.085649 369.197307 
L 561.101629 369.17251 
L 561.302825 369.332481 
L 561.421809 369.302846 
L 561.318612 369.337925 
L 561.422194 369.30466 
L 561.525006 369.330969 
L 561.544067 369.321595 
L 561.663821 369.288028 
L 561.553693 369.332179 
L 561.664591 369.288633 
L 561.752 369.278956 
L 561.672678 369.300426 
L 561.782805 369.309801 
L 561.893511 369.315547 
L 561.793587 369.293169 
L 561.906988 369.29831 
L 561.910839 369.299519 
L 562.021544 369.271396 
L 562.02501 369.26444 
L 562.186929 369.324619 
L 562.298982 369.326736 
L 562.199251 369.329155 
L 562.301678 369.32976 
L 562.42663 369.32734 
L 562.302833 369.32855 
L 562.428748 369.322804 
L 562.594325 369.260207 
L 562.453392 369.36 
L 562.596443 369.265952 
L 562.722359 369.307987 
L 562.632639 369.232688 
L 562.725054 369.304055 
L 564.195031 369.195795 
L 564.2345 369.025844 
L 564.196379 369.200633 
L 564.306892 369.174324 
L 564.307085 369.174022 
L 564.362341 369.288935 
L 564.365614 369.288633 
L 564.415672 369.320083 
L 564.479785 369.293169 
L 564.590106 369.283189 
L 564.49461 369.310708 
L 564.592224 369.285911 
L 564.681943 369.299822 
L 564.609167 369.271698 
L 564.704277 369.286214 
L 564.801313 369.28077 
L 564.758763 369.302543 
L 564.814598 369.295588 
L 564.90836 369.332179 
L 564.925881 369.305265 
L 565.033698 369.306475 
L 564.942631 369.321292 
L 565.038319 369.309801 
L 565.153068 369.316454 
L 565.067006 369.288028 
L 565.155763 369.31343 
L 565.263388 369.331876 
L 565.183103 369.333691 
L 565.265506 369.334296 
L 565.357151 369.340041 
L 565.267046 369.332784 
L 565.380062 369.32855 
L 565.472285 369.305567 
L 565.492693 369.332481 
L 566.515805 369.221802 
L 566.62497 369.240248 
L 566.581266 369.297402 
L 566.625548 369.24297 
L 566.71546 369.275932 
L 566.647111 369.179163 
L 566.738756 369.259602 
L 566.739334 369.258392 
L 566.840606 369.3222 
L 566.841376 369.32099 
L 568.106307 369.21152 
L 568.116896 369.188235 
L 568.209504 369.290447 
L 568.209696 369.289842 
L 568.283628 369.328248 
L 568.230682 369.282282 
L 568.326948 369.307382 
L 568.470191 369.332481 
L 568.341388 369.28954 
L 568.471924 369.328248 
L 568.588021 369.327945 
L 568.482128 369.332481 
L 568.588213 369.32855 
L 568.726643 369.340344 
L 568.727028 369.339739 
L 575.516263 369.228757 
L 575.553614 369.220592 
L 575.595009 369.287121 
L 575.623503 369.271093 
L 583.564654 369.16374 
L 583.598539 368.946917 
L 583.650715 369.321292 
L 583.672664 369.305567 
L 583.779134 369.309499 
L 583.709822 369.291657 
L 583.788183 369.302543 
L 583.940668 369.237224 
L 583.949331 369.255671 
L 584.069471 369.323712 
L 584.069664 369.322502 
L 588.426457 369.211822 
L 588.491147 369.190956 
L 588.46246 369.239341 
L 588.5362 369.233293 
L 588.741631 369.349113 
L 588.871974 369.346089 
L 588.874092 369.347904 
L 598.235932 369.262021 
L 598.240745 362.05786 
L 598.307939 369.343065 
L 598.346445 369.329457 
L 598.353954 369.335808 
L 598.480254 369.326131 
L 598.559 369.34488 
L 598.480832 369.325828 
L 598.596736 369.327038 
L 598.688573 369.294983 
L 598.711485 369.321292 
L 598.820265 369.337017 
L 598.714758 369.320083 
L 598.827581 369.333993 
L 657.536183 369.223314 
L 657.575267 369.20275 
L 657.636492 369.284097 
L 657.636877 369.283189 
L 657.800336 369.33732 
L 657.801491 369.3349 
L 657.822092 369.347601 
L 657.921631 369.322804 
L 658.009425 369.3349 
L 657.922979 369.321595 
L 658.035417 369.314035 
L 658.172499 369.302241 
L 658.03869 369.323409 
L 658.172884 369.30466 
L 658.26915 369.285004 
L 658.214279 369.261416 
L 658.280702 369.267162 
L 703.358466 369.161018 
L 703.465513 369.140153 
L 703.438559 369.216661 
L 703.469556 369.158599 
L 703.497473 369.227547 
L 703.470326 369.149225 
L 703.581994 369.172207 
L 703.652268 369.125335 
L 703.607216 369.213637 
L 703.692508 369.202448 
L 703.810144 369.285004 
L 703.698669 369.184303 
L 703.812262 369.284097 
L 703.923353 369.278351 
L 703.875797 369.320385 
L 703.923545 369.279863 
L 704.047728 369.289238 
L 703.934905 369.294681 
L 704.04792 369.290447 
L 704.16575 369.347299 
L 704.055814 369.284701 
L 704.169023 369.34488 
L 708.775722 369.235107 
L 708.776107 369.23299 
L 708.877763 369.3222 
L 708.878148 369.321595 
L 708.884502 369.328248 
L 708.9954 369.343368 
L 709.096479 369.330364 
L 709.0547 369.309801 
L 709.10418 369.322502 
L 709.216426 369.310406 
L 709.121893 369.326736 
L 709.218159 369.311918 
L 709.31481 369.333993 
L 709.332523 369.324619 
L 711.289027 369.213939 
L 711.318099 369.153458 
L 711.368735 369.272001 
L 711.391838 369.273815 
L 711.519102 369.337622 
L 711.392224 369.271698 
L 711.52507 369.326131 
L 711.637701 369.324921 
L 711.542783 369.339134 
L 711.638471 369.326433 
L 711.7357 369.35123 
L 711.641937 369.325224 
L 711.755723 369.344275 
L 712.463853 369.267767 
L 712.469437 359.366165 
L 712.573211 369.327643 
L 712.574944 369.327038 
L 712.585726 369.328248 
L 712.668899 369.259602 
L 712.678141 369.278351 
L 712.815993 369.303451 
L 712.820229 369.29589 
L 712.921308 369.273513 
L 712.891466 369.308894 
L 712.931705 369.29589 
L 713.013145 369.330667 
L 713.044143 369.302846 
L 713.101325 369.285609 
L 713.130975 369.335203 
L 713.150613 369.333993 
L 713.2257 369.338832 
L 713.155426 369.330062 
L 713.261126 369.323712 
L 713.819852 369.212729 
L 713.887238 369.183699 
L 713.820237 369.216963 
L 713.918813 369.263836 
L 714.032599 369.294076 
L 713.946538 369.236317 
L 714.039915 369.278351 
L 714.143305 369.295588 
L 714.052237 369.300426 
L 714.148696 369.301636 
L 714.252085 369.317059 
L 714.164676 369.29589 
L 714.263059 369.313732 
L 714.402645 369.333691 
L 714.404955 369.330364 
L 714.519704 369.328852 
L 714.4373 369.345485 
L 714.521437 369.330667 
L 714.591325 369.321897 
L 714.613081 369.271093 
L 714.624826 369.288028 
L 714.6358 369.266557 
L 714.730526 369.330667 
L 714.733029 369.328852 
L 714.853938 369.326736 
L 714.733799 369.328248 
L 714.857981 369.318571 
L 714.9735 369.175534 
L 714.858366 369.319176 
L 714.997759 369.240248 
L 715.110583 369.312523 
L 715.022018 369.197609 
L 715.110968 369.31222 
L 715.251708 369.334296 
L 715.254404 369.331272 
L 715.268266 369.334598 
L 715.36742 369.327038 
L 715.485634 369.33611 
L 715.486404 369.334598 
L 715.588061 369.321595 
L 715.503154 369.342763 
L 715.597687 369.327643 
L 715.704157 369.343065 
L 715.638696 369.319176 
L 715.710125 369.337925 
L 715.711088 369.336715 
L 715.834886 369.327038 
L 732.285154 369.221197 
L 732.325586 368.365697 
L 732.397015 369.193376 
L 732.403561 369.185816 
L 732.438024 369.283492 
L 732.483847 369.261719 
L 732.592819 369.317966 
L 732.50464 369.252647 
L 732.599173 369.311313 
L 732.631133 369.322502 
L 732.651156 368.962944 
L 732.661553 367.82893 
L 732.749733 369.333086 
L 732.759937 369.32976 
L 737.486198 369.222709 
L 737.491204 369.209403 
L 737.565328 369.296193 
L 737.595556 369.263533 
L 737.707609 369.278653 
L 737.653893 369.211217 
L 737.707801 369.278049 
L 737.714925 369.268977 
L 737.810613 369.337017 
L 737.810806 369.337017 
L 737.933448 369.350021 
L 737.812153 369.337925 
L 737.933833 369.350323 
L 738.018162 369.335505 
L 737.94346 369.342158 
L 738.038378 369.307987 
L 738.157555 369.265348 
L 738.06822 369.314942 
L 738.159865 369.270489 
L 738.163331 369.267464 
L 738.275191 369.354557 
L 738.426136 369.320688 
L 738.427099 369.321897 
L 738.518744 369.33611 
L 738.53973 369.327038 
L 738.54435 369.332481 
L 738.660447 369.344275 
L 738.78771 369.343065 
L 738.660832 369.343368 
L 738.789635 369.340344 
L 743.115046 369.231176 
L 743.119667 369.218173 
L 743.224404 369.308591 
L 785.944235 369.198516 
L 785.958482 369.149527 
L 786.006615 369.305567 
L 786.04878 369.27321 
L 786.17046 369.31343 
L 786.170652 369.312523 
L 794.260822 369.20275 
L 794.295477 369.119589 
L 794.261207 369.203657 
L 794.372875 369.199726 
L 794.487624 369.325224 
L 794.384042 369.182187 
L 794.488394 369.324619 
L 794.618353 369.333993 
L 794.504374 369.309499 
L 794.621626 369.327643 
L 794.734064 369.263231 
L 794.745808 369.277444 
L 794.877115 369.330364 
L 794.756783 369.25809 
L 794.878077 369.327038 
L 795.044425 369.267464 
L 794.883853 369.332784 
L 795.046157 369.268977 
L 795.052126 369.291052 
L 795.118934 369.197609 
L 795.156863 369.258392 
L 795.174961 369.216056 
L 795.246583 369.344577 
L 795.264873 369.341553 
L 796.034614 369.244179 
L 796.039427 369.221802 
L 796.119135 369.308591 
L 796.145512 369.256578 
L 796.256025 369.322804 
L 796.273353 369.252647 
L 796.338043 369.213032 
L 796.373084 369.333388 
L 796.383673 369.266255 
L 796.387716 369.259602 
L 796.402734 369.337925 
L 796.482634 369.319176 
L 796.53173 369.354254 
L 796.50131 369.27321 
L 796.596035 369.339739 
L 796.741011 369.317663 
L 796.741396 369.318268 
L 796.882329 369.3349 
L 796.741782 369.317966 
L 796.882907 369.333993 
L 796.999003 369.325828 
L 796.88387 369.3349 
L 797.001121 369.32855 
L 797.11741 369.333388 
L 797.007667 369.323409 
L 797.118565 369.331574 
L 797.262964 369.310103 
L 797.119336 369.332784 
L 797.263349 369.311011 
L 797.272783 369.2971 
L 797.380023 369.326131 
L 797.383296 369.321897 
L 797.513255 369.329155 
L 797.637053 369.304963 
L 797.516335 369.333691 
L 797.637245 369.305567 
L 797.764893 369.300426 
L 797.64976 369.285609 
L 797.765086 369.300124 
L 797.801667 369.283492 
L 797.811486 369.320083 
L 797.874829 369.317663 
L 797.979181 369.347601 
L 797.876562 369.313732 
L 797.989963 369.343065 
L 800.784556 369.232688 
L 800.844626 369.152249 
L 800.89815 369.223314 
L 801.008855 369.324316 
L 800.899497 369.222104 
L 801.02137 369.311918 
L 801.109164 369.311918 
L 801.13169 369.278653 
L 801.132075 369.275629 
L 801.197536 369.318873 
L 801.239893 369.317361 
L 801.382751 369.336715 
L 801.382944 369.335203 
L 822.233517 369.224523 
L 822.237946 369.211217 
L 822.339795 369.29589 
L 822.399287 369.322804 
L 822.446457 369.288633 
L 822.450693 369.292262 
L 822.477647 369.263231 
L 822.563131 369.303451 
L 822.663633 369.335808 
L 822.677495 369.329155 
L 822.80264 369.334598 
L 822.678265 369.328248 
L 822.806106 369.324921 
L 822.908725 369.299822 
L 822.810149 369.32734 
L 822.921432 369.316151 
L 823.038684 369.340041 
L 822.921817 369.315849 
L 823.056397 369.321595 
L 823.099716 369.316151 
L 823.083351 369.332481 
L 823.167102 369.330364 
L 823.303992 369.341856 
L 823.168257 369.32734 
L 823.305147 369.340646 
L 823.417971 369.326433 
L 823.307843 369.343368 
L 823.423939 369.333691 
L 823.558904 369.324619 
L 823.425672 369.3349 
L 823.559289 369.327945 
L 826.316146 369.299217 
L 826.324617 368.678987 
L 826.345411 369.325224 
L 826.427237 369.28833 
L 858.102889 369.17886 
L 858.112323 369.147108 
L 858.209744 369.279863 
L 858.210129 369.278351 
L 858.318331 369.327945 
L 858.211476 369.276839 
L 858.327573 369.3222 
L 865.820895 369.21152 
L 865.886741 369.130778 
L 865.922744 369.262021 
L 865.923707 369.262021 
L 865.924285 369.261416 
L 865.963946 369.334296 
L 866.020935 369.322502 
L 868.350373 369.212125 
L 868.362887 369.252344 
L 868.418337 368.513572 
L 868.424883 343.416188 
L 868.526732 369.330364 
L 868.529235 369.329457 
L 871.664609 369.22029 
L 871.690408 369.187932 
L 871.773004 369.243272 
L 871.774159 369.243272 
L 871.802076 369.2342 
L 871.8427 369.291657 
L 871.876393 369.287423 
L 871.994415 369.330062 
L 871.878896 369.285004 
L 872.004041 369.322502 
L 872.05872 369.322502 
L 872.020214 369.3349 
L 872.113592 369.344275 
L 872.23893 369.337925 
L 872.11494 369.341856 
L 872.24047 369.336715 
L 872.342704 369.337622 
L 872.260301 369.34488 
L 872.353293 369.340041 
L 872.500965 369.299822 
L 872.504431 369.308894 
L 872.618024 369.338529 
L 872.505586 369.307684 
L 872.619179 369.338227 
L 872.743747 369.342158 
L 872.749138 369.335505 
L 872.88622 369.325828 
L 872.886413 369.326736 
L 884.485275 369.216358 
L 884.540339 369.199424 
L 884.59213 369.29075 
L 884.734411 369.315244 
L 884.592515 369.290447 
L 884.735373 369.309499 
L 884.846656 369.302241 
L 884.799294 369.322502 
L 884.847812 369.304358 
L 884.977963 369.318873 
L 884.983739 369.311313 
L 885.049199 369.302543 
L 885.06595 369.331272 
L 885.093289 369.329457 
L 885.176655 369.295286 
L 885.216317 369.309196 
L 885.338382 369.307684 
L 885.219975 369.316151 
L 885.344158 369.314942 
L 885.454671 369.339739 
L 885.347431 369.313732 
L 885.457751 369.339134 
L 894.449931 369.228152 
L 894.495368 369.250832 
L 894.524248 369.317663 
L 894.527136 369.312825 
L 894.638034 369.328852 
L 894.532526 369.302846 
L 894.643232 369.325828 
L 894.768763 369.333086 
L 894.656709 369.337017 
L 894.769725 369.333993 
L 894.770688 369.333086 
L 894.904497 369.339134 
L 895.047933 369.302241 
L 894.905845 369.340646 
L 895.051206 369.313732 
L 895.159024 369.342461 
L 895.164415 369.340646 
L 895.315744 369.292564 
L 895.319595 369.303148 
L 895.42799 369.323107 
L 895.357138 369.280468 
L 895.434729 369.320083 
L 895.573544 369.304055 
L 895.435306 369.321595 
L 895.574699 369.30587 
L 895.688678 369.3222 
L 908.22382 369.219382 
L 908.231714 349.646005 
L 908.235949 67.026226 
L 908.292169 369.309801 
L 908.342612 369.300729 
L 914.946247 369.195492 
L 914.947787 369.152854 
L 915.030768 369.333691 
L 915.054449 369.321292 
L 916.880225 369.230571 
L 916.88523 369.08572 
L 916.98862 369.329155 
L 916.990545 369.328248 
L 917.031747 369.301636 
L 916.995166 369.331876 
L 917.107027 369.328248 
L 924.022562 369.21787 
L 924.034307 369.190049 
L 924.114785 369.316151 
L 924.123256 369.332784 
L 924.220677 369.242365 
L 924.221062 369.244179 
L 924.346785 368.925748 
L 924.359877 369.077857 
L 924.468272 369.247203 
L 924.472701 369.240853 
L 924.648289 369.313732 
L 924.649829 369.312523 
L 924.802314 369.274117 
L 924.650215 369.31343 
L 924.802699 369.279258 
L 931.079416 369.168881 
L 931.079801 369.166462 
L 931.15277 369.326736 
L 931.177607 369.314639 
L 946.987323 369.217568 
L 946.987516 369.202448 
L 947.097259 369.308289 
L 947.207194 369.327945 
L 947.127679 369.331876 
L 947.207387 369.328248 
L 947.229335 369.336413 
L 947.274773 369.294681 
L 947.315782 369.302543 
L 947.427065 369.320688 
L 947.316745 369.308289 
L 947.432263 369.326433 
L 948.135003 369.221197 
L 948.135581 369.209403 
L 948.242821 369.307382 
L 948.243976 369.30587 
L 948.371817 369.310406 
L 948.37509 369.304963 
L 948.457686 369.291657 
L 948.489646 369.311313 
L 948.596693 369.282887 
L 948.597656 369.275629 
L 948.60863 369.247808 
L 948.707206 369.293169 
L 948.787685 369.331272 
L 948.722031 369.27321 
L 948.820415 369.31222 
L 948.91052 369.279561 
L 948.833892 369.335505 
L 948.936319 369.29831 
L 948.939977 369.304055 
L 948.979831 369.210008 
L 949.043751 369.237527 
L 949.072246 369.207589 
L 949.094772 369.28954 
L 949.148681 369.278653 
L 949.257846 369.328852 
L 949.269591 369.314035 
L 949.399549 369.304963 
L 949.289806 369.32855 
L 949.403593 369.310406 
L 949.444217 369.324014 
L 949.495237 369.28077 
L 949.514106 369.300729 
L 949.528738 369.287121 
L 949.614029 369.345485 
L 949.62019 369.340949 
L 951.324863 369.229966 
L 951.348545 369.191864 
L 951.41208 369.321897 
L 953.398619 369.22029 
L 953.491804 369.083603 
L 953.510865 369.131988 
L 953.521839 369.08572 
L 953.552067 369.228454 
L 953.575748 369.236619 
L 953.703589 369.304963 
L 953.576518 369.235107 
L 953.722842 369.261114 
L 953.790613 369.221802 
L 953.738052 369.281073 
L 953.835088 369.26686 
L 953.837398 369.265952 
L 953.953687 369.306475 
L 954.06497 369.337017 
L 953.973903 369.328852 
L 954.065355 369.337622 
L 954.132164 369.341251 
L 954.099626 369.329457 
L 954.175869 369.323409 
L 954.307753 369.325526 
L 954.176831 369.320688 
L 954.307945 369.324619 
L 954.413452 369.302241 
L 954.338943 369.336413 
L 954.425774 369.320083 
L 954.478528 369.339739 
L 954.52281 369.31222 
L 954.536672 369.315547 
L 958.410789 369.204565 
L 958.479331 368.921212 
L 958.462003 369.212125 
L 958.521687 369.21031 
L 958.53478 369.197004 
L 958.626039 369.280468 
L 958.626425 369.279863 
L 958.730006 369.34488 
L 958.738285 369.336413 
L 958.853034 369.326736 
L 958.75311 369.341856 
L 958.853612 369.327038 
L 958.854189 369.325526 
L 958.978179 369.317059 
L 959.035746 369.303148 
L 958.990694 369.324316 
L 959.08927 369.325526 
L 959.207292 369.331574 
L 959.091388 369.3222 
L 959.207484 369.330969 
L 959.310874 369.311011 
L 959.243103 369.340949 
L 959.321848 369.317966 
L 959.432361 369.297402 
L 959.335133 369.298914 
L 959.436019 369.291354 
L 959.524969 369.277746 
L 959.462203 369.305265 
L 959.54711 369.296798 
L 959.559047 369.306172 
L 959.635289 369.206984 
L 959.653772 369.213334 
L 959.654735 369.207286 
L 959.725394 369.303451 
L 959.750615 369.291959 
L 963.69982 369.182489 
L 963.714067 369.053363 
L 963.757579 369.25688 
L 963.807445 369.21908 
L 963.91661 369.282585 
L 963.923156 369.281375 
L 963.950496 369.271698 
L 964.022887 369.328248 
L 964.025583 369.323712 
L 964.137829 369.340949 
L 964.055618 369.308894 
L 964.138984 369.339739 
L 964.269328 369.335203 
L 964.272023 369.337017 
L 964.36309 369.33732 
L 964.276066 369.333691 
L 964.380418 369.311615 
L 964.498825 369.290447 
L 964.397939 369.32855 
L 964.514805 369.306777 
L 964.635715 369.323107 
L 964.636292 369.3222 
L 964.751619 369.304963 
L 964.664017 369.333691 
L 964.752966 369.307079 
L 969.750697 369.200028 
L 969.784005 369.139245 
L 969.860632 369.23299 
L 969.862365 369.226942 
L 969.952085 369.318571 
L 969.960748 369.309801 
L 972.54452 369.207891 
L 972.557227 369.178255 
L 972.65407 369.285306 
L 972.654648 369.281677 
L 972.76131 369.276537 
L 972.694887 369.314639 
L 972.766316 369.286516 
L 972.784992 369.252042 
L 972.887418 369.301636 
L 972.908019 369.296495 
L 972.979063 369.342158 
L 972.996199 369.330364 
L 973.109022 369.318873 
L 973.237055 369.319478 
L 973.112103 369.324014 
L 973.238403 369.3222 
L 973.352382 369.343368 
L 973.239366 369.320385 
L 973.359505 369.337017 
L 973.469826 369.308289 
L 973.360276 369.33732 
L 973.48234 369.317361 
L 973.505252 369.323712 
L 973.558005 369.279561 
L 973.58804 369.275629 
L 973.640601 369.252042 
L 973.681418 369.311918 
L 973.692392 369.311313 
L 973.746879 369.336413 
L 973.804253 369.322502 
L 973.897823 369.244482 
L 973.808296 369.32734 
L 973.947496 369.304358 
L 975.034144 369.193376 
L 975.040112 369.180372 
L 975.135993 369.267162 
L 975.138303 369.264138 
L 975.185473 369.283492 
L 975.204149 369.197609 
L 975.249971 369.255973 
L 975.261716 369.246599 
L 975.342579 369.299822 
L 975.360484 369.271093 
L 976.035114 369.185211 
L 976.040698 365.740833 
L 976.057063 369.311011 
L 976.146012 369.303451 
L 979.790825 369.218173 
L 979.791595 369.185211 
L 979.835107 369.348509 
L 979.900953 369.345787 
L 980.031681 369.340041 
L 980.034184 369.343368 
L 980.416744 369.281375 
L 980.420787 352.083681 
L 980.505501 369.325828 
L 980.527835 369.32099 
L 981.755993 369.21031 
L 981.7687 369.185816 
L 981.860922 369.307987 
L 981.862462 369.307684 
L 981.983757 369.34488 
L 985.548476 369.234502 
L 985.577741 369.200331 
L 985.629147 369.291052 
L 985.654176 369.281677 
L 985.734654 369.29831 
L 985.686714 369.259602 
L 985.762956 369.258997 
L 985.84921 369.205472 
L 985.772198 369.28198 
L 985.878668 369.212729 
L 986.025184 369.323712 
L 985.879823 369.211822 
L 986.029035 369.318873 
L 990.98306 369.217265 
L 991.07124 369.097816 
L 991.088182 369.26444 
L 991.093381 369.25688 
L 991.214676 369.327643 
L 991.096654 369.241458 
L 991.220066 369.321292 
L 991.320375 369.321292 
L 991.285912 369.336715 
L 991.330965 369.328248 
L 996.218182 369.339739 
L 996.218182 369.339739 
" style="fill:none;stroke:#1f77b4;stroke-linecap:square;stroke-width:1.5;"/>
   </g>
   <g id="line2d_13">
    <path clip-path="url(#pf0f6c79080)" d="M 184.581818 369.348811 
L 996.218182 369.348811 
L 996.218182 369.348811 
" style="fill:none;stroke:#ff7f0e;stroke-dasharray:5.55,2.4;stroke-dashoffset:0;stroke-width:1.5;"/>
   </g>
   <g id="line2d_14">
    <path clip-path="url(#pf0f6c79080)" d="M 184.581818 369.303148 
L 996.218182 369.303148 
L 996.218182 369.303148 
" style="fill:none;stroke:#2ca02c;stroke-dasharray:5.55,2.4;stroke-dashoffset:0;stroke-width:1.5;"/>
   </g>
   <g id="line2d_15">
    <path clip-path="url(#pf0f6c79080)" d="M 184.581818 369.257485 
L 996.218182 369.257485 
L 996.218182 369.257485 
" style="fill:none;stroke:#d62728;stroke-dasharray:5.55,2.4;stroke-dashoffset:0;stroke-width:1.5;"/>
   </g>
   <g id="patch_3">
    <path d="M 144 384.48 
L 144 51.84 
" style="fill:none;stroke:#000000;stroke-linecap:square;stroke-linejoin:miter;stroke-width:0.8;"/>
   </g>
   <g id="patch_4">
    <path d="M 1036.8 384.48 
L 1036.8 51.84 
" style="fill:none;stroke:#000000;stroke-linecap:square;stroke-linejoin:miter;stroke-width:0.8;"/>
   </g>
   <g id="patch_5">
    <path d="M 144 384.48 
L 1036.8 384.48 
" style="fill:none;stroke:#000000;stroke-linecap:square;stroke-linejoin:miter;stroke-width:0.8;"/>
   </g>
   <g id="patch_6">
    <path d="M 144 51.84 
L 1036.8 51.84 
" style="fill:none;stroke:#000000;stroke-linecap:square;stroke-linejoin:miter;stroke-width:0.8;"/>
   </g>
   <g id="text_16">
    <!-- NC_000964.3 -->
    <g transform="translate(550.092188 45.84)scale(0.12 -0.12)">
     <defs>
      <path d="M 628 4666 
L 1478 4666 
L 3547 763 
L 3547 4666 
L 4159 4666 
L 4159 0 
L 3309 0 
L 1241 3903 
L 1241 0 
L 628 0 
L 628 4666 
z
" id="DejaVuSans-4e" transform="scale(0.015625)"/>
      <path d="M 4122 4306 
L 4122 3641 
Q 3803 3938 3442 4084 
Q 3081 4231 2675 4231 
Q 1875 4231 1450 3742 
Q 1025 3253 1025 2328 
Q 1025 1406 1450 917 
Q 1875 428 2675 428 
Q 3081 428 3442 575 
Q 3803 722 4122 1019 
L 4122 359 
Q 3791 134 3420 21 
Q 3050 -91 2638 -91 
Q 1578 -91 968 557 
Q 359 1206 359 2328 
Q 359 3453 968 4101 
Q 1578 4750 2638 4750 
Q 3056 4750 3426 4639 
Q 3797 4528 4122 4306 
z
" id="DejaVuSans-43" transform="scale(0.015625)"/>
      <path d="M 3263 -1063 
L 3263 -1509 
L -63 -1509 
L -63 -1063 
L 3263 -1063 
z
" id="DejaVuSans-5f" transform="scale(0.015625)"/>
      <path d="M 703 97 
L 703 672 
Q 941 559 1184 500 
Q 1428 441 1663 441 
Q 2288 441 2617 861 
Q 2947 1281 2994 2138 
Q 2813 1869 2534 1725 
Q 2256 1581 1919 1581 
Q 1219 1581 811 2004 
Q 403 2428 403 3163 
Q 403 3881 828 4315 
Q 1253 4750 1959 4750 
Q 2769 4750 3195 4129 
Q 3622 3509 3622 2328 
Q 3622 1225 3098 567 
Q 2575 -91 1691 -91 
Q 1453 -91 1209 -44 
Q 966 3 703 97 
z
M 1959 2075 
Q 2384 2075 2632 2365 
Q 2881 2656 2881 3163 
Q 2881 3666 2632 3958 
Q 2384 4250 1959 4250 
Q 1534 4250 1286 3958 
Q 1038 3666 1038 3163 
Q 1038 2656 1286 2365 
Q 1534 2075 1959 2075 
z
" id="DejaVuSans-39" transform="scale(0.015625)"/>
     </defs>
     <use xlink:href="#DejaVuSans-4e"/>
     <use x="74.804688" xlink:href="#DejaVuSans-43"/>
     <use x="144.628906" xlink:href="#DejaVuSans-5f"/>
     <use x="194.628906" xlink:href="#DejaVuSans-30"/>
     <use x="258.251953" xlink:href="#DejaVuSans-30"/>
     <use x="321.875" xlink:href="#DejaVuSans-30"/>
     <use x="385.498047" xlink:href="#DejaVuSans-39"/>
     <use x="449.121094" xlink:href="#DejaVuSans-36"/>
     <use x="512.744141" xlink:href="#DejaVuSans-34"/>
     <use x="576.367188" xlink:href="#DejaVuSans-2e"/>
     <use x="608.154297" xlink:href="#DejaVuSans-33"/>
    </g>
   </g>
   <g id="legend_1">
    <g id="patch_7">
     <path d="M 146 28.936045 
L 1034.8 28.936045 
Q 1036.8 28.936045 1036.8 26.936045 
L 1036.8 13.25792 
Q 1036.8 11.25792 1034.8 11.25792 
L 146 11.25792 
Q 144 11.25792 144 13.25792 
L 144 26.936045 
Q 144 28.936045 146 28.936045 
z
" style="fill:#ffffff;opacity:0.8;stroke:#cccccc;stroke-linejoin:miter;"/>
    </g>
    <g id="line2d_16">
     <path d="M 148 19.356358 
L 168 19.356358 
" style="fill:none;stroke:#ff7f0e;stroke-dasharray:5.55,2.4;stroke-dashoffset:0;stroke-width:1.5;"/>
    </g>
    <g id="line2d_17"/>
    <g id="text_17">
     <!-- Average depth * 0.2 -->
     <g transform="translate(176 22.856358)scale(0.1 -0.1)">
      <defs>
       <path d="M 2188 4044 
L 1331 1722 
L 3047 1722 
L 2188 4044 
z
M 1831 4666 
L 2547 4666 
L 4325 0 
L 3669 0 
L 3244 1197 
L 1141 1197 
L 716 0 
L 50 0 
L 1831 4666 
z
" id="DejaVuSans-41" transform="scale(0.015625)"/>
       <path d="M 2906 2969 
L 2906 4863 
L 3481 4863 
L 3481 0 
L 2906 0 
L 2906 525 
Q 2725 213 2448 61 
Q 2172 -91 1784 -91 
Q 1150 -91 751 415 
Q 353 922 353 1747 
Q 353 2572 751 3078 
Q 1150 3584 1784 3584 
Q 2172 3584 2448 3432 
Q 2725 3281 2906 2969 
z
M 947 1747 
Q 947 1113 1208 752 
Q 1469 391 1925 391 
Q 2381 391 2643 752 
Q 2906 1113 2906 1747 
Q 2906 2381 2643 2742 
Q 2381 3103 1925 3103 
Q 1469 3103 1208 2742 
Q 947 2381 947 1747 
z
" id="DejaVuSans-64" transform="scale(0.015625)"/>
       <path d="M 3009 3897 
L 1888 3291 
L 3009 2681 
L 2828 2375 
L 1778 3009 
L 1778 1831 
L 1422 1831 
L 1422 3009 
L 372 2375 
L 191 2681 
L 1313 3291 
L 191 3897 
L 372 4206 
L 1422 3572 
L 1422 4750 
L 1778 4750 
L 1778 3572 
L 2828 4206 
L 3009 3897 
z
" id="DejaVuSans-2a" transform="scale(0.015625)"/>
      </defs>
      <use xlink:href="#DejaVuSans-41"/>
      <use x="62.533203" xlink:href="#DejaVuSans-76"/>
      <use x="121.712891" xlink:href="#DejaVuSans-65"/>
      <use x="183.236328" xlink:href="#DejaVuSans-72"/>
      <use x="224.349609" xlink:href="#DejaVuSans-61"/>
      <use x="285.628906" xlink:href="#DejaVuSans-67"/>
      <use x="349.105469" xlink:href="#DejaVuSans-65"/>
      <use x="410.628906" xlink:href="#DejaVuSans-20"/>
      <use x="442.416016" xlink:href="#DejaVuSans-64"/>
      <use x="505.892578" xlink:href="#DejaVuSans-65"/>
      <use x="567.416016" xlink:href="#DejaVuSans-70"/>
      <use x="630.892578" xlink:href="#DejaVuSans-74"/>
      <use x="670.101562" xlink:href="#DejaVuSans-68"/>
      <use x="733.480469" xlink:href="#DejaVuSans-20"/>
      <use x="765.267578" xlink:href="#DejaVuSans-2a"/>
      <use x="815.267578" xlink:href="#DejaVuSans-20"/>
      <use x="847.054688" xlink:href="#DejaVuSans-30"/>
      <use x="910.677734" xlink:href="#DejaVuSans-2e"/>
      <use x="942.464844" xlink:href="#DejaVuSans-32"/>
     </g>
    </g>
    <g id="line2d_18">
     <path d="M 539.724219 19.356358 
L 559.724219 19.356358 
" style="fill:none;stroke:#2ca02c;stroke-dasharray:5.55,2.4;stroke-dashoffset:0;stroke-width:1.5;"/>
    </g>
    <g id="line2d_19"/>
    <g id="text_18">
     <!-- Average depth -->
     <g transform="translate(567.724219 22.856358)scale(0.1 -0.1)">
      <use xlink:href="#DejaVuSans-41"/>
      <use x="62.533203" xlink:href="#DejaVuSans-76"/>
      <use x="121.712891" xlink:href="#DejaVuSans-65"/>
      <use x="183.236328" xlink:href="#DejaVuSans-72"/>
      <use x="224.349609" xlink:href="#DejaVuSans-61"/>
      <use x="285.628906" xlink:href="#DejaVuSans-67"/>
      <use x="349.105469" xlink:href="#DejaVuSans-65"/>
      <use x="410.628906" xlink:href="#DejaVuSans-20"/>
      <use x="442.416016" xlink:href="#DejaVuSans-64"/>
      <use x="505.892578" xlink:href="#DejaVuSans-65"/>
      <use x="567.416016" xlink:href="#DejaVuSans-70"/>
      <use x="630.892578" xlink:href="#DejaVuSans-74"/>
      <use x="670.101562" xlink:href="#DejaVuSans-68"/>
     </g>
    </g>
    <g id="line2d_20">
     <path d="M 904.189062 19.356358 
L 924.189062 19.356358 
" style="fill:none;stroke:#d62728;stroke-dasharray:5.55,2.4;stroke-dashoffset:0;stroke-width:1.5;"/>
    </g>
    <g id="line2d_21"/>
    <g id="text_19">
     <!-- Average depth * 1.8 -->
     <g transform="translate(932.189062 22.856358)scale(0.1 -0.1)">
      <use xlink:href="#DejaVuSans-41"/>
      <use x="62.533203" xlink:href="#DejaVuSans-76"/>
      <use x="121.712891" xlink:href="#DejaVuSans-65"/>
      <use x="183.236328" xlink:href="#DejaVuSans-72"/>
      <use x="224.349609" xlink:href="#DejaVuSans-61"/>
      <use x="285.628906" xlink:href="#DejaVuSans-67"/>
      <use x="349.105469" xlink:href="#DejaVuSans-65"/>
      <use x="410.628906" xlink:href="#DejaVuSans-20"/>
      <use x="442.416016" xlink:href="#DejaVuSans-64"/>
      <use x="505.892578" xlink:href="#DejaVuSans-65"/>
      <use x="567.416016" xlink:href="#DejaVuSans-70"/>
      <use x="630.892578" xlink:href="#DejaVuSans-74"/>
      <use x="670.101562" xlink:href="#DejaVuSans-68"/>
      <use x="733.480469" xlink:href="#DejaVuSans-20"/>
      <use x="765.267578" xlink:href="#DejaVuSans-2a"/>
      <use x="815.267578" xlink:href="#DejaVuSans-20"/>
      <use x="847.054688" xlink:href="#DejaVuSans-31"/>
      <use x="910.677734" xlink:href="#DejaVuSans-2e"/>
      <use x="942.464844" xlink:href="#DejaVuSans-38"/>
     </g>
    </g>
   </g>
  </g>
 </g>
 <defs>
  <clipPath id="pf0f6c79080">
   <rect height="332.64" width="892.8" x="144" y="51.84"/>
  </clipPath>
 </defs>
</svg>
