<?xml version="1.0" encoding="utf-8" standalone="no"?>
<!DOCTYPE svg PUBLIC "-//W3C//DTD SVG 1.1//EN"
  "http://www.w3.org/Graphics/SVG/1.1/DTD/svg11.dtd">
<svg height="432pt" version="1.1" viewBox="0 0 1152 432" width="1152pt" xmlns="http://www.w3.org/2000/svg" xmlns:xlink="http://www.w3.org/1999/xlink">
 <metadata>
  <rdf:RDF xmlns:cc="http://creativecommons.org/ns#" xmlns:dc="http://purl.org/dc/elements/1.1/" xmlns:rdf="http://www.w3.org/1999/02/22-rdf-syntax-ns#">
   <cc:Work>
    <dc:type rdf:resource="http://purl.org/dc/dcmitype/StillImage"/>
    <dc:date>2021-12-27T20:19:09.434012</dc:date>
    <dc:format>image/svg+xml</dc:format>
    <dc:creator>
     <cc:Agent>
      <dc:title>Matplotlib v3.4.3, https://matplotlib.org/</dc:title>
     </cc:Agent>
    </dc:creator>
   </cc:Work>
  </rdf:RDF>
 </metadata>
 <defs>
  <style type="text/css">*{stroke-linecap:butt;stroke-linejoin:round;}</style>
 </defs>
 <g id="figure_1">
  <g id="patch_1">
   <path d="M 0 432 
L 1152 432 
L 1152 0 
L 0 0 
z
" style="fill:#ffffff;"/>
  </g>
  <g id="axes_1">
   <g id="patch_2">
    <path d="M 144 384.48 
L 1036.8 384.48 
L 1036.8 51.84 
L 144 51.84 
z
" style="fill:#ffffff;"/>
   </g>
   <g id="matplotlib.axis_1">
    <g id="xtick_1">
     <g id="line2d_1">
      <defs>
       <path d="M 0 0 
L 0 3.5 
" id="mdad731ede2" style="stroke:#000000;stroke-width:0.8;"/>
      </defs>
      <g>
       <use style="stroke:#000000;stroke-width:0.8;" x="184.581818" xlink:href="#mdad731ede2" y="384.48"/>
      </g>
     </g>
     <g id="text_1">
      <!-- 0 -->
      <g transform="translate(181.400568 399.078438)scale(0.1 -0.1)">
       <defs>
        <path d="M 2034 4250 
Q 1547 4250 1301 3770 
Q 1056 3291 1056 2328 
Q 1056 1369 1301 889 
Q 1547 409 2034 409 
Q 2525 409 2770 889 
Q 3016 1369 3016 2328 
Q 3016 3291 2770 3770 
Q 2525 4250 2034 4250 
z
M 2034 4750 
Q 2819 4750 3233 4129 
Q 3647 3509 3647 2328 
Q 3647 1150 3233 529 
Q 2819 -91 2034 -91 
Q 1250 -91 836 529 
Q 422 1150 422 2328 
Q 422 3509 836 4129 
Q 1250 4750 2034 4750 
z
" id="DejaVuSans-30" transform="scale(0.015625)"/>
       </defs>
       <use xlink:href="#DejaVuSans-30"/>
      </g>
     </g>
    </g>
    <g id="xtick_2">
     <g id="line2d_2">
      <g>
       <use style="stroke:#000000;stroke-width:0.8;" x="359.44123" xlink:href="#mdad731ede2" y="384.48"/>
      </g>
     </g>
     <g id="text_2">
      <!-- 1 -->
      <g transform="translate(356.25998 399.078438)scale(0.1 -0.1)">
       <defs>
        <path d="M 794 531 
L 1825 531 
L 1825 4091 
L 703 3866 
L 703 4441 
L 1819 4666 
L 2450 4666 
L 2450 531 
L 3481 531 
L 3481 0 
L 794 0 
L 794 531 
z
" id="DejaVuSans-31" transform="scale(0.015625)"/>
       </defs>
       <use xlink:href="#DejaVuSans-31"/>
      </g>
     </g>
    </g>
    <g id="xtick_3">
     <g id="line2d_3">
      <g>
       <use style="stroke:#000000;stroke-width:0.8;" x="534.300642" xlink:href="#mdad731ede2" y="384.48"/>
      </g>
     </g>
     <g id="text_3">
      <!-- 2 -->
      <g transform="translate(531.119392 399.078438)scale(0.1 -0.1)">
       <defs>
        <path d="M 1228 531 
L 3431 531 
L 3431 0 
L 469 0 
L 469 531 
Q 828 903 1448 1529 
Q 2069 2156 2228 2338 
Q 2531 2678 2651 2914 
Q 2772 3150 2772 3378 
Q 2772 3750 2511 3984 
Q 2250 4219 1831 4219 
Q 1534 4219 1204 4116 
Q 875 4013 500 3803 
L 500 4441 
Q 881 4594 1212 4672 
Q 1544 4750 1819 4750 
Q 2544 4750 2975 4387 
Q 3406 4025 3406 3419 
Q 3406 3131 3298 2873 
Q 3191 2616 2906 2266 
Q 2828 2175 2409 1742 
Q 1991 1309 1228 531 
z
" id="DejaVuSans-32" transform="scale(0.015625)"/>
       </defs>
       <use xlink:href="#DejaVuSans-32"/>
      </g>
     </g>
    </g>
    <g id="xtick_4">
     <g id="line2d_4">
      <g>
       <use style="stroke:#000000;stroke-width:0.8;" x="709.160054" xlink:href="#mdad731ede2" y="384.48"/>
      </g>
     </g>
     <g id="text_4">
      <!-- 3 -->
      <g transform="translate(705.978804 399.078438)scale(0.1 -0.1)">
       <defs>
        <path d="M 2597 2516 
Q 3050 2419 3304 2112 
Q 3559 1806 3559 1356 
Q 3559 666 3084 287 
Q 2609 -91 1734 -91 
Q 1441 -91 1130 -33 
Q 819 25 488 141 
L 488 750 
Q 750 597 1062 519 
Q 1375 441 1716 441 
Q 2309 441 2620 675 
Q 2931 909 2931 1356 
Q 2931 1769 2642 2001 
Q 2353 2234 1838 2234 
L 1294 2234 
L 1294 2753 
L 1863 2753 
Q 2328 2753 2575 2939 
Q 2822 3125 2822 3475 
Q 2822 3834 2567 4026 
Q 2313 4219 1838 4219 
Q 1578 4219 1281 4162 
Q 984 4106 628 3988 
L 628 4550 
Q 988 4650 1302 4700 
Q 1616 4750 1894 4750 
Q 2613 4750 3031 4423 
Q 3450 4097 3450 3541 
Q 3450 3153 3228 2886 
Q 3006 2619 2597 2516 
z
" id="DejaVuSans-33" transform="scale(0.015625)"/>
       </defs>
       <use xlink:href="#DejaVuSans-33"/>
      </g>
     </g>
    </g>
    <g id="xtick_5">
     <g id="line2d_5">
      <g>
       <use style="stroke:#000000;stroke-width:0.8;" x="884.019465" xlink:href="#mdad731ede2" y="384.48"/>
      </g>
     </g>
     <g id="text_5">
      <!-- 4 -->
      <g transform="translate(880.838215 399.078438)scale(0.1 -0.1)">
       <defs>
        <path d="M 2419 4116 
L 825 1625 
L 2419 1625 
L 2419 4116 
z
M 2253 4666 
L 3047 4666 
L 3047 1625 
L 3713 1625 
L 3713 1100 
L 3047 1100 
L 3047 0 
L 2419 0 
L 2419 1100 
L 313 1100 
L 313 1709 
L 2253 4666 
z
" id="DejaVuSans-34" transform="scale(0.015625)"/>
       </defs>
       <use xlink:href="#DejaVuSans-34"/>
      </g>
     </g>
    </g>
    <g id="text_6">
     <!-- Position -->
     <g transform="translate(570.935938 412.756563)scale(0.1 -0.1)">
      <defs>
       <path d="M 1259 4147 
L 1259 2394 
L 2053 2394 
Q 2494 2394 2734 2622 
Q 2975 2850 2975 3272 
Q 2975 3691 2734 3919 
Q 2494 4147 2053 4147 
L 1259 4147 
z
M 628 4666 
L 2053 4666 
Q 2838 4666 3239 4311 
Q 3641 3956 3641 3272 
Q 3641 2581 3239 2228 
Q 2838 1875 2053 1875 
L 1259 1875 
L 1259 0 
L 628 0 
L 628 4666 
z
" id="DejaVuSans-50" transform="scale(0.015625)"/>
       <path d="M 1959 3097 
Q 1497 3097 1228 2736 
Q 959 2375 959 1747 
Q 959 1119 1226 758 
Q 1494 397 1959 397 
Q 2419 397 2687 759 
Q 2956 1122 2956 1747 
Q 2956 2369 2687 2733 
Q 2419 3097 1959 3097 
z
M 1959 3584 
Q 2709 3584 3137 3096 
Q 3566 2609 3566 1747 
Q 3566 888 3137 398 
Q 2709 -91 1959 -91 
Q 1206 -91 779 398 
Q 353 888 353 1747 
Q 353 2609 779 3096 
Q 1206 3584 1959 3584 
z
" id="DejaVuSans-6f" transform="scale(0.015625)"/>
       <path d="M 2834 3397 
L 2834 2853 
Q 2591 2978 2328 3040 
Q 2066 3103 1784 3103 
Q 1356 3103 1142 2972 
Q 928 2841 928 2578 
Q 928 2378 1081 2264 
Q 1234 2150 1697 2047 
L 1894 2003 
Q 2506 1872 2764 1633 
Q 3022 1394 3022 966 
Q 3022 478 2636 193 
Q 2250 -91 1575 -91 
Q 1294 -91 989 -36 
Q 684 19 347 128 
L 347 722 
Q 666 556 975 473 
Q 1284 391 1588 391 
Q 1994 391 2212 530 
Q 2431 669 2431 922 
Q 2431 1156 2273 1281 
Q 2116 1406 1581 1522 
L 1381 1569 
Q 847 1681 609 1914 
Q 372 2147 372 2553 
Q 372 3047 722 3315 
Q 1072 3584 1716 3584 
Q 2034 3584 2315 3537 
Q 2597 3491 2834 3397 
z
" id="DejaVuSans-73" transform="scale(0.015625)"/>
       <path d="M 603 3500 
L 1178 3500 
L 1178 0 
L 603 0 
L 603 3500 
z
M 603 4863 
L 1178 4863 
L 1178 4134 
L 603 4134 
L 603 4863 
z
" id="DejaVuSans-69" transform="scale(0.015625)"/>
       <path d="M 1172 4494 
L 1172 3500 
L 2356 3500 
L 2356 3053 
L 1172 3053 
L 1172 1153 
Q 1172 725 1289 603 
Q 1406 481 1766 481 
L 2356 481 
L 2356 0 
L 1766 0 
Q 1100 0 847 248 
Q 594 497 594 1153 
L 594 3053 
L 172 3053 
L 172 3500 
L 594 3500 
L 594 4494 
L 1172 4494 
z
" id="DejaVuSans-74" transform="scale(0.015625)"/>
       <path d="M 3513 2113 
L 3513 0 
L 2938 0 
L 2938 2094 
Q 2938 2591 2744 2837 
Q 2550 3084 2163 3084 
Q 1697 3084 1428 2787 
Q 1159 2491 1159 1978 
L 1159 0 
L 581 0 
L 581 3500 
L 1159 3500 
L 1159 2956 
Q 1366 3272 1645 3428 
Q 1925 3584 2291 3584 
Q 2894 3584 3203 3211 
Q 3513 2838 3513 2113 
z
" id="DejaVuSans-6e" transform="scale(0.015625)"/>
      </defs>
      <use xlink:href="#DejaVuSans-50"/>
      <use x="56.677734" xlink:href="#DejaVuSans-6f"/>
      <use x="117.859375" xlink:href="#DejaVuSans-73"/>
      <use x="169.958984" xlink:href="#DejaVuSans-69"/>
      <use x="197.742188" xlink:href="#DejaVuSans-74"/>
      <use x="236.951172" xlink:href="#DejaVuSans-69"/>
      <use x="264.734375" xlink:href="#DejaVuSans-6f"/>
      <use x="325.916016" xlink:href="#DejaVuSans-6e"/>
     </g>
    </g>
    <g id="text_7">
     <!-- 1e6 -->
     <g transform="translate(1017.921875 411.756563)scale(0.1 -0.1)">
      <defs>
       <path d="M 3597 1894 
L 3597 1613 
L 953 1613 
Q 991 1019 1311 708 
Q 1631 397 2203 397 
Q 2534 397 2845 478 
Q 3156 559 3463 722 
L 3463 178 
Q 3153 47 2828 -22 
Q 2503 -91 2169 -91 
Q 1331 -91 842 396 
Q 353 884 353 1716 
Q 353 2575 817 3079 
Q 1281 3584 2069 3584 
Q 2775 3584 3186 3129 
Q 3597 2675 3597 1894 
z
M 3022 2063 
Q 3016 2534 2758 2815 
Q 2500 3097 2075 3097 
Q 1594 3097 1305 2825 
Q 1016 2553 972 2059 
L 3022 2063 
z
" id="DejaVuSans-65" transform="scale(0.015625)"/>
       <path d="M 2113 2584 
Q 1688 2584 1439 2293 
Q 1191 2003 1191 1497 
Q 1191 994 1439 701 
Q 1688 409 2113 409 
Q 2538 409 2786 701 
Q 3034 994 3034 1497 
Q 3034 2003 2786 2293 
Q 2538 2584 2113 2584 
z
M 3366 4563 
L 3366 3988 
Q 3128 4100 2886 4159 
Q 2644 4219 2406 4219 
Q 1781 4219 1451 3797 
Q 1122 3375 1075 2522 
Q 1259 2794 1537 2939 
Q 1816 3084 2150 3084 
Q 2853 3084 3261 2657 
Q 3669 2231 3669 1497 
Q 3669 778 3244 343 
Q 2819 -91 2113 -91 
Q 1303 -91 875 529 
Q 447 1150 447 2328 
Q 447 3434 972 4092 
Q 1497 4750 2381 4750 
Q 2619 4750 2861 4703 
Q 3103 4656 3366 4563 
z
" id="DejaVuSans-36" transform="scale(0.015625)"/>
      </defs>
      <use xlink:href="#DejaVuSans-31"/>
      <use x="63.623047" xlink:href="#DejaVuSans-65"/>
      <use x="125.146484" xlink:href="#DejaVuSans-36"/>
     </g>
    </g>
   </g>
   <g id="matplotlib.axis_2">
    <g id="ytick_1">
     <g id="line2d_6">
      <defs>
       <path d="M 0 0 
L -3.5 0 
" id="m1c4db389fa" style="stroke:#000000;stroke-width:0.8;"/>
      </defs>
      <g>
       <use style="stroke:#000000;stroke-width:0.8;" x="144" xlink:href="#m1c4db389fa" y="369.36"/>
      </g>
     </g>
     <g id="text_8">
      <!-- 0 -->
      <g transform="translate(130.6375 373.159219)scale(0.1 -0.1)">
       <use xlink:href="#DejaVuSans-30"/>
      </g>
     </g>
    </g>
    <g id="ytick_2">
     <g id="line2d_7">
      <g>
       <use style="stroke:#000000;stroke-width:0.8;" x="144" xlink:href="#m1c4db389fa" y="331.88045"/>
      </g>
     </g>
     <g id="text_9">
      <!-- 5000 -->
      <g transform="translate(111.55 335.679669)scale(0.1 -0.1)">
       <defs>
        <path d="M 691 4666 
L 3169 4666 
L 3169 4134 
L 1269 4134 
L 1269 2991 
Q 1406 3038 1543 3061 
Q 1681 3084 1819 3084 
Q 2600 3084 3056 2656 
Q 3513 2228 3513 1497 
Q 3513 744 3044 326 
Q 2575 -91 1722 -91 
Q 1428 -91 1123 -41 
Q 819 9 494 109 
L 494 744 
Q 775 591 1075 516 
Q 1375 441 1709 441 
Q 2250 441 2565 725 
Q 2881 1009 2881 1497 
Q 2881 1984 2565 2268 
Q 2250 2553 1709 2553 
Q 1456 2553 1204 2497 
Q 953 2441 691 2322 
L 691 4666 
z
" id="DejaVuSans-35" transform="scale(0.015625)"/>
       </defs>
       <use xlink:href="#DejaVuSans-35"/>
       <use x="63.623047" xlink:href="#DejaVuSans-30"/>
       <use x="127.246094" xlink:href="#DejaVuSans-30"/>
       <use x="190.869141" xlink:href="#DejaVuSans-30"/>
      </g>
     </g>
    </g>
    <g id="ytick_3">
     <g id="line2d_8">
      <g>
       <use style="stroke:#000000;stroke-width:0.8;" x="144" xlink:href="#m1c4db389fa" y="294.4009"/>
      </g>
     </g>
     <g id="text_10">
      <!-- 10000 -->
      <g transform="translate(105.1875 298.200119)scale(0.1 -0.1)">
       <use xlink:href="#DejaVuSans-31"/>
       <use x="63.623047" xlink:href="#DejaVuSans-30"/>
       <use x="127.246094" xlink:href="#DejaVuSans-30"/>
       <use x="190.869141" xlink:href="#DejaVuSans-30"/>
       <use x="254.492188" xlink:href="#DejaVuSans-30"/>
      </g>
     </g>
    </g>
    <g id="ytick_4">
     <g id="line2d_9">
      <g>
       <use style="stroke:#000000;stroke-width:0.8;" x="144" xlink:href="#m1c4db389fa" y="256.92135"/>
      </g>
     </g>
     <g id="text_11">
      <!-- 15000 -->
      <g transform="translate(105.1875 260.720569)scale(0.1 -0.1)">
       <use xlink:href="#DejaVuSans-31"/>
       <use x="63.623047" xlink:href="#DejaVuSans-35"/>
       <use x="127.246094" xlink:href="#DejaVuSans-30"/>
       <use x="190.869141" xlink:href="#DejaVuSans-30"/>
       <use x="254.492188" xlink:href="#DejaVuSans-30"/>
      </g>
     </g>
    </g>
    <g id="ytick_5">
     <g id="line2d_10">
      <g>
       <use style="stroke:#000000;stroke-width:0.8;" x="144" xlink:href="#m1c4db389fa" y="219.441801"/>
      </g>
     </g>
     <g id="text_12">
      <!-- 20000 -->
      <g transform="translate(105.1875 223.241019)scale(0.1 -0.1)">
       <use xlink:href="#DejaVuSans-32"/>
       <use x="63.623047" xlink:href="#DejaVuSans-30"/>
       <use x="127.246094" xlink:href="#DejaVuSans-30"/>
       <use x="190.869141" xlink:href="#DejaVuSans-30"/>
       <use x="254.492188" xlink:href="#DejaVuSans-30"/>
      </g>
     </g>
    </g>
    <g id="ytick_6">
     <g id="line2d_11">
      <g>
       <use style="stroke:#000000;stroke-width:0.8;" x="144" xlink:href="#m1c4db389fa" y="181.962251"/>
      </g>
     </g>
     <g id="text_13">
      <!-- 25000 -->
      <g transform="translate(105.1875 185.76147)scale(0.1 -0.1)">
       <use xlink:href="#DejaVuSans-32"/>
       <use x="63.623047" xlink:href="#DejaVuSans-35"/>
       <use x="127.246094" xlink:href="#DejaVuSans-30"/>
       <use x="190.869141" xlink:href="#DejaVuSans-30"/>
       <use x="254.492188" xlink:href="#DejaVuSans-30"/>
      </g>
     </g>
    </g>
    <g id="ytick_7">
     <g id="line2d_12">
      <g>
       <use style="stroke:#000000;stroke-width:0.8;" x="144" xlink:href="#m1c4db389fa" y="144.482701"/>
      </g>
     </g>
     <g id="text_14">
      <!-- 30000 -->
      <g transform="translate(105.1875 148.28192)scale(0.1 -0.1)">
       <use xlink:href="#DejaVuSans-33"/>
       <use x="63.623047" xlink:href="#DejaVuSans-30"/>
       <use x="127.246094" xlink:href="#DejaVuSans-30"/>
       <use x="190.869141" xlink:href="#DejaVuSans-30"/>
       <use x="254.492188" xlink:href="#DejaVuSans-30"/>
      </g>
     </g>
    </g>
    <g id="ytick_8">
     <g id="line2d_13">
      <g>
       <use style="stroke:#000000;stroke-width:0.8;" x="144" xlink:href="#m1c4db389fa" y="107.003151"/>
      </g>
     </g>
     <g id="text_15">
      <!-- 35000 -->
      <g transform="translate(105.1875 110.80237)scale(0.1 -0.1)">
       <use xlink:href="#DejaVuSans-33"/>
       <use x="63.623047" xlink:href="#DejaVuSans-35"/>
       <use x="127.246094" xlink:href="#DejaVuSans-30"/>
       <use x="190.869141" xlink:href="#DejaVuSans-30"/>
       <use x="254.492188" xlink:href="#DejaVuSans-30"/>
      </g>
     </g>
    </g>
    <g id="ytick_9">
     <g id="line2d_14">
      <g>
       <use style="stroke:#000000;stroke-width:0.8;" x="144" xlink:href="#m1c4db389fa" y="69.523601"/>
      </g>
     </g>
     <g id="text_16">
      <!-- 40000 -->
      <g transform="translate(105.1875 73.32282)scale(0.1 -0.1)">
       <use xlink:href="#DejaVuSans-34"/>
       <use x="63.623047" xlink:href="#DejaVuSans-30"/>
       <use x="127.246094" xlink:href="#DejaVuSans-30"/>
       <use x="190.869141" xlink:href="#DejaVuSans-30"/>
       <use x="254.492188" xlink:href="#DejaVuSans-30"/>
      </g>
     </g>
    </g>
    <g id="text_17">
     <!-- Depth of coverage -->
     <g transform="translate(99.107812 264.602187)rotate(-90)scale(0.1 -0.1)">
      <defs>
       <path d="M 1259 4147 
L 1259 519 
L 2022 519 
Q 2988 519 3436 956 
Q 3884 1394 3884 2338 
Q 3884 3275 3436 3711 
Q 2988 4147 2022 4147 
L 1259 4147 
z
M 628 4666 
L 1925 4666 
Q 3281 4666 3915 4102 
Q 4550 3538 4550 2338 
Q 4550 1131 3912 565 
Q 3275 0 1925 0 
L 628 0 
L 628 4666 
z
" id="DejaVuSans-44" transform="scale(0.015625)"/>
       <path d="M 1159 525 
L 1159 -1331 
L 581 -1331 
L 581 3500 
L 1159 3500 
L 1159 2969 
Q 1341 3281 1617 3432 
Q 1894 3584 2278 3584 
Q 2916 3584 3314 3078 
Q 3713 2572 3713 1747 
Q 3713 922 3314 415 
Q 2916 -91 2278 -91 
Q 1894 -91 1617 61 
Q 1341 213 1159 525 
z
M 3116 1747 
Q 3116 2381 2855 2742 
Q 2594 3103 2138 3103 
Q 1681 3103 1420 2742 
Q 1159 2381 1159 1747 
Q 1159 1113 1420 752 
Q 1681 391 2138 391 
Q 2594 391 2855 752 
Q 3116 1113 3116 1747 
z
" id="DejaVuSans-70" transform="scale(0.015625)"/>
       <path d="M 3513 2113 
L 3513 0 
L 2938 0 
L 2938 2094 
Q 2938 2591 2744 2837 
Q 2550 3084 2163 3084 
Q 1697 3084 1428 2787 
Q 1159 2491 1159 1978 
L 1159 0 
L 581 0 
L 581 4863 
L 1159 4863 
L 1159 2956 
Q 1366 3272 1645 3428 
Q 1925 3584 2291 3584 
Q 2894 3584 3203 3211 
Q 3513 2838 3513 2113 
z
" id="DejaVuSans-68" transform="scale(0.015625)"/>
       <path id="DejaVuSans-20" transform="scale(0.015625)"/>
       <path d="M 2375 4863 
L 2375 4384 
L 1825 4384 
Q 1516 4384 1395 4259 
Q 1275 4134 1275 3809 
L 1275 3500 
L 2222 3500 
L 2222 3053 
L 1275 3053 
L 1275 0 
L 697 0 
L 697 3053 
L 147 3053 
L 147 3500 
L 697 3500 
L 697 3744 
Q 697 4328 969 4595 
Q 1241 4863 1831 4863 
L 2375 4863 
z
" id="DejaVuSans-66" transform="scale(0.015625)"/>
       <path d="M 3122 3366 
L 3122 2828 
Q 2878 2963 2633 3030 
Q 2388 3097 2138 3097 
Q 1578 3097 1268 2742 
Q 959 2388 959 1747 
Q 959 1106 1268 751 
Q 1578 397 2138 397 
Q 2388 397 2633 464 
Q 2878 531 3122 666 
L 3122 134 
Q 2881 22 2623 -34 
Q 2366 -91 2075 -91 
Q 1284 -91 818 406 
Q 353 903 353 1747 
Q 353 2603 823 3093 
Q 1294 3584 2113 3584 
Q 2378 3584 2631 3529 
Q 2884 3475 3122 3366 
z
" id="DejaVuSans-63" transform="scale(0.015625)"/>
       <path d="M 191 3500 
L 800 3500 
L 1894 563 
L 2988 3500 
L 3597 3500 
L 2284 0 
L 1503 0 
L 191 3500 
z
" id="DejaVuSans-76" transform="scale(0.015625)"/>
       <path d="M 2631 2963 
Q 2534 3019 2420 3045 
Q 2306 3072 2169 3072 
Q 1681 3072 1420 2755 
Q 1159 2438 1159 1844 
L 1159 0 
L 581 0 
L 581 3500 
L 1159 3500 
L 1159 2956 
Q 1341 3275 1631 3429 
Q 1922 3584 2338 3584 
Q 2397 3584 2469 3576 
Q 2541 3569 2628 3553 
L 2631 2963 
z
" id="DejaVuSans-72" transform="scale(0.015625)"/>
       <path d="M 2194 1759 
Q 1497 1759 1228 1600 
Q 959 1441 959 1056 
Q 959 750 1161 570 
Q 1363 391 1709 391 
Q 2188 391 2477 730 
Q 2766 1069 2766 1631 
L 2766 1759 
L 2194 1759 
z
M 3341 1997 
L 3341 0 
L 2766 0 
L 2766 531 
Q 2569 213 2275 61 
Q 1981 -91 1556 -91 
Q 1019 -91 701 211 
Q 384 513 384 1019 
Q 384 1609 779 1909 
Q 1175 2209 1959 2209 
L 2766 2209 
L 2766 2266 
Q 2766 2663 2505 2880 
Q 2244 3097 1772 3097 
Q 1472 3097 1187 3025 
Q 903 2953 641 2809 
L 641 3341 
Q 956 3463 1253 3523 
Q 1550 3584 1831 3584 
Q 2591 3584 2966 3190 
Q 3341 2797 3341 1997 
z
" id="DejaVuSans-61" transform="scale(0.015625)"/>
       <path d="M 2906 1791 
Q 2906 2416 2648 2759 
Q 2391 3103 1925 3103 
Q 1463 3103 1205 2759 
Q 947 2416 947 1791 
Q 947 1169 1205 825 
Q 1463 481 1925 481 
Q 2391 481 2648 825 
Q 2906 1169 2906 1791 
z
M 3481 434 
Q 3481 -459 3084 -895 
Q 2688 -1331 1869 -1331 
Q 1566 -1331 1297 -1286 
Q 1028 -1241 775 -1147 
L 775 -588 
Q 1028 -725 1275 -790 
Q 1522 -856 1778 -856 
Q 2344 -856 2625 -561 
Q 2906 -266 2906 331 
L 2906 616 
Q 2728 306 2450 153 
Q 2172 0 1784 0 
Q 1141 0 747 490 
Q 353 981 353 1791 
Q 353 2603 747 3093 
Q 1141 3584 1784 3584 
Q 2172 3584 2450 3431 
Q 2728 3278 2906 2969 
L 2906 3500 
L 3481 3500 
L 3481 434 
z
" id="DejaVuSans-67" transform="scale(0.015625)"/>
      </defs>
      <use xlink:href="#DejaVuSans-44"/>
      <use x="77.001953" xlink:href="#DejaVuSans-65"/>
      <use x="138.525391" xlink:href="#DejaVuSans-70"/>
      <use x="202.001953" xlink:href="#DejaVuSans-74"/>
      <use x="241.210938" xlink:href="#DejaVuSans-68"/>
      <use x="304.589844" xlink:href="#DejaVuSans-20"/>
      <use x="336.376953" xlink:href="#DejaVuSans-6f"/>
      <use x="397.558594" xlink:href="#DejaVuSans-66"/>
      <use x="432.763672" xlink:href="#DejaVuSans-20"/>
      <use x="464.550781" xlink:href="#DejaVuSans-63"/>
      <use x="519.53125" xlink:href="#DejaVuSans-6f"/>
      <use x="580.712891" xlink:href="#DejaVuSans-76"/>
      <use x="639.892578" xlink:href="#DejaVuSans-65"/>
      <use x="701.416016" xlink:href="#DejaVuSans-72"/>
      <use x="742.529297" xlink:href="#DejaVuSans-61"/>
      <use x="803.808594" xlink:href="#DejaVuSans-67"/>
      <use x="867.285156" xlink:href="#DejaVuSans-65"/>
     </g>
    </g>
   </g>
   <g id="line2d_15">
    <path clip-path="url(#p0d7f7ff151)" d="M 184.581818 369.32252 
L 189.410036 369.217578 
L 189.521072 369.15761 
L 189.439238 369.285041 
L 189.521597 369.165106 
L 189.574404 369.307529 
L 189.52352 369.150115 
L 189.632982 369.19509 
L 189.640501 369.150115 
L 189.64732 369.285041 
L 189.743668 369.247561 
L 189.78441 369.082651 
L 189.848059 369.285041 
L 189.854879 369.240065 
L 190.124162 369.345008 
L 190.204073 369.36 
L 190.167877 369.292537 
L 190.234498 369.315025 
L 194.108159 369.210082 
L 194.193665 369.165106 
L 194.128268 369.300033 
L 194.218495 369.240065 
L 194.344744 369.345008 
L 194.384961 369.352504 
L 194.42448 369.285041 
L 194.45508 369.315025 
L 194.554575 369.210082 
L 194.555274 369.202586 
L 194.651447 369.345008 
L 194.663163 369.315025 
L 197.883374 369.210082 
L 197.885472 369.172602 
L 197.972727 369.315025 
L 197.99301 369.270049 
L 204.730169 369.172602 
L 204.798014 369.03018 
L 204.826167 369.240065 
L 204.840855 369.19509 
L 204.893662 369.300033 
L 204.94 369.315025 
L 204.90905 369.180098 
L 205.003824 369.262553 
L 205.095625 368.857774 
L 205.031626 369.307529 
L 205.11451 369.277545 
L 205.729141 369.172602 
L 205.72984 369.165106 
L 205.789642 369.345008 
L 205.837379 369.292537 
L 205.922535 369.36 
L 205.949289 369.330016 
L 207.332077 369.23257 
L 207.391354 369.142619 
L 207.345016 369.300033 
L 207.442938 369.262553 
L 208.740919 369.165106 
L 208.743367 369.090147 
L 208.788656 369.337512 
L 208.850556 369.285041 
L 209.00041 369.180098 
L 209.001809 369.165106 
L 209.085042 369.330016 
L 209.110047 369.23257 
L 209.1994 369.337512 
L 209.222657 369.300033 
L 212.247375 369.19509 
L 212.251222 369.172602 
L 212.291964 369.337512 
L 212.355438 369.315025 
L 212.401951 369.352504 
L 212.388836 369.300033 
L 212.466474 369.315025 
L 216.477574 369.217578 
L 216.480721 369.19509 
L 216.55661 369.337512 
L 216.587385 369.32252 
L 217.841827 369.217578 
L 217.845674 369.180098 
L 217.942721 369.345008 
L 217.950415 369.32252 
L 219.493724 369.217578 
L 219.493899 369.210082 
L 219.598814 369.345008 
L 219.602311 369.32252 
L 223.202842 369.217578 
L 223.276108 369.127627 
L 223.218754 369.300033 
L 223.314052 369.210082 
L 223.383821 369.315025 
L 223.480343 369.352504 
L 223.391515 369.292537 
L 223.494682 369.315025 
L 223.49678 369.300033 
L 223.532277 369.352504 
L 223.605018 369.345008 
L 223.873253 369.247561 
L 223.894585 369.03018 
L 223.927284 369.315025 
L 223.983764 369.315025 
L 224.055631 369.32252 
L 224.018736 369.052668 
L 224.092701 369.225074 
L 224.238884 369.292537 
L 224.337155 369.345008 
L 224.248501 369.23257 
L 224.349919 369.307529 
L 224.39923 369.202586 
L 224.399929 369.19509 
L 224.437524 369.352504 
L 224.509041 369.255057 
L 231.223643 369.150115 
L 231.229938 368.985205 
L 231.244801 369.337512 
L 231.333629 369.217578 
L 231.433124 369.315025 
L 231.358809 369.127627 
L 231.44519 369.262553 
L 232.586497 369.15761 
L 232.609928 369.075155 
L 232.69526 369.330016 
L 232.695434 369.330016 
L 235.753376 369.225074 
L 235.831713 369.180098 
L 235.778206 369.307529 
L 235.863887 369.240065 
L 235.9716 369.330016 
L 235.87263 369.210082 
L 235.976147 369.300033 
L 236.06585 369.247561 
L 236.030703 369.352504 
L 236.087357 369.292537 
L 242.657175 369.187594 
L 242.658574 369.15761 
L 242.755796 369.345008 
L 242.766637 369.315025 
L 247.219082 369.217578 
L 247.225727 369.187594 
L 247.239016 369.345008 
L 247.329419 369.262553 
L 247.413526 369.32252 
L 247.438531 369.202586 
L 247.439056 369.202586 
L 247.53278 369.307529 
L 247.631051 369.345008 
L 247.590309 369.270049 
L 247.643991 369.315025 
L 249.372301 369.210082 
L 249.420562 369.19509 
L 249.44172 369.32252 
L 249.482113 369.315025 
L 251.252564 369.210082 
L 251.365174 368.9927 
L 251.255537 369.240065 
L 251.365698 369.022684 
L 251.373043 369.120131 
L 251.485127 369.262553 
L 251.476734 369.007692 
L 251.485477 369.255057 
L 251.508559 369.247561 
L 251.560842 369.345008 
L 251.594415 369.345008 
L 255.266637 369.240065 
L 255.271708 369.210082 
L 255.366832 369.32252 
L 255.376624 369.32252 
L 259.606823 369.217578 
L 259.609096 369.202586 
L 259.679914 369.330016 
L 259.71611 369.292537 
L 259.754754 369.32252 
L 259.801616 369.23257 
L 259.826446 369.262553 
L 259.928214 369.240065 
L 259.88957 369.330016 
L 259.937482 369.262553 
L 274.42336 369.315025 
L 274.428781 367.688412 
L 274.484211 369.337512 
L 274.534396 369.300033 
L 283.405014 369.202586 
L 283.491044 369.097643 
L 283.424773 369.270049 
L 283.516049 369.202586 
L 283.575851 369.300033 
L 283.579348 369.345008 
L 283.591938 369.277545 
L 283.687237 369.330016 
L 284.800392 369.225074 
L 284.905832 369.180098 
L 284.881701 369.300033 
L 284.911253 369.23257 
L 284.937132 369.330016 
L 284.911777 369.225074 
L 285.023687 369.292537 
L 285.146089 369.19509 
L 285.165848 369.127627 
L 285.249256 369.330016 
L 285.255726 369.307529 
L 291.3195 369.202586 
L 291.321074 369.180098 
L 291.402559 369.307529 
L 291.429487 369.277545 
L 291.517791 369.330016 
L 291.502403 369.23257 
L 291.540872 369.292537 
L 297.472978 369.187594 
L 297.475601 369.142619 
L 297.545719 369.345008 
L 297.581041 369.315025 
L 297.830565 369.217578 
L 297.889668 369.172602 
L 297.907853 369.292537 
L 297.940727 369.285041 
L 303.603024 369.180098 
L 303.612117 369.165106 
L 303.658105 369.32252 
L 303.711962 369.262553 
L 303.791348 369.337512 
L 303.715809 369.240065 
L 303.824396 369.32252 
L 304.82127 369.270049 
L 304.921989 369.187594 
L 304.843477 369.337512 
L 304.932306 369.270049 
L 304.965179 369.165106 
L 304.967277 369.127627 
L 305.059603 369.337512 
L 305.073767 369.270049 
L 313.13566 369.172602 
L 313.142829 368.955221 
L 313.239526 369.345008 
L 313.245122 369.307529 
L 315.168576 369.202586 
L 315.220684 369.15761 
L 315.26195 369.330016 
L 315.276988 369.307529 
L 315.286955 369.345008 
L 315.380155 369.255057 
L 315.388024 369.307529 
L 315.397292 369.270049 
L 315.460241 369.352504 
L 315.498535 369.330016 
L 315.514622 369.36 
L 315.582817 369.247561 
L 315.608872 369.300033 
L 315.687908 369.19509 
L 315.751032 369.105139 
L 315.702246 369.307529 
L 315.798069 369.262553 
L 315.82867 369.15761 
L 315.829894 369.120131 
L 315.936383 369.292537 
L 315.936558 369.292537 
L 316.68653 369.187594 
L 316.691076 369.180098 
L 316.777457 369.330016 
L 316.794943 369.300033 
L 345.180396 369.210082 
L 345.18092 369.150115 
L 345.288109 369.337512 
L 345.291082 369.307529 
L 346.795922 369.210082 
L 346.896116 369.187594 
L 346.819703 369.307529 
L 346.906608 369.240065 
L 346.932837 369.210082 
L 347.006453 369.330016 
L 347.015895 369.315025 
L 349.369678 369.217578 
L 349.37265 369.19509 
L 349.43455 369.307529 
L 349.480189 369.262553 
L 353.368013 369.15761 
L 353.47118 368.895254 
L 353.379204 369.285041 
L 353.481672 369.022684 
L 353.587287 369.240065 
L 353.594106 369.210082 
L 353.598478 369.180098 
L 353.661252 369.330016 
L 353.703393 369.285041 
L 353.716333 369.32252 
L 353.811107 369.172602 
L 353.812156 369.187594 
L 353.898886 369.292537 
L 353.963234 369.337512 
L 353.921618 369.217578 
L 354.010796 369.330016 
L 358.447154 369.225074 
L 358.449427 369.19509 
L 358.543677 369.352504 
L 358.557141 369.315025 
L 362.240729 369.210082 
L 362.331656 369.172602 
L 362.258565 369.307529 
L 362.351065 369.240065 
L 362.451784 369.337512 
L 362.454932 369.352504 
L 362.490428 369.285041 
L 362.56282 369.345008 
L 363.071486 369.247561 
L 363.07306 369.225074 
L 363.149998 369.352504 
L 363.181997 369.32252 
L 363.262258 369.217578 
L 363.264181 369.19509 
L 363.300902 369.300033 
L 363.372244 369.262553 
L 365.691055 369.165106 
L 365.695252 369.127627 
L 365.794747 369.337512 
L 365.800167 369.32252 
L 367.428108 369.217578 
L 367.449092 369.202586 
L 367.504347 369.345008 
L 367.537046 369.307529 
L 375.831852 369.202586 
L 375.832027 369.19509 
L 375.932396 369.352504 
L 375.939915 369.330016 
L 378.687481 369.225074 
L 378.776834 369.202586 
L 378.726475 369.300033 
L 378.797642 369.262553 
L 378.874056 369.337512 
L 378.800965 369.240065 
L 378.909377 369.292537 
L 402.78031 369.19509 
L 402.812309 369.112635 
L 402.888023 369.300033 
L 402.890297 369.285041 
L 402.933662 369.255057 
L 402.975103 369.352504 
L 403.000108 369.337512 
L 403.119188 369.23257 
L 403.121286 369.225074 
L 403.218857 369.352504 
L 403.2276 369.345008 
L 403.704092 369.247561 
L 403.769665 369.180098 
L 403.810931 369.345008 
L 403.814079 369.337512 
L 404.784199 369.23257 
L 404.831061 369.165106 
L 404.817247 369.315025 
L 404.893486 369.307529 
L 408.100932 369.217578 
L 408.145696 369.045172 
L 408.206372 369.330016 
L 408.211269 369.307529 
L 409.811057 369.202586 
L 409.815429 369.172602 
L 409.898312 369.352504 
L 409.918946 369.337512 
L 409.957065 369.23257 
L 410.066527 369.19509 
L 409.999905 369.352504 
L 410.06845 369.210082 
L 410.172317 369.270049 
L 410.11916 369.000196 
L 410.179836 369.225074 
L 410.28685 369.330016 
L 410.346827 369.352504 
L 410.333712 369.270049 
L 410.396487 369.270049 
L 411.880868 369.172602 
L 411.901502 369.03018 
L 411.98998 369.315025 
L 411.990155 369.315025 
L 414.072206 369.210082 
L 414.072381 369.202586 
L 414.137779 369.337512 
L 414.181144 369.292537 
L 414.276442 369.352504 
L 414.191985 369.277545 
L 414.293229 369.337512 
L 418.237357 369.23257 
L 418.324437 369.150115 
L 418.345595 369.292537 
L 418.346994 369.292537 
L 418.380218 369.187594 
L 418.381616 369.172602 
L 418.468522 369.345008 
L 418.489155 369.270049 
L 418.575361 369.36 
L 418.517307 369.262553 
L 418.60124 369.315025 
L 420.668428 369.23257 
L 420.674723 369.142619 
L 420.74047 369.330016 
L 420.778939 369.315025 
L 428.739239 369.210082 
L 428.795544 369.037676 
L 428.832089 369.32252 
L 428.84975 369.247561 
L 429.614061 369.352504 
L 429.615285 369.36 
L 429.719326 369.262553 
L 429.723872 369.300033 
L 432.791431 369.202586 
L 432.822381 369.03018 
L 432.897221 369.240065 
L 432.902641 369.180098 
L 432.932018 369.285041 
L 432.975558 369.330016 
L 432.949504 369.210082 
L 433.043054 369.285041 
L 434.319527 369.180098 
L 434.321276 369.172602 
L 434.412902 369.345008 
L 434.427765 369.300033 
L 435.347001 369.225074 
L 435.352247 66.96 
L 435.416595 369.352504 
L 435.458037 369.307529 
L 438.14755 369.202586 
L 438.147724 369.19509 
L 438.181123 369.337512 
L 438.255788 369.32252 
L 441.249206 369.217578 
L 441.352198 369.000196 
L 441.28103 369.225074 
L 441.363564 369.075155 
L 441.464982 369.277545 
L 441.477222 369.187594 
L 441.493135 369.285041 
L 441.54874 369.36 
L 441.604345 369.307529 
L 441.701917 369.255057 
L 441.682507 369.337512 
L 441.714682 369.337512 
L 442.020161 369.23257 
L 442.079263 369.180098 
L 442.103394 369.315025 
L 442.129798 369.292537 
L 442.571318 369.187594 
L 442.68113 369.075155 
L 442.598596 369.307529 
L 442.683752 369.127627 
L 442.708058 369.225074 
L 442.802132 369.352504 
L 442.726418 369.15761 
L 442.820318 369.337512 
L 443.050083 369.23257 
L 443.051831 369.225074 
L 443.063547 369.345008 
L 443.15972 369.292537 
L 450.212499 369.187594 
L 450.269154 369.000196 
L 450.313743 369.32252 
L 450.321961 369.32252 
L 451.661209 369.225074 
L 451.663832 369.202586 
L 451.768923 369.345008 
L 451.770846 369.345008 
L 452.703022 369.240065 
L 452.704421 369.23257 
L 452.749534 369.337512 
L 452.812309 369.315025 
L 452.905509 369.345008 
L 452.864417 369.300033 
L 452.92317 369.307529 
L 453.027036 369.285041 
L 452.954295 369.36 
L 453.034031 369.315025 
L 457.606429 369.210082 
L 457.619719 369.172602 
L 457.699455 369.32252 
L 457.715367 369.300033 
L 457.811365 369.345008 
L 457.822381 369.247561 
L 457.825878 369.277545 
L 461.770182 369.172602 
L 461.780498 369.15761 
L 461.843273 369.292537 
L 461.878595 369.285041 
L 461.899753 369.180098 
L 461.900102 369.15761 
L 461.998898 369.32252 
L 462.009914 369.285041 
L 462.459652 369.180098 
L 462.464199 369.150115 
L 462.539213 369.300033 
L 462.569464 369.23257 
L 462.644479 369.337512 
L 462.647626 369.352504 
L 462.748695 369.120131 
L 462.750968 369.142619 
L 462.76688 369.247561 
L 462.782618 369.19509 
L 462.87984 369.330016 
L 462.917434 369.217578 
L 462.991225 369.315025 
L 463.427324 369.210082 
L 463.433445 369.187594 
L 463.535562 369.315025 
L 463.535912 369.315025 
L 463.595539 369.352504 
L 463.608304 369.247561 
L 463.646948 369.32252 
L 466.226649 369.217578 
L 466.23102 369.19509 
L 466.246408 369.352504 
L 466.336111 369.285041 
L 470.151368 369.300033 
L 470.156789 71.48753 
L 470.162035 369.352504 
L 470.262404 369.315025 
L 473.247429 369.210082 
L 473.315974 369.105139 
L 473.272434 369.240065 
L 473.358814 369.165106 
L 473.37018 369.255057 
L 473.473522 369.330016 
L 473.481566 369.307529 
L 473.58176 369.23257 
L 473.502549 369.330016 
L 473.592776 369.300033 
L 473.690698 369.337512 
L 473.664294 369.23257 
L 473.702763 369.262553 
L 473.801558 369.142619 
L 473.745429 369.285041 
L 473.815372 369.19509 
L 473.91137 369.300033 
L 474.002297 369.337512 
L 473.928856 369.180098 
L 474.022231 369.292537 
L 490.452721 369.187594 
L 490.452896 369.180098 
L 490.534205 369.315025 
L 490.563582 369.19509 
L 490.582816 369.300033 
L 490.681962 369.307529 
L 490.660804 369.202586 
L 490.693502 369.285041 
L 506.735454 369.180098 
L 506.740525 369.120131 
L 506.774973 369.337512 
L 506.843518 369.300033 
L 506.938291 369.345008 
L 506.908041 369.277545 
L 506.954903 369.315025 
L 507.07101 369.210082 
L 507.072408 369.202586 
L 507.147248 369.337512 
L 507.179597 369.315025 
L 509.903382 369.217578 
L 509.904432 369.19509 
L 510.009872 369.352504 
L 510.012844 369.345008 
L 510.079466 369.240065 
L 510.121257 369.06766 
L 510.187529 369.32252 
L 510.188578 369.32252 
L 510.593552 369.217578 
L 510.596 369.210082 
L 510.654578 369.352504 
L 510.701965 369.330016 
L 512.542186 369.225074 
L 512.54341 369.202586 
L 512.645003 369.32252 
L 512.652347 369.300033 
L 518.906893 369.19509 
L 518.975089 369.120131 
L 518.932248 369.315025 
L 519.01688 369.285041 
L 530.128496 369.180098 
L 530.133392 369.135123 
L 530.229915 369.352504 
L 530.235685 369.345008 
L 531.048257 369.240065 
L 531.052978 369.23257 
L 531.06889 369.345008 
L 531.157194 369.330016 
L 534.836411 369.225074 
L 534.836761 369.217578 
L 534.845154 369.345008 
L 534.944824 369.337512 
L 535.244358 369.23257 
L 535.245057 369.225074 
L 535.331263 369.337512 
L 535.352946 369.330016 
L 535.430059 369.352504 
L 535.38477 369.277545 
L 535.463981 369.330016 
L 537.105911 369.225074 
L 537.11343 369.19509 
L 537.155222 369.36 
L 537.2138 369.36 
L 537.680499 369.255057 
L 537.685221 369.225074 
L 537.758836 369.337512 
L 537.790486 369.300033 
L 539.047375 369.210082 
L 539.050348 369.165106 
L 539.090041 369.330016 
L 539.157887 369.285041 
L 542.558727 369.180098 
L 542.559776 369.172602 
L 542.594399 369.315025 
L 542.668889 369.217578 
L 543.017034 369.32252 
L 543.020181 369.337512 
L 543.108135 369.19509 
L 543.126496 369.255057 
L 545.389526 369.15761 
L 545.39757 369.090147 
L 545.420301 369.307529 
L 545.501087 369.097643 
L 545.510704 369.187594 
L 545.592713 369.277545 
L 545.534485 369.052668 
L 545.622089 369.23257 
L 545.86392 369.337512 
L 545.865494 369.345008 
L 545.970584 369.180098 
L 545.971458 369.187594 
L 546.051719 369.292537 
L 546.139848 369.337512 
L 546.064833 369.240065 
L 546.162055 369.262553 
L 546.351778 369.165106 
L 546.385001 369.270049 
L 546.464212 369.037676 
L 546.468933 368.940229 
L 546.474879 368.842782 
L 546.522091 369.240065 
L 546.57892 369.150115 
L 546.675792 369.255057 
L 546.743463 369.32252 
L 546.77214 369.217578 
L 546.787003 369.262553 
L 546.841559 369.165106 
L 546.845231 369.120131 
L 546.885798 369.285041 
L 546.95172 369.23257 
L 546.968682 369.135123 
L 547.064854 369.105139 
L 547.032855 369.285041 
L 547.079018 369.187594 
L 547.160502 369.090147 
L 547.163125 369.045172 
L 547.215583 369.277545 
L 547.270489 369.180098 
L 547.297592 369.112635 
L 547.358268 369.337512 
L 547.379077 369.285041 
L 547.502702 369.19509 
L 547.503402 369.165106 
L 547.550439 369.330016 
L 547.613039 369.277545 
L 552.211142 369.172602 
L 552.218486 369.135123 
L 552.286856 369.32252 
L 552.320079 369.255057 
L 552.431639 369.32252 
L 552.396318 369.23257 
L 552.432339 369.307529 
L 558.496113 369.202586 
L 558.505381 369.15761 
L 558.564658 369.330016 
L 558.604876 369.300033 
L 562.408593 369.32252 
L 562.412789 355.327657 
L 562.465947 369.36 
L 562.519629 369.337512 
L 566.889015 369.23257 
L 566.899332 369.19509 
L 566.996029 369.352504 
L 566.997603 369.337512 
L 567.98416 369.247561 
L 567.989581 369.112635 
L 568.045011 369.36 
L 568.094846 369.337512 
L 568.858282 369.23257 
L 568.968094 369.180098 
L 568.884336 369.307529 
L 568.970192 369.19509 
L 569.017055 369.300033 
L 569.110954 369.330016 
L 569.068813 369.187594 
L 569.127741 369.285041 
L 569.226536 369.225074 
L 569.146975 369.337512 
L 569.239476 369.247561 
L 569.251191 369.300033 
L 569.338621 369.142619 
L 569.349637 369.210082 
L 569.523797 369.315025 
L 569.558594 369.337512 
L 569.579228 369.262553 
L 569.634658 369.307529 
L 569.690263 369.165106 
L 569.742721 369.330016 
L 569.745344 369.32252 
L 577.410831 369.225074 
L 577.491791 369.112635 
L 577.504031 369.330016 
L 577.521342 369.270049 
L 584.926988 369.165106 
L 584.927862 369.15761 
L 585.009172 369.330016 
L 585.035401 369.277545 
L 585.121432 369.330016 
L 585.046067 369.255057 
L 585.146611 369.292537 
L 618.600539 369.187594 
L 618.626243 369.082651 
L 618.688493 369.292537 
L 618.709127 369.292537 
L 623.337481 369.292537 
L 623.342551 368.910245 
L 623.420714 369.352504 
L 623.448516 369.337512 
L 623.767984 369.23257 
L 623.768334 369.225074 
L 623.844223 369.345008 
L 623.876572 369.337512 
L 624.360408 369.23257 
L 624.361632 369.217578 
L 624.430002 369.36 
L 624.47022 369.330016 
L 624.557824 369.345008 
L 624.575485 369.270049 
L 624.580731 369.307529 
L 626.422175 369.202586 
L 626.422525 369.19509 
L 626.492819 369.345008 
L 626.530413 369.32252 
L 626.548249 369.225074 
L 626.551746 369.19509 
L 626.576227 369.337512 
L 626.65841 369.292537 
L 632.892673 369.187594 
L 632.893897 369.180098 
L 632.941634 369.307529 
L 633.00231 369.247561 
L 633.211617 369.352504 
L 633.268796 369.36 
L 633.289779 369.292537 
L 633.322478 369.345008 
L 635.768586 369.240065 
L 635.769635 369.225074 
L 635.846398 369.32252 
L 635.877698 369.32252 
L 637.842593 369.217578 
L 637.851336 369.120131 
L 637.883161 369.345008 
L 637.95258 369.262553 
L 661.345797 369.15761 
L 661.351217 369.045172 
L 661.418888 369.32252 
L 661.454559 369.255057 
L 661.460155 369.165106 
L 661.468548 369.022684 
L 661.539716 369.330016 
L 661.570316 369.270049 
L 661.599168 369.337512 
L 661.615605 368.985205 
L 661.680128 369.217578 
L 661.717723 369.112635 
L 661.725766 368.932733 
L 661.824387 369.330016 
L 661.826485 369.300033 
L 661.883489 369.19509 
L 661.910243 368.955221 
L 661.924931 369.337512 
L 661.9947 369.180098 
L 662.005541 369.352504 
L 662.086851 369.06766 
L 662.108708 369.307529 
L 662.785064 369.202586 
L 662.786463 369.187594 
L 662.822659 369.337512 
L 662.893477 369.315025 
L 662.932995 369.36 
L 662.901521 369.262553 
L 663.004513 369.32252 
L 665.136399 369.225074 
L 665.140596 369.165106 
L 665.195676 369.345008 
L 665.24656 369.292537 
L 669.016354 369.225074 
L 669.022474 365.559574 
L 669.039436 369.32252 
L 669.12739 369.225074 
L 669.343691 369.330016 
L 669.443011 369.345008 
L 669.399471 369.262553 
L 669.453678 369.292537 
L 669.554222 369.23257 
L 669.511032 369.345008 
L 669.564539 369.300033 
L 670.826674 369.19509 
L 670.844335 369.150115 
L 670.876334 369.307529 
L 670.936136 369.262553 
L 671.034232 369.300033 
L 671.005905 369.15761 
L 671.046822 369.247561 
L 671.433261 369.352504 
L 671.434135 369.36 
L 671.447425 369.300033 
L 671.544122 369.345008 
L 678.945222 369.240065 
L 678.948544 369.225074 
L 678.964456 369.337512 
L 679.055208 369.330016 
L 685.86878 369.225074 
L 685.913544 369.19509 
L 685.973346 369.32252 
L 685.978067 369.300033 
L 686.127922 369.19509 
L 686.151877 369.142619 
L 686.221122 369.352504 
L 686.235635 369.330016 
L 686.276377 369.352504 
L 686.245427 369.315025 
L 686.346671 369.330016 
L 688.940011 369.225074 
L 689.037407 369.150115 
L 689.048249 369.285041 
L 689.049473 369.285041 
L 689.110673 369.345008 
L 689.062762 369.165106 
L 689.161558 369.330016 
L 696.570001 369.23257 
L 696.659179 369.19509 
L 696.604623 369.330016 
L 696.680687 369.262553 
L 696.76357 369.165106 
L 696.703594 369.307529 
L 696.790849 369.292537 
L 696.880027 369.345008 
L 696.833689 369.255057 
L 696.901884 369.292537 
L 697.912047 369.19509 
L 697.922014 369.112635 
L 698.01976 369.300033 
L 698.022034 369.277545 
L 706.741398 369.180098 
L 706.78931 368.670376 
L 706.834773 369.330016 
L 706.850685 369.330016 
L 707.701202 369.225074 
L 707.704699 369.19509 
L 707.786358 369.337512 
L 707.810139 369.315025 
L 708.533882 369.210082 
L 708.637574 368.955221 
L 708.566581 369.225074 
L 708.649114 369.03018 
L 708.76085 369.247561 
L 708.762248 369.23257 
L 708.821701 369.150115 
L 708.765746 369.277545 
L 708.873459 369.217578 
L 708.987642 369.32252 
L 709.091858 369.345008 
L 709.00233 369.285041 
L 709.098328 369.307529 
L 721.080919 369.202586 
L 721.090012 369.142619 
L 721.165026 369.32252 
L 721.189157 369.315025 
L 721.275363 369.352504 
L 721.213463 369.292537 
L 721.300717 369.337512 
L 723.549409 369.23257 
L 723.550109 369.217578 
L 723.650128 369.36 
L 723.659221 369.330016 
L 724.839697 369.225074 
L 724.840571 369.217578 
L 724.947236 369.36 
L 724.94776 369.352504 
L 725.304298 369.247561 
L 725.312517 369.210082 
L 725.325282 369.330016 
L 725.41446 369.315025 
L 727.759325 369.210082 
L 727.767018 369.135123 
L 727.840809 369.352504 
L 727.868262 369.300033 
L 727.938556 369.345008 
L 727.871235 369.285041 
L 727.979822 369.32252 
L 729.575939 369.217578 
L 729.630495 369.180098 
L 729.684527 369.32252 
L 731.953153 369.217578 
L 732.013829 369.037676 
L 731.967666 369.247561 
L 732.064538 369.187594 
L 732.095663 369.285041 
L 732.200929 369.36 
L 732.110351 369.247561 
L 732.207398 369.345008 
L 732.959294 369.247561 
L 732.965414 367.815843 
L 733.017172 369.300033 
L 733.07033 369.255057 
L 733.148317 369.315025 
L 733.119465 369.19509 
L 733.180316 369.217578 
L 733.190983 369.165106 
L 733.248511 369.337512 
L 733.288904 369.32252 
L 733.296947 369.36 
L 733.315832 369.292537 
L 733.39994 369.32252 
L 734.622731 369.217578 
L 734.623606 369.210082 
L 734.693899 369.330016 
L 734.731494 369.315025 
L 736.061475 369.217578 
L 736.066021 369.135123 
L 736.103616 369.36 
L 736.171286 369.32252 
L 736.322889 369.225074 
L 736.324288 369.135123 
L 736.359435 369.36 
L 736.432876 369.307529 
L 740.825519 369.202586 
L 740.829191 369.165106 
L 740.933582 369.307529 
L 740.934107 369.307529 
L 740.966806 369.210082 
L 741.032378 369.187594 
L 741.046891 369.32252 
L 741.076967 369.277545 
L 741.699991 369.180098 
L 741.791268 369.045172 
L 741.801759 369.202586 
L 741.811202 369.105139 
L 741.911746 369.23257 
L 741.813825 369.022684 
L 741.923462 369.165106 
L 741.930456 369.045172 
L 742.015787 369.285041 
L 742.033623 369.270049 
L 760.880845 369.165106 
L 760.882943 369.150115 
L 760.954286 369.32252 
L 760.989607 369.262553 
L 760.997826 369.352504 
L 761.016011 369.255057 
L 761.100993 369.300033 
L 763.304571 369.210082 
L 763.304746 369.187594 
L 763.364198 369.32252 
L 763.414907 369.300033 
L 773.165768 369.202586 
L 773.170139 369.135123 
L 773.276104 369.315025 
L 778.930533 369.210082 
L 779.02723 369.15761 
L 778.943997 369.292537 
L 779.040519 369.255057 
L 783.446102 369.150115 
L 783.4489 369.090147 
L 783.524089 369.352504 
L 783.55434 369.262553 
L 783.581443 369.352504 
L 783.599803 369.052668 
L 783.664851 369.240065 
L 783.701397 369.165106 
L 783.707517 368.932733 
L 783.773789 369.337512 
L 783.812083 369.247561 
L 783.822225 369.150115 
L 783.89077 368.820294 
L 783.833241 369.32252 
L 783.93326 369.15761 
L 783.933435 369.15761 
L 783.985368 369.330016 
L 783.969107 368.970213 
L 784.044471 369.225074 
L 784.07 369.120131 
L 784.073323 369.052668 
L 784.136097 369.352504 
L 784.178238 369.352504 
L 784.254827 369.247561 
L 784.340683 369.15761 
L 784.260247 369.292537 
L 784.365338 369.270049 
L 802.639371 369.32252 
L 802.644092 368.250605 
L 802.662802 369.345008 
L 802.750406 369.262553 
L 802.859519 369.352504 
L 802.75198 369.255057 
L 802.863191 369.337512 
L 802.886447 369.23257 
L 802.928763 369.36 
L 802.975101 369.300033 
L 804.021284 369.202586 
L 804.026705 369.172602 
L 804.064125 369.337512 
L 804.131096 369.292537 
L 804.236536 369.352504 
L 804.188625 369.225074 
L 804.242831 369.32252 
L 804.429406 369.217578 
L 804.50547 369.19509 
L 804.462804 369.337512 
L 804.539743 369.277545 
L 808.413403 369.19509 
L 808.426693 369.150115 
L 808.519368 369.32252 
L 808.523739 369.32252 
L 808.541575 369.345008 
L 808.614142 369.255057 
L 808.6346 369.315025 
L 809.273187 369.225074 
L 809.286127 369.172602 
L 809.336661 369.307529 
L 809.384048 369.247561 
L 810.885915 369.352504 
L 810.88679 369.36 
L 810.896582 369.315025 
L 810.996601 369.337512 
L 815.605895 369.240065 
L 815.68738 369.202586 
L 815.715357 369.32252 
L 815.715882 369.32252 
L 815.867835 369.225074 
L 815.868359 369.210082 
L 815.938478 369.36 
L 815.977646 369.330016 
L 817.920335 369.23257 
L 817.922783 369.217578 
L 818.014059 369.345008 
L 818.030496 369.307529 
L 823.266836 369.202586 
L 823.277677 369.097643 
L 823.376298 369.337512 
L 823.389063 369.247561 
L 823.396057 369.202586 
L 823.451662 369.315025 
L 823.500273 369.23257 
L 823.61061 369.337512 
L 823.613582 369.330016 
L 823.930253 369.240065 
L 823.930602 369.217578 
L 823.979563 369.36 
L 824.040414 369.345008 
L 824.277348 369.240065 
L 824.282245 369.23257 
L 824.370898 369.337512 
L 824.38681 369.307529 
L 824.450459 369.36 
L 824.426504 369.277545 
L 824.498021 369.315025 
L 824.677602 369.217578 
L 824.6797 369.180098 
L 824.774649 369.337512 
L 824.787239 369.337512 
L 824.851237 369.23257 
L 824.856483 369.135123 
L 824.87834 369.345008 
L 824.961398 369.345008 
L 828.708985 369.240065 
L 828.743782 369.15761 
L 828.8146 369.330016 
L 828.818273 369.315025 
L 831.108231 369.210082 
L 831.111554 369.172602 
L 831.173804 369.32252 
L 831.218218 369.300033 
L 835.350321 369.19509 
L 835.352244 369.150115 
L 835.402604 369.352504 
L 835.458559 369.315025 
L 837.431148 369.217578 
L 837.543058 369.075155 
L 837.449858 369.292537 
L 837.543582 369.082651 
L 837.63311 369.292537 
L 837.655492 369.247561 
L 838.468589 369.345008 
L 838.511429 369.36 
L 838.481353 369.307529 
L 838.579624 369.345008 
L 839.147743 369.240065 
L 839.159108 369.210082 
L 839.232375 369.352504 
L 839.256855 369.315025 
L 839.321903 369.345008 
L 839.274166 369.255057 
L 839.36824 369.330016 
L 842.691618 369.225074 
L 842.692842 369.210082 
L 842.787616 369.330016 
L 842.801255 369.285041 
L 843.133313 369.180098 
L 843.135761 369.165106 
L 843.214273 369.337512 
L 843.240852 369.330016 
L 844.454026 369.23257 
L 844.55492 369.210082 
L 844.482179 369.307529 
L 844.564887 369.247561 
L 844.936638 369.352504 
L 845.010779 369.36 
L 845.034035 369.277545 
L 845.045751 369.277545 
L 845.046275 369.270049 
L 845.14 369.345008 
L 845.155213 369.337512 
L 845.158535 369.36 
L 845.263101 369.262553 
L 845.265199 369.292537 
L 854.972694 369.187594 
L 854.975492 369.172602 
L 855.023928 369.330016 
L 855.080582 369.32252 
L 864.072028 369.217578 
L 864.112421 369.105139 
L 864.162955 369.285041 
L 864.183064 369.217578 
L 864.260876 369.32252 
L 864.363519 369.345008 
L 864.302668 369.270049 
L 864.371562 369.315025 
L 864.458468 369.255057 
L 864.435211 369.36 
L 864.482948 369.300033 
L 864.833016 369.307529 
L 864.837912 367.193682 
L 864.93461 369.345008 
L 864.944052 369.285041 
L 874.252343 369.180098 
L 874.252518 369.172602 
L 874.312145 369.337512 
L 874.361455 369.262553 
L 880.091249 369.337512 
L 880.095795 366.084287 
L 880.159444 369.345008 
L 880.202284 369.32252 
L 880.83545 369.217578 
L 880.875843 369.187594 
L 880.911339 369.330016 
L 880.945087 369.330016 
L 882.111574 369.225074 
L 882.111749 369.217578 
L 882.163682 369.330016 
L 882.220687 369.307529 
L 889.82882 369.202586 
L 889.832492 369.187594 
L 889.911178 369.32252 
L 889.938107 369.277545 
L 890.534377 369.240065 
L 890.539798 369.082651 
L 890.57512 369.32252 
L 890.645238 369.307529 
L 890.660276 369.202586 
L 890.66185 369.187594 
L 890.670943 369.315025 
L 890.770263 369.247561 
L 890.789847 369.15761 
L 890.79212 369.112635 
L 890.80471 369.352504 
L 890.899834 369.292537 
L 905.64293 369.187594 
L 905.645553 369.165106 
L 905.689443 369.337512 
L 905.752217 369.330016 
L 908.427916 369.225074 
L 908.428965 369.202586 
L 908.452921 369.345008 
L 908.538602 369.240065 
L 908.891993 369.345008 
L 908.911402 369.352504 
L 908.98257 369.285041 
L 909.002504 369.32252 
L 913.399169 369.217578 
L 913.403016 369.210082 
L 913.441835 369.352504 
L 913.508631 369.285041 
L 913.582247 369.180098 
L 913.587492 369.172602 
L 913.640125 369.32252 
L 913.691534 369.255057 
L 914.757477 369.187594 
L 914.760275 369.127627 
L 914.787727 369.345008 
L 914.867988 369.32252 
L 916.937974 369.315025 
L 916.942345 366.451587 
L 916.990781 369.352504 
L 917.049009 369.32252 
L 919.011282 369.217578 
L 919.015129 369.187594 
L 919.049751 369.315025 
L 919.122143 369.225074 
L 919.264128 369.330016 
L 919.267276 369.345008 
L 919.352607 369.202586 
L 919.37429 369.292537 
L 919.402092 369.19509 
L 919.385131 369.345008 
L 919.485151 369.300033 
L 920.172523 369.19509 
L 920.229003 369.142619 
L 920.275865 369.337512 
L 920.280761 369.315025 
L 920.679615 369.225074 
L 920.780859 369.19509 
L 920.713363 369.307529 
L 920.790476 369.247561 
L 921.246335 369.352504 
L 921.249482 369.36 
L 921.331316 369.277545 
L 921.356146 369.300033 
L 925.032216 369.202586 
L 925.081701 369.060164 
L 925.138006 369.32252 
L 925.141853 369.32252 
L 925.348886 369.217578 
L 925.349935 369.210082 
L 925.41918 369.352504 
L 925.457999 369.300033 
L 931.319985 369.19509 
L 931.322433 369.165106 
L 931.375416 369.352504 
L 931.427874 369.330016 
L 943.57728 369.225074 
L 943.587947 369.187594 
L 943.607181 369.330016 
L 943.686393 369.292537 
L 943.797079 369.352504 
L 943.723463 369.23257 
L 943.797778 369.337512 
L 944.193135 369.240065 
L 944.302422 369.225074 
L 944.209747 369.352504 
L 944.304171 369.240065 
L 944.408387 369.345008 
L 944.408912 369.352504 
L 944.463993 369.255057 
L 944.517849 369.277545 
L 946.191079 369.180098 
L 946.191604 369.15761 
L 946.299317 369.307529 
L 946.300541 369.307529 
L 946.423292 369.202586 
L 946.423642 369.19509 
L 946.501979 369.315025 
L 946.53223 369.292537 
L 947.228345 369.210082 
L 947.232017 369.165106 
L 947.329064 369.337512 
L 947.339031 369.277545 
L 947.718651 369.172602 
L 947.719875 369.127627 
L 947.808878 369.307529 
L 947.828113 369.300033 
L 957.5454 369.19509 
L 957.550821 369.172602 
L 957.606951 369.330016 
L 957.653813 369.307529 
L 957.6699 369.202586 
L 957.670075 369.19509 
L 957.693506 369.307529 
L 957.778488 369.307529 
L 957.818356 369.210082 
L 957.827623 369.142619 
L 957.906135 369.352504 
L 957.928692 369.270049 
L 969.3297 369.165106 
L 969.329875 369.150115 
L 969.418529 369.32252 
L 969.439162 369.300033 
L 971.135124 369.19509 
L 971.243711 369.007692 
L 971.248782 369.082651 
L 971.283405 369.187594 
L 971.388145 369.270049 
L 971.330966 369.052668 
L 971.39479 369.225074 
L 971.547617 369.330016 
L 971.567551 369.345008 
L 971.655331 369.23257 
L 971.65638 369.23257 
L 971.812179 369.127627 
L 971.815327 369.112635 
L 971.902757 369.315025 
L 971.921467 369.270049 
L 973.057878 369.165106 
L 973.059976 369.127627 
L 973.159121 369.337512 
L 973.165941 369.292537 
L 976.324951 369.19509 
L 976.327049 369.15761 
L 976.371114 369.315025 
L 976.435812 369.217578 
L 976.63725 369.112635 
L 976.713314 368.955221 
L 976.743914 369.19509 
L 976.747237 369.15761 
L 976.808088 369.262553 
L 976.913003 369.352504 
L 976.819803 369.217578 
L 976.920522 369.32252 
L 977.088737 369.217578 
L 977.110594 369.172602 
L 977.172145 369.315025 
L 977.1975 369.315025 
L 980.431175 369.210082 
L 980.436071 369.187594 
L 980.529096 369.330016 
L 980.539937 369.307529 
L 981.904365 369.337512 
L 981.908912 365.85941 
L 981.968888 369.36 
L 982.015401 369.352504 
L 983.671844 369.247561 
L 983.679363 369.202586 
L 983.71486 369.352504 
L 983.780782 369.337512 
L 984.454515 369.240065 
L 984.461509 369.180098 
L 984.546316 369.337512 
L 984.564676 369.307529 
L 989.542224 369.202586 
L 989.542749 369.19509 
L 989.556038 369.300033 
L 989.651511 369.270049 
L 989.748034 369.352504 
L 989.704144 369.255057 
L 989.762897 369.285041 
L 996.218182 369.32252 
L 996.218182 369.32252 
" style="fill:none;stroke:#1f77b4;stroke-linecap:square;stroke-width:1.5;"/>
   </g>
   <g id="line2d_16">
    <path clip-path="url(#p0d7f7ff151)" d="M 184.581818 369.352504 
L 996.218182 369.352504 
L 996.218182 369.352504 
" style="fill:none;stroke:#ff7f0e;stroke-dasharray:5.55,2.4;stroke-dashoffset:0;stroke-width:1.5;"/>
   </g>
   <g id="line2d_17">
    <path clip-path="url(#p0d7f7ff151)" d="M 184.581818 369.315025 
L 996.218182 369.315025 
L 996.218182 369.315025 
" style="fill:none;stroke:#2ca02c;stroke-dasharray:5.55,2.4;stroke-dashoffset:0;stroke-width:1.5;"/>
   </g>
   <g id="line2d_18">
    <path clip-path="url(#p0d7f7ff151)" d="M 184.581818 369.277545 
L 996.218182 369.277545 
L 996.218182 369.277545 
" style="fill:none;stroke:#d62728;stroke-dasharray:5.55,2.4;stroke-dashoffset:0;stroke-width:1.5;"/>
   </g>
   <g id="patch_3">
    <path d="M 144 384.48 
L 144 51.84 
" style="fill:none;stroke:#000000;stroke-linecap:square;stroke-linejoin:miter;stroke-width:0.8;"/>
   </g>
   <g id="patch_4">
    <path d="M 1036.8 384.48 
L 1036.8 51.84 
" style="fill:none;stroke:#000000;stroke-linecap:square;stroke-linejoin:miter;stroke-width:0.8;"/>
   </g>
   <g id="patch_5">
    <path d="M 144 384.48 
L 1036.8 384.48 
" style="fill:none;stroke:#000000;stroke-linecap:square;stroke-linejoin:miter;stroke-width:0.8;"/>
   </g>
   <g id="patch_6">
    <path d="M 144 51.84 
L 1036.8 51.84 
" style="fill:none;stroke:#000000;stroke-linecap:square;stroke-linejoin:miter;stroke-width:0.8;"/>
   </g>
   <g id="text_18">
    <!-- NC_000913.3 -->
    <g transform="translate(550.092188 45.84)scale(0.12 -0.12)">
     <defs>
      <path d="M 628 4666 
L 1478 4666 
L 3547 763 
L 3547 4666 
L 4159 4666 
L 4159 0 
L 3309 0 
L 1241 3903 
L 1241 0 
L 628 0 
L 628 4666 
z
" id="DejaVuSans-4e" transform="scale(0.015625)"/>
      <path d="M 4122 4306 
L 4122 3641 
Q 3803 3938 3442 4084 
Q 3081 4231 2675 4231 
Q 1875 4231 1450 3742 
Q 1025 3253 1025 2328 
Q 1025 1406 1450 917 
Q 1875 428 2675 428 
Q 3081 428 3442 575 
Q 3803 722 4122 1019 
L 4122 359 
Q 3791 134 3420 21 
Q 3050 -91 2638 -91 
Q 1578 -91 968 557 
Q 359 1206 359 2328 
Q 359 3453 968 4101 
Q 1578 4750 2638 4750 
Q 3056 4750 3426 4639 
Q 3797 4528 4122 4306 
z
" id="DejaVuSans-43" transform="scale(0.015625)"/>
      <path d="M 3263 -1063 
L 3263 -1509 
L -63 -1509 
L -63 -1063 
L 3263 -1063 
z
" id="DejaVuSans-5f" transform="scale(0.015625)"/>
      <path d="M 703 97 
L 703 672 
Q 941 559 1184 500 
Q 1428 441 1663 441 
Q 2288 441 2617 861 
Q 2947 1281 2994 2138 
Q 2813 1869 2534 1725 
Q 2256 1581 1919 1581 
Q 1219 1581 811 2004 
Q 403 2428 403 3163 
Q 403 3881 828 4315 
Q 1253 4750 1959 4750 
Q 2769 4750 3195 4129 
Q 3622 3509 3622 2328 
Q 3622 1225 3098 567 
Q 2575 -91 1691 -91 
Q 1453 -91 1209 -44 
Q 966 3 703 97 
z
M 1959 2075 
Q 2384 2075 2632 2365 
Q 2881 2656 2881 3163 
Q 2881 3666 2632 3958 
Q 2384 4250 1959 4250 
Q 1534 4250 1286 3958 
Q 1038 3666 1038 3163 
Q 1038 2656 1286 2365 
Q 1534 2075 1959 2075 
z
" id="DejaVuSans-39" transform="scale(0.015625)"/>
      <path d="M 684 794 
L 1344 794 
L 1344 0 
L 684 0 
L 684 794 
z
" id="DejaVuSans-2e" transform="scale(0.015625)"/>
     </defs>
     <use xlink:href="#DejaVuSans-4e"/>
     <use x="74.804688" xlink:href="#DejaVuSans-43"/>
     <use x="144.628906" xlink:href="#DejaVuSans-5f"/>
     <use x="194.628906" xlink:href="#DejaVuSans-30"/>
     <use x="258.251953" xlink:href="#DejaVuSans-30"/>
     <use x="321.875" xlink:href="#DejaVuSans-30"/>
     <use x="385.498047" xlink:href="#DejaVuSans-39"/>
     <use x="449.121094" xlink:href="#DejaVuSans-31"/>
     <use x="512.744141" xlink:href="#DejaVuSans-33"/>
     <use x="576.367188" xlink:href="#DejaVuSans-2e"/>
     <use x="608.154297" xlink:href="#DejaVuSans-33"/>
    </g>
   </g>
   <g id="legend_1">
    <g id="patch_7">
     <path d="M 146 28.936045 
L 1034.8 28.936045 
Q 1036.8 28.936045 1036.8 26.936045 
L 1036.8 13.25792 
Q 1036.8 11.25792 1034.8 11.25792 
L 146 11.25792 
Q 144 11.25792 144 13.25792 
L 144 26.936045 
Q 144 28.936045 146 28.936045 
z
" style="fill:#ffffff;opacity:0.8;stroke:#cccccc;stroke-linejoin:miter;"/>
    </g>
    <g id="line2d_19">
     <path d="M 148 19.356358 
L 168 19.356358 
" style="fill:none;stroke:#ff7f0e;stroke-dasharray:5.55,2.4;stroke-dashoffset:0;stroke-width:1.5;"/>
    </g>
    <g id="line2d_20"/>
    <g id="text_19">
     <!-- Average depth * 0.2 -->
     <g transform="translate(176 22.856358)scale(0.1 -0.1)">
      <defs>
       <path d="M 2188 4044 
L 1331 1722 
L 3047 1722 
L 2188 4044 
z
M 1831 4666 
L 2547 4666 
L 4325 0 
L 3669 0 
L 3244 1197 
L 1141 1197 
L 716 0 
L 50 0 
L 1831 4666 
z
" id="DejaVuSans-41" transform="scale(0.015625)"/>
       <path d="M 2906 2969 
L 2906 4863 
L 3481 4863 
L 3481 0 
L 2906 0 
L 2906 525 
Q 2725 213 2448 61 
Q 2172 -91 1784 -91 
Q 1150 -91 751 415 
Q 353 922 353 1747 
Q 353 2572 751 3078 
Q 1150 3584 1784 3584 
Q 2172 3584 2448 3432 
Q 2725 3281 2906 2969 
z
M 947 1747 
Q 947 1113 1208 752 
Q 1469 391 1925 391 
Q 2381 391 2643 752 
Q 2906 1113 2906 1747 
Q 2906 2381 2643 2742 
Q 2381 3103 1925 3103 
Q 1469 3103 1208 2742 
Q 947 2381 947 1747 
z
" id="DejaVuSans-64" transform="scale(0.015625)"/>
       <path d="M 3009 3897 
L 1888 3291 
L 3009 2681 
L 2828 2375 
L 1778 3009 
L 1778 1831 
L 1422 1831 
L 1422 3009 
L 372 2375 
L 191 2681 
L 1313 3291 
L 191 3897 
L 372 4206 
L 1422 3572 
L 1422 4750 
L 1778 4750 
L 1778 3572 
L 2828 4206 
L 3009 3897 
z
" id="DejaVuSans-2a" transform="scale(0.015625)"/>
      </defs>
      <use xlink:href="#DejaVuSans-41"/>
      <use x="62.533203" xlink:href="#DejaVuSans-76"/>
      <use x="121.712891" xlink:href="#DejaVuSans-65"/>
      <use x="183.236328" xlink:href="#DejaVuSans-72"/>
      <use x="224.349609" xlink:href="#DejaVuSans-61"/>
      <use x="285.628906" xlink:href="#DejaVuSans-67"/>
      <use x="349.105469" xlink:href="#DejaVuSans-65"/>
      <use x="410.628906" xlink:href="#DejaVuSans-20"/>
      <use x="442.416016" xlink:href="#DejaVuSans-64"/>
      <use x="505.892578" xlink:href="#DejaVuSans-65"/>
      <use x="567.416016" xlink:href="#DejaVuSans-70"/>
      <use x="630.892578" xlink:href="#DejaVuSans-74"/>
      <use x="670.101562" xlink:href="#DejaVuSans-68"/>
      <use x="733.480469" xlink:href="#DejaVuSans-20"/>
      <use x="765.267578" xlink:href="#DejaVuSans-2a"/>
      <use x="815.267578" xlink:href="#DejaVuSans-20"/>
      <use x="847.054688" xlink:href="#DejaVuSans-30"/>
      <use x="910.677734" xlink:href="#DejaVuSans-2e"/>
      <use x="942.464844" xlink:href="#DejaVuSans-32"/>
     </g>
    </g>
    <g id="line2d_21">
     <path d="M 539.724219 19.356358 
L 559.724219 19.356358 
" style="fill:none;stroke:#2ca02c;stroke-dasharray:5.55,2.4;stroke-dashoffset:0;stroke-width:1.5;"/>
    </g>
    <g id="line2d_22"/>
    <g id="text_20">
     <!-- Average depth -->
     <g transform="translate(567.724219 22.856358)scale(0.1 -0.1)">
      <use xlink:href="#DejaVuSans-41"/>
      <use x="62.533203" xlink:href="#DejaVuSans-76"/>
      <use x="121.712891" xlink:href="#DejaVuSans-65"/>
      <use x="183.236328" xlink:href="#DejaVuSans-72"/>
      <use x="224.349609" xlink:href="#DejaVuSans-61"/>
      <use x="285.628906" xlink:href="#DejaVuSans-67"/>
      <use x="349.105469" xlink:href="#DejaVuSans-65"/>
      <use x="410.628906" xlink:href="#DejaVuSans-20"/>
      <use x="442.416016" xlink:href="#DejaVuSans-64"/>
      <use x="505.892578" xlink:href="#DejaVuSans-65"/>
      <use x="567.416016" xlink:href="#DejaVuSans-70"/>
      <use x="630.892578" xlink:href="#DejaVuSans-74"/>
      <use x="670.101562" xlink:href="#DejaVuSans-68"/>
     </g>
    </g>
    <g id="line2d_23">
     <path d="M 904.189062 19.356358 
L 924.189062 19.356358 
" style="fill:none;stroke:#d62728;stroke-dasharray:5.55,2.4;stroke-dashoffset:0;stroke-width:1.5;"/>
    </g>
    <g id="line2d_24"/>
    <g id="text_21">
     <!-- Average depth * 1.8 -->
     <g transform="translate(932.189062 22.856358)scale(0.1 -0.1)">
      <defs>
       <path d="M 2034 2216 
Q 1584 2216 1326 1975 
Q 1069 1734 1069 1313 
Q 1069 891 1326 650 
Q 1584 409 2034 409 
Q 2484 409 2743 651 
Q 3003 894 3003 1313 
Q 3003 1734 2745 1975 
Q 2488 2216 2034 2216 
z
M 1403 2484 
Q 997 2584 770 2862 
Q 544 3141 544 3541 
Q 544 4100 942 4425 
Q 1341 4750 2034 4750 
Q 2731 4750 3128 4425 
Q 3525 4100 3525 3541 
Q 3525 3141 3298 2862 
Q 3072 2584 2669 2484 
Q 3125 2378 3379 2068 
Q 3634 1759 3634 1313 
Q 3634 634 3220 271 
Q 2806 -91 2034 -91 
Q 1263 -91 848 271 
Q 434 634 434 1313 
Q 434 1759 690 2068 
Q 947 2378 1403 2484 
z
M 1172 3481 
Q 1172 3119 1398 2916 
Q 1625 2713 2034 2713 
Q 2441 2713 2670 2916 
Q 2900 3119 2900 3481 
Q 2900 3844 2670 4047 
Q 2441 4250 2034 4250 
Q 1625 4250 1398 4047 
Q 1172 3844 1172 3481 
z
" id="DejaVuSans-38" transform="scale(0.015625)"/>
      </defs>
      <use xlink:href="#DejaVuSans-41"/>
      <use x="62.533203" xlink:href="#DejaVuSans-76"/>
      <use x="121.712891" xlink:href="#DejaVuSans-65"/>
      <use x="183.236328" xlink:href="#DejaVuSans-72"/>
      <use x="224.349609" xlink:href="#DejaVuSans-61"/>
      <use x="285.628906" xlink:href="#DejaVuSans-67"/>
      <use x="349.105469" xlink:href="#DejaVuSans-65"/>
      <use x="410.628906" xlink:href="#DejaVuSans-20"/>
      <use x="442.416016" xlink:href="#DejaVuSans-64"/>
      <use x="505.892578" xlink:href="#DejaVuSans-65"/>
      <use x="567.416016" xlink:href="#DejaVuSans-70"/>
      <use x="630.892578" xlink:href="#DejaVuSans-74"/>
      <use x="670.101562" xlink:href="#DejaVuSans-68"/>
      <use x="733.480469" xlink:href="#DejaVuSans-20"/>
      <use x="765.267578" xlink:href="#DejaVuSans-2a"/>
      <use x="815.267578" xlink:href="#DejaVuSans-20"/>
      <use x="847.054688" xlink:href="#DejaVuSans-31"/>
      <use x="910.677734" xlink:href="#DejaVuSans-2e"/>
      <use x="942.464844" xlink:href="#DejaVuSans-38"/>
     </g>
    </g>
   </g>
  </g>
 </g>
 <defs>
  <clipPath id="p0d7f7ff151">
   <rect height="332.64" width="892.8" x="144" y="51.84"/>
  </clipPath>
 </defs>
</svg>
